{
.appVersion = "1342";
DisplayStrings = (
"/Hbar/Iogonek/Kcommaaccent/Eng/Tbar/Uogonek/iogonek/kcommaaccent/longs/tbar/uogonek/fi/fl/Gheupturn-cy/Dzhe-cy \012/Lje-cy/Nje-cy/E-cy/Tshe-cy/Dje-cy/gheupturn-cy/dzhe-cy/lje-cy/nje-cy/e-cy \012/tshe-cy/dje-cy/florin",
"/gbreve",
"/Hbar/Iogonek/Kcommaaccent/Eng/Tbar/Uogonek/iogonek/kcommaaccent/longs/tbar/uogonek/fi/fl/Gheupturn-cy/Dzhe-cy \012/Lje-cy/Nje-cy/E-cy/Tshe-cy/Dje-cy/gheupturn-cy/dzhe-cy/lje-cy \012/nje-cy/e-cy/tshe-cy/dje-cy/florin",
"/Upsilondieresis"
);
copyright = "Font Copyright Copyright 2019 Morisawa Inc. All rights reserved.";
customParameters = (
{
name = license;
value = "Google font";
},
{
name = vendorID;
value = MRSW;
},
{
name = panose;
value = (
2,
11,
4,
0,
0,
0,
0,
0,
0,
0
);
},
{
name = unicodeRanges;
value = (
0,
1,
2,
4,
5,
6,
7,
9,
29,
30,
31,
35,
36,
37,
38,
39,
40,
42,
43,
45,
46,
47,
48,
49,
50,
54,
55,
57,
59,
61,
65,
68
);
},
{
name = fsType;
value = (
);
},
{
name = trademark;
value = "BIZ UDMincho Medium is a trademark of Morisawa Inc.";
}
);
date = "2019-04-02 01:04:19 +0000";
designer = "TypeBank Co., Ltd.";
designerURL = "http://www.morisawa.co.jp/";
disablesAutomaticAlignment = 1;
familyName = "BIZ-UDMinchoExt";
fontMaster = (
{
ascender = 1802;
capHeight = 1567;
customParameters = (
{
name = typoAscender;
value = 1802;
},
{
name = typoDescender;
value = -246;
},
{
name = typoLineGap;
value = 0;
},
{
name = winAscent;
value = 1802;
},
{
name = winDescent;
value = 246;
},
{
name = hheaAscender;
value = 1802;
},
{
name = hheaDescender;
value = -246;
},
{
name = strikeoutPosition;
value = 727;
},
{
name = strikeoutSize;
value = 102;
},
{
name = underlinePosition;
value = -246;
},
{
name = underlineThickness;
value = 102;
},
{
name = hheaLineGap;
value = 0;
},
{
name = vheaVertAscender;
value = 1802;
},
{
name = vheaVertDescender;
value = 246;
},
{
name = vheaVertLineGap;
value = 0;
}
);
descender = -246;
id = "4E782664-D0D5-4FED-AFC2-B9212141A2ED";
weightValue = 400;
widthValue = 5;

glyphs = (
{
color = 3;
glyphname = Cdotaccent;
lastChange = "2022-04-07 18:22:10 +0000";
layers = (
{
layerId = "4E782664-D0D5-4FED-AFC2-B9212141A2ED";
paths = (
{
closed = 1;
nodes = (
"842 1026 LINE",
"770 1026 LINE",
"751 1139 OFFCURVE",
"723 1224 OFFCURVE",
"688 1280 CURVE SMOOTH",
"645 1349 OFFCURVE",
"595 1384 OFFCURVE",
"540 1384 CURVE SMOOTH",
"455 1384 OFFCURVE",
"390 1330 OFFCURVE",
"345 1221 CURVE SMOOTH",
"300 1114 OFFCURVE",
"278 963 OFFCURVE",
"278 766 CURVE SMOOTH",
"278 555 OFFCURVE",
"306 388 OFFCURVE",
"363 263 CURVE SMOOTH",
"415 149 OFFCURVE",
"480 92 OFFCURVE",
"559 92 CURVE SMOOTH",
"629 92 OFFCURVE",
"686 136 OFFCURVE",
"731 224 CURVE SMOOTH",
"762 285 OFFCURVE",
"790 376 OFFCURVE",
"815 498 CURVE",
"887 463 LINE",
"864 302 OFFCURVE",
"830 184 OFFCURVE",
"784 107 CURVE SMOOTH",
"726 10 OFFCURVE",
"644 -39 OFFCURVE",
"538 -39 CURVE SMOOTH",
"423 -39 OFFCURVE",
"327 32 OFFCURVE",
"252 174 CURVE SMOOTH",
"173 325 OFFCURVE",
"133 523 OFFCURVE",
"133 766 CURVE SMOOTH",
"133 997 OFFCURVE",
"168 1175 OFFCURVE",
"238 1302 CURVE SMOOTH",
"309 1429 OFFCURVE",
"407 1493 OFFCURVE",
"532 1493 CURVE SMOOTH",
"605 1493 OFFCURVE",
"667 1457 OFFCURVE",
"720 1384 CURVE SMOOTH",
"731 1368 OFFCURVE",
"742 1360 OFFCURVE",
"751 1360 CURVE SMOOTH",
"762 1360 OFFCURVE",
"771 1391 OFFCURVE",
"776 1454 CURVE",
"842 1454 LINE"
);
},
{
closed = 1;
nodes = (
"551 1801 OFFCURVE",
"568 1797 OFFCURVE",
"584 1790 CURVE SMOOTH",
"629 1769 OFFCURVE",
"652 1733 OFFCURVE",
"652 1682 CURVE SMOOTH",
"652 1649 OFFCURVE",
"640 1621 OFFCURVE",
"617 1598 CURVE SMOOTH",
"594 1575 OFFCURVE",
"565 1563 OFFCURVE",
"532 1563 CURVE SMOOTH",
"512 1563 OFFCURVE",
"493 1568 OFFCURVE",
"476 1578 CURVE SMOOTH",
"435 1601 OFFCURVE",
"414 1636 OFFCURVE",
"414 1683 CURVE SMOOTH",
"414 1718 OFFCURVE",
"427 1747 OFFCURVE",
"453 1770 CURVE SMOOTH",
"475 1791 OFFCURVE",
"502 1801 OFFCURVE",
"534 1801 CURVE SMOOTH"
);
}
);
vertWidth = 2048;
width = 1024;
}
);
unicode = 010A;
},
{
color = 3;
glyphname = Dcroat;
lastChange = "2022-04-07 18:22:10 +0000";
layers = (
{
layerId = "4E782664-D0D5-4FED-AFC2-B9212141A2ED";
paths = (
{
closed = 1;
nodes = (
"71 1556 LINE",
"440 1556 LINE SMOOTH",
"593 1556 OFFCURVE",
"713 1481 OFFCURVE",
"802 1332 CURVE SMOOTH",
"880 1201 OFFCURVE",
"919 1017 OFFCURVE",
"919 781 CURVE SMOOTH",
"919 517 OFFCURVE",
"869 314 OFFCURVE",
"769 171 CURVE SMOOTH",
"688 57 OFFCURVE",
"579 0 OFFCURVE",
"440 0 CURVE SMOOTH",
"71 0 LINE",
"71 74 LINE",
"107 79 OFFCURVE",
"132 89 OFFCURVE",
"147 104 CURVE SMOOTH",
"161 118 OFFCURVE",
"168 142 OFFCURVE",
"168 176 CURVE SMOOTH",
"168 803 LINE",
"53 803 LINE",
"53 895 LINE",
"168 895 LINE",
"168 1384 LINE SMOOTH",
"168 1419 OFFCURVE",
"160 1444 OFFCURVE",
"145 1458 CURVE SMOOTH",
"132 1470 OFFCURVE",
"107 1478 OFFCURVE",
"71 1482 CURVE"
);
},
{
closed = 1;
nodes = (
"301 803 LINE",
"301 195 LINE SMOOTH",
"301 159 OFFCURVE",
"307 134 OFFCURVE",
"319 121 CURVE SMOOTH",
"330 108 OFFCURVE",
"354 102 OFFCURVE",
"391 102 CURVE SMOOTH",
"446 102 LINE SMOOTH",
"549 102 OFFCURVE",
"629 161 OFFCURVE",
"686 278 CURVE SMOOTH",
"743 397 OFFCURVE",
"772 570 OFFCURVE",
"772 797 CURVE SMOOTH",
"772 988 OFFCURVE",
"757 1129 OFFCURVE",
"726 1219 CURVE SMOOTH",
"672 1376 OFFCURVE",
"577 1454 OFFCURVE",
"440 1454 CURVE SMOOTH",
"378 1454 LINE SMOOTH",
"348 1454 OFFCURVE",
"328 1448 OFFCURVE",
"317 1437 CURVE SMOOTH",
"306 1426 OFFCURVE",
"301 1405 OFFCURVE",
"301 1374 CURVE SMOOTH",
"301 895 LINE",
"467 895 LINE",
"467 803 LINE"
);
}
);
vertWidth = 2048;
width = 1024;
}
);
unicode = 0110;
},
{
color = 3;
glyphname = Ebreve;
lastChange = "2022-04-07 18:22:10 +0000";
layers = (
{
layerId = "4E782664-D0D5-4FED-AFC2-B9212141A2ED";
paths = (
{
closed = 1;
nodes = (
"102 1454 LINE",
"837 1454 LINE",
"851 1063 LINE",
"788 1063 LINE",
"775 1168 OFFCURVE",
"752 1244 OFFCURVE",
"719 1291 CURVE SMOOTH",
"690 1333 OFFCURVE",
"644 1354 OFFCURVE",
"581 1354 CURVE SMOOTH",
"427 1354 LINE SMOOTH",
"393 1354 OFFCURVE",
"370 1348 OFFCURVE",
"357 1335 CURVE SMOOTH",
"346 1324 OFFCURVE",
"341 1301 OFFCURVE",
"341 1268 CURVE SMOOTH",
"341 821 LINE",
"474 821 LINE SMOOTH",
"527 821 OFFCURVE",
"564 843 OFFCURVE",
"584 888 CURVE SMOOTH",
"599 921 OFFCURVE",
"607 965 OFFCURVE",
"609 1020 CURVE",
"675 1020 LINE",
"675 496 LINE",
"609 496 LINE",
"606 573 OFFCURVE",
"594 630 OFFCURVE",
"575 666 CURVE SMOOTH",
"554 703 OFFCURVE",
"521 721 OFFCURVE",
"474 721 CURVE SMOOTH",
"341 721 LINE",
"341 186 LINE SMOOTH",
"341 153 OFFCURVE",
"348 131 OFFCURVE",
"362 119 CURVE SMOOTH",
"376 106 OFFCURVE",
"402 100 OFFCURVE",
"441 100 CURVE SMOOTH",
"570 100 LINE SMOOTH",
"652 100 OFFCURVE",
"711 126 OFFCURVE",
"747 178 CURVE SMOOTH",
"776 221 OFFCURVE",
"799 301 OFFCURVE",
"814 418 CURVE",
"876 418 LINE",
"857 0 LINE",
"102 0 LINE",
"102 72 LINE",
"143 81 OFFCURVE",
"171 91 OFFCURVE",
"185 104 CURVE SMOOTH",
"200 118 OFFCURVE",
"208 141 OFFCURVE",
"208 172 CURVE SMOOTH",
"208 1282 LINE SMOOTH",
"208 1317 OFFCURVE",
"200 1341 OFFCURVE",
"185 1354 CURVE SMOOTH",
"172 1365 OFFCURVE",
"144 1375 OFFCURVE",
"102 1382 CURVE"
);
},
{
closed = 1;
nodes = (
"813 1800 LINE",
"767 1642 OFFCURVE",
"663 1563 OFFCURVE",
"501 1563 CURVE SMOOTH",
"339 1563 OFFCURVE",
"236 1642 OFFCURVE",
"191 1800 CURVE",
"275 1800 LINE",
"310 1719 OFFCURVE",
"386 1678 OFFCURVE",
"502 1678 CURVE SMOOTH",
"617 1678 OFFCURVE",
"692 1719 OFFCURVE",
"729 1800 CURVE"
);
}
);
vertWidth = 2048;
width = 1024;
}
);
unicode = 0114;
},
{
color = 3;
glyphname = Edotaccent;
lastChange = "2022-04-07 18:22:10 +0000";
layers = (
{
layerId = "4E782664-D0D5-4FED-AFC2-B9212141A2ED";
paths = (
{
closed = 1;
nodes = (
"102 1454 LINE",
"837 1454 LINE",
"851 1063 LINE",
"788 1063 LINE",
"775 1168 OFFCURVE",
"752 1244 OFFCURVE",
"719 1291 CURVE SMOOTH",
"690 1333 OFFCURVE",
"644 1354 OFFCURVE",
"581 1354 CURVE SMOOTH",
"427 1354 LINE SMOOTH",
"393 1354 OFFCURVE",
"370 1348 OFFCURVE",
"357 1335 CURVE SMOOTH",
"346 1324 OFFCURVE",
"341 1301 OFFCURVE",
"341 1268 CURVE SMOOTH",
"341 821 LINE",
"474 821 LINE SMOOTH",
"527 821 OFFCURVE",
"564 843 OFFCURVE",
"584 888 CURVE SMOOTH",
"599 921 OFFCURVE",
"607 965 OFFCURVE",
"609 1020 CURVE",
"675 1020 LINE",
"675 496 LINE",
"609 496 LINE",
"606 573 OFFCURVE",
"594 630 OFFCURVE",
"575 666 CURVE SMOOTH",
"554 703 OFFCURVE",
"521 721 OFFCURVE",
"474 721 CURVE SMOOTH",
"341 721 LINE",
"341 186 LINE SMOOTH",
"341 153 OFFCURVE",
"348 131 OFFCURVE",
"362 119 CURVE SMOOTH",
"376 106 OFFCURVE",
"402 100 OFFCURVE",
"441 100 CURVE SMOOTH",
"570 100 LINE SMOOTH",
"652 100 OFFCURVE",
"711 126 OFFCURVE",
"747 178 CURVE SMOOTH",
"776 221 OFFCURVE",
"799 301 OFFCURVE",
"814 418 CURVE",
"876 418 LINE",
"857 0 LINE",
"102 0 LINE",
"102 72 LINE",
"143 81 OFFCURVE",
"171 91 OFFCURVE",
"185 104 CURVE SMOOTH",
"200 118 OFFCURVE",
"208 141 OFFCURVE",
"208 172 CURVE SMOOTH",
"208 1282 LINE SMOOTH",
"208 1317 OFFCURVE",
"200 1341 OFFCURVE",
"185 1354 CURVE SMOOTH",
"172 1365 OFFCURVE",
"144 1375 OFFCURVE",
"102 1382 CURVE"
);
},
{
closed = 1;
nodes = (
"531 1801 OFFCURVE",
"548 1797 OFFCURVE",
"564 1790 CURVE SMOOTH",
"609 1769 OFFCURVE",
"632 1733 OFFCURVE",
"632 1682 CURVE SMOOTH",
"632 1649 OFFCURVE",
"620 1621 OFFCURVE",
"597 1598 CURVE SMOOTH",
"574 1575 OFFCURVE",
"545 1563 OFFCURVE",
"512 1563 CURVE SMOOTH",
"492 1563 OFFCURVE",
"473 1568 OFFCURVE",
"456 1578 CURVE SMOOTH",
"415 1601 OFFCURVE",
"394 1636 OFFCURVE",
"394 1683 CURVE SMOOTH",
"394 1718 OFFCURVE",
"407 1747 OFFCURVE",
"433 1770 CURVE SMOOTH",
"455 1791 OFFCURVE",
"482 1801 OFFCURVE",
"514 1801 CURVE SMOOTH"
);
}
);
vertWidth = 2048;
width = 1024;
}
);
unicode = 0116;
},
{
color = 3;
glyphname = Gbreve;
lastChange = "2022-11-08 18:44:24 +0000";
layers = (
{
layerId = "4E782664-D0D5-4FED-AFC2-B9212141A2ED";
paths = (
{
closed = 1;
nodes = (
"786 -39 LINE",
"741 154 LINE",
"688 25 OFFCURVE",
"608 -39 OFFCURVE",
"500 -39 CURVE SMOOTH",
"391 -39 OFFCURVE",
"302 27 OFFCURVE",
"231 160 CURVE SMOOTH",
"155 302 OFFCURVE",
"117 491 OFFCURVE",
"117 728 CURVE SMOOTH",
"117 950 OFFCURVE",
"153 1131 OFFCURVE",
"224 1271 CURVE SMOOTH",
"299 1419 OFFCURVE",
"400 1493 OFFCURVE",
"527 1493 CURVE SMOOTH",
"613 1493 OFFCURVE",
"678 1461 OFFCURVE",
"723 1397 CURVE SMOOTH",
"738 1375 OFFCURVE",
"750 1364 OFFCURVE",
"759 1364 CURVE SMOOTH",
"776 1364 OFFCURVE",
"786 1394 OFFCURVE",
"791 1454 CURVE",
"852 1454 LINE",
"852 1049 LINE",
"782 1049 LINE",
"759 1158 OFFCURVE",
"732 1237 OFFCURVE",
"702 1286 CURVE SMOOTH",
"661 1351 OFFCURVE",
"606 1384 OFFCURVE",
"536 1384 CURVE SMOOTH",
"457 1384 OFFCURVE",
"394 1330 OFFCURVE",
"347 1223 CURVE SMOOTH",
"295 1105 OFFCURVE",
"269 939 OFFCURVE",
"269 725 CURVE SMOOTH",
"269 506 OFFCURVE",
"298 336 OFFCURVE",
"355 213 CURVE SMOOTH",
"399 118 OFFCURVE",
"451 70 OFFCURVE",
"512 70 CURVE SMOOTH",
"573 70 OFFCURVE",
"624 105 OFFCURVE",
"666 174 CURVE SMOOTH",
"704 238 OFFCURVE",
"723 312 OFFCURVE",
"723 397 CURVE SMOOTH",
"723 525 LINE SMOOTH",
"723 567 OFFCURVE",
"715 597 OFFCURVE",
"699 615 CURVE SMOOTH",
"689 626 OFFCURVE",
"659 634 OFFCURVE",
"610 641 CURVE",
"610 713 LINE",
"954 713 LINE",
"954 641 LINE",
"917 634 OFFCURVE",
"893 624 OFFCURVE",
"881 611 CURVE SMOOTH",
"867 596 OFFCURVE",
"860 563 OFFCURVE",
"860 510 CURVE SMOOTH",
"860 -39 LINE"
);
},
{
closed = 1;
nodes = (
"839 1800 LINE",
"793 1642 OFFCURVE",
"689 1563 OFFCURVE",
"527 1563 CURVE SMOOTH",
"365 1563 OFFCURVE",
"262 1642 OFFCURVE",
"217 1800 CURVE",
"301 1800 LINE",
"336 1719 OFFCURVE",
"412 1678 OFFCURVE",
"528 1678 CURVE SMOOTH",
"643 1678 OFFCURVE",
"718 1719 OFFCURVE",
"755 1800 CURVE"
);
}
);
vertWidth = 2048;
width = 1024;
}
);
unicode = 011E;
},
{
color = 3;
glyphname = Gcommaaccent;
lastChange = "2022-04-07 18:22:10 +0000";
layers = (
{
background = {
paths = (
{
closed = 1;
nodes = (
"377 -39 LINE",
"437 82 LINE",
"346 123 OFFCURVE",
"276 196 OFFCURVE",
"227 301 CURVE SMOOTH",
"164 435 OFFCURVE",
"133 609 OFFCURVE",
"133 823 CURVE SMOOTH",
"133 1052 OFFCURVE",
"166 1235 OFFCURVE",
"232 1372 CURVE SMOOTH",
"304 1521 OFFCURVE",
"404 1596 OFFCURVE",
"532 1596 CURVE SMOOTH",
"605 1596 OFFCURVE",
"667 1559 OFFCURVE",
"720 1485 CURVE SMOOTH",
"731 1468 OFFCURVE",
"742 1460 OFFCURVE",
"751 1460 CURVE SMOOTH",
"763 1460 OFFCURVE",
"771 1492 OFFCURVE",
"776 1557 CURVE",
"842 1557 LINE",
"842 1121 LINE",
"770 1121 LINE",
"751 1234 OFFCURVE",
"724 1320 OFFCURVE",
"689 1378 CURVE SMOOTH",
"646 1449 OFFCURVE",
"597 1485 OFFCURVE",
"542 1485 CURVE SMOOTH",
"463 1485 OFFCURVE",
"400 1430 OFFCURVE",
"353 1321 CURVE SMOOTH",
"303 1203 OFFCURVE",
"278 1037 OFFCURVE",
"278 822 CURVE SMOOTH",
"278 625 OFFCURVE",
"304 470 OFFCURVE",
"355 359 CURVE SMOOTH",
"404 251 OFFCURVE",
"472 197 OFFCURVE",
"557 197 CURVE SMOOTH",
"630 197 OFFCURVE",
"688 242 OFFCURVE",
"733 333 CURVE SMOOTH",
"764 395 OFFCURVE",
"791 487 OFFCURVE",
"815 609 CURVE",
"887 574 LINE",
"861 392 OFFCURVE",
"821 262 OFFCURVE",
"766 184 CURVE SMOOTH",
"713 109 OFFCURVE",
"638 69 OFFCURVE",
"541 64 CURVE",
"508 -4 LINE",
"683 -6 OFFCURVE",
"770 -39 OFFCURVE",
"770 -104 CURVE SMOOTH",
"770 -152 OFFCURVE",
"737 -187 OFFCURVE",
"671 -208 CURVE SMOOTH",
"605 -229 OFFCURVE",
"489 -241 OFFCURVE",
"324 -243 CURVE",
"303 -180 LINE",
"490 -180 OFFCURVE",
"584 -162 OFFCURVE",
"584 -125 CURVE SMOOTH",
"584 -98 OFFCURVE",
"515 -85 OFFCURVE",
"377 -84 CURVE"
);
}
);
};
layerId = "4E782664-D0D5-4FED-AFC2-B9212141A2ED";
paths = (
{
closed = 1;
nodes = (
"786 61 LINE",
"741 258 LINE",
"690 127 OFFCURVE",
"610 61 OFFCURVE",
"501 61 CURVE SMOOTH",
"233 61 OFFCURVE",
"117 497 OFFCURVE",
"117 850 CURVE SMOOTH",
"117 1192 OFFCURVE",
"239 1596 OFFCURVE",
"528 1596 CURVE SMOOTH",
"612 1596 OFFCURVE",
"677 1563 OFFCURVE",
"723 1497 CURVE SMOOTH",
"738 1475 OFFCURVE",
"749 1464 OFFCURVE",
"758 1464 CURVE SMOOTH",
"775 1464 OFFCURVE",
"786 1495 OFFCURVE",
"791 1557 CURVE",
"852 1557 LINE",
"852 1145 LINE",
"782 1145 LINE",
"760 1250 OFFCURVE",
"736 1326 OFFCURVE",
"710 1372 CURVE SMOOTH",
"667 1447 OFFCURVE",
"609 1485 OFFCURVE",
"537 1485 CURVE SMOOTH",
"336 1485 OFFCURVE",
"269 1124 OFFCURVE",
"269 846 CURVE SMOOTH",
"269 582 OFFCURVE",
"340 172 OFFCURVE",
"512 172 CURVE SMOOTH",
"647 172 OFFCURVE",
"723 351 OFFCURVE",
"723 503 CURVE SMOOTH",
"723 642 LINE SMOOTH",
"723 685 OFFCURVE",
"715 716 OFFCURVE",
"699 734 CURVE SMOOTH",
"689 745 OFFCURVE",
"659 753 OFFCURVE",
"610 760 CURVE",
"610 834 LINE",
"954 834 LINE",
"954 760 LINE",
"915 753 OFFCURVE",
"890 742 OFFCURVE",
"878 728 CURVE SMOOTH",
"866 712 OFFCURVE",
"860 678 OFFCURVE",
"860 627 CURVE SMOOTH",
"860 61 LINE"
);
},
{
closed = 1;
nodes = (
"456 -191 LINE",
"490 -171 OFFCURVE",
"508 -151 OFFCURVE",
"510 -130 CURVE",
"439 -130 OFFCURVE",
"390 -109 OFFCURVE",
"390 -56 CURVE SMOOTH",
"390 -6 OFFCURVE",
"435 21 OFFCURVE",
"499 21 CURVE SMOOTH",
"568 21 OFFCURVE",
"619 -10 OFFCURVE",
"619 -77 CURVE SMOOTH",
"619 -153 OFFCURVE",
"570 -199 OFFCURVE",
"497 -246 CURVE"
);
}
);
vertWidth = 2048;
width = 1024;
}
);
unicode = 0122;
},
{
color = 3;
glyphname = Gdotaccent;
lastChange = "2022-11-08 18:44:30 +0000";
layers = (
{
layerId = "4E782664-D0D5-4FED-AFC2-B9212141A2ED";
paths = (
{
closed = 1;
nodes = (
"786 -39 LINE",
"741 154 LINE",
"688 25 OFFCURVE",
"608 -39 OFFCURVE",
"500 -39 CURVE SMOOTH",
"391 -39 OFFCURVE",
"302 27 OFFCURVE",
"231 160 CURVE SMOOTH",
"155 302 OFFCURVE",
"117 491 OFFCURVE",
"117 728 CURVE SMOOTH",
"117 950 OFFCURVE",
"153 1131 OFFCURVE",
"224 1271 CURVE SMOOTH",
"299 1419 OFFCURVE",
"400 1493 OFFCURVE",
"527 1493 CURVE SMOOTH",
"613 1493 OFFCURVE",
"678 1461 OFFCURVE",
"723 1397 CURVE SMOOTH",
"738 1375 OFFCURVE",
"750 1364 OFFCURVE",
"759 1364 CURVE SMOOTH",
"776 1364 OFFCURVE",
"786 1394 OFFCURVE",
"791 1454 CURVE",
"852 1454 LINE",
"852 1049 LINE",
"782 1049 LINE",
"759 1158 OFFCURVE",
"732 1237 OFFCURVE",
"702 1286 CURVE SMOOTH",
"661 1351 OFFCURVE",
"606 1384 OFFCURVE",
"536 1384 CURVE SMOOTH",
"457 1384 OFFCURVE",
"394 1330 OFFCURVE",
"347 1223 CURVE SMOOTH",
"295 1105 OFFCURVE",
"269 939 OFFCURVE",
"269 725 CURVE SMOOTH",
"269 506 OFFCURVE",
"298 336 OFFCURVE",
"355 213 CURVE SMOOTH",
"399 118 OFFCURVE",
"451 70 OFFCURVE",
"512 70 CURVE SMOOTH",
"573 70 OFFCURVE",
"624 105 OFFCURVE",
"666 174 CURVE SMOOTH",
"704 238 OFFCURVE",
"723 312 OFFCURVE",
"723 397 CURVE SMOOTH",
"723 525 LINE SMOOTH",
"723 567 OFFCURVE",
"715 597 OFFCURVE",
"699 615 CURVE SMOOTH",
"689 626 OFFCURVE",
"659 634 OFFCURVE",
"610 641 CURVE",
"610 713 LINE",
"954 713 LINE",
"954 641 LINE",
"917 634 OFFCURVE",
"893 624 OFFCURVE",
"881 611 CURVE SMOOTH",
"867 596 OFFCURVE",
"860 563 OFFCURVE",
"860 510 CURVE SMOOTH",
"860 -39 LINE"
);
},
{
closed = 1;
nodes = (
"546 1801 OFFCURVE",
"563 1797 OFFCURVE",
"579 1790 CURVE SMOOTH",
"624 1769 OFFCURVE",
"647 1733 OFFCURVE",
"647 1682 CURVE SMOOTH",
"647 1649 OFFCURVE",
"635 1621 OFFCURVE",
"612 1598 CURVE SMOOTH",
"589 1575 OFFCURVE",
"560 1563 OFFCURVE",
"527 1563 CURVE SMOOTH",
"507 1563 OFFCURVE",
"488 1568 OFFCURVE",
"471 1578 CURVE SMOOTH",
"430 1601 OFFCURVE",
"409 1636 OFFCURVE",
"409 1683 CURVE SMOOTH",
"409 1718 OFFCURVE",
"422 1747 OFFCURVE",
"448 1770 CURVE SMOOTH",
"470 1791 OFFCURVE",
"497 1801 OFFCURVE",
"529 1801 CURVE SMOOTH"
);
}
);
vertWidth = 2048;
width = 1024;
}
);
unicode = 0120;
},
{
color = 3;
glyphname = Hbar;
lastChange = "2022-04-07 18:22:10 +0000";
layers = (
{
background = {
paths = (
{
closed = 1;
nodes = (
"90 1556 LINE",
"413 1556 LINE",
"413 1482 LINE",
"376 1477 OFFCURVE",
"351 1469 OFFCURVE",
"338 1456 CURVE SMOOTH",
"325 1443 OFFCURVE",
"319 1419 OFFCURVE",
"319 1382 CURVE SMOOTH",
"319 877 LINE",
"705 877 LINE",
"705 1382 LINE SMOOTH",
"705 1419 OFFCURVE",
"699 1443 OFFCURVE",
"687 1456 CURVE SMOOTH",
"674 1469 OFFCURVE",
"648 1477 OFFCURVE",
"611 1482 CURVE",
"611 1556 LINE",
"934 1556 LINE",
"934 1482 LINE",
"896 1478 OFFCURVE",
"870 1469 OFFCURVE",
"856 1456 CURVE SMOOTH",
"844 1444 OFFCURVE",
"838 1419 OFFCURVE",
"838 1382 CURVE SMOOTH",
"838 174 LINE SMOOTH",
"838 139 OFFCURVE",
"844 115 OFFCURVE",
"856 103 CURVE SMOOTH",
"869 90 OFFCURVE",
"895 80 OFFCURVE",
"934 74 CURVE",
"934 0 LINE",
"609 0 LINE",
"609 74 LINE",
"649 80 OFFCURVE",
"675 90 OFFCURVE",
"688 105 CURVE SMOOTH",
"699 117 OFFCURVE",
"705 140 OFFCURVE",
"705 174 CURVE SMOOTH",
"705 775 LINE",
"319 775 LINE",
"319 174 LINE SMOOTH",
"319 139 OFFCURVE",
"325 115 OFFCURVE",
"338 103 CURVE SMOOTH",
"351 90 OFFCURVE",
"376 80 OFFCURVE",
"415 74 CURVE",
"415 0 LINE",
"90 0 LINE",
"90 74 LINE",
"130 80 OFFCURVE",
"156 90 OFFCURVE",
"169 105 CURVE SMOOTH",
"180 117 OFFCURVE",
"186 140 OFFCURVE",
"186 174 CURVE SMOOTH",
"186 1382 LINE SMOOTH",
"186 1419 OFFCURVE",
"180 1443 OFFCURVE",
"168 1456 CURVE SMOOTH",
"155 1469 OFFCURVE",
"129 1478 OFFCURVE",
"90 1482 CURVE"
);
},
{
closed = 1;
nodes = (
"745 1207 LINE",
"745 1105 LINE",
"279 1105 LINE",
"279 1207 LINE"
);
}
);
};
layerId = "4E782664-D0D5-4FED-AFC2-B9212141A2ED";
paths = (
{
closed = 1;
nodes = (
"90 74 LINE",
"130 80 OFFCURVE",
"156 90 OFFCURVE",
"169 105 CURVE SMOOTH",
"180 117 OFFCURVE",
"186 140 OFFCURVE",
"186 174 CURVE SMOOTH",
"186 1382 LINE SMOOTH",
"186 1419 OFFCURVE",
"180 1443 OFFCURVE",
"168 1456 CURVE SMOOTH",
"155 1469 OFFCURVE",
"129 1478 OFFCURVE",
"90 1482 CURVE",
"90 1556 LINE",
"413 1556 LINE",
"413 1482 LINE",
"376 1477 OFFCURVE",
"351 1469 OFFCURVE",
"338 1456 CURVE SMOOTH",
"325 1443 OFFCURVE",
"319 1419 OFFCURVE",
"319 1382 CURVE SMOOTH",
"319 1207 LINE",
"705 1207 LINE",
"705 1382 LINE SMOOTH",
"705 1419 OFFCURVE",
"699 1443 OFFCURVE",
"687 1456 CURVE SMOOTH",
"674 1469 OFFCURVE",
"648 1477 OFFCURVE",
"611 1482 CURVE",
"611 1556 LINE",
"934 1556 LINE",
"934 1482 LINE",
"896 1478 OFFCURVE",
"870 1469 OFFCURVE",
"856 1456 CURVE SMOOTH",
"844 1444 OFFCURVE",
"838 1419 OFFCURVE",
"838 1382 CURVE SMOOTH",
"838 174 LINE SMOOTH",
"838 139 OFFCURVE",
"844 115 OFFCURVE",
"856 103 CURVE SMOOTH",
"869 90 OFFCURVE",
"895 80 OFFCURVE",
"934 74 CURVE",
"934 0 LINE",
"609 0 LINE",
"609 74 LINE",
"649 80 OFFCURVE",
"675 90 OFFCURVE",
"688 105 CURVE SMOOTH",
"699 117 OFFCURVE",
"705 140 OFFCURVE",
"705 174 CURVE SMOOTH",
"705 775 LINE",
"319 775 LINE",
"319 174 LINE SMOOTH",
"319 139 OFFCURVE",
"325 115 OFFCURVE",
"338 103 CURVE SMOOTH",
"351 90 OFFCURVE",
"376 80 OFFCURVE",
"415 74 CURVE",
"415 0 LINE",
"90 0 LINE"
);
},
{
closed = 1;
nodes = (
"705 877 LINE",
"705 1105 LINE",
"319 1105 LINE",
"319 877 LINE"
);
}
);
vertWidth = 2048;
width = 1024;
}
);
unicode = 0126;
},
{
color = 3;
glyphname = IJ;
lastChange = "2022-04-07 18:22:10 +0000";
layers = (
{
background = {
paths = (
{
closed = 1;
nodes = (
"90 1556 LINE",
"413 1556 LINE",
"413 1482 LINE",
"376 1477 OFFCURVE",
"351 1469 OFFCURVE",
"338 1456 CURVE SMOOTH",
"325 1443 OFFCURVE",
"319 1419 OFFCURVE",
"319 1382 CURVE SMOOTH",
"319 877 LINE",
"705 877 LINE",
"705 1382 LINE SMOOTH",
"705 1419 OFFCURVE",
"699 1443 OFFCURVE",
"687 1456 CURVE SMOOTH",
"674 1469 OFFCURVE",
"648 1477 OFFCURVE",
"611 1482 CURVE",
"611 1556 LINE",
"934 1556 LINE",
"934 1482 LINE",
"896 1478 OFFCURVE",
"870 1469 OFFCURVE",
"856 1456 CURVE SMOOTH",
"844 1444 OFFCURVE",
"838 1419 OFFCURVE",
"838 1382 CURVE SMOOTH",
"838 174 LINE SMOOTH",
"838 139 OFFCURVE",
"844 115 OFFCURVE",
"856 103 CURVE SMOOTH",
"869 90 OFFCURVE",
"895 80 OFFCURVE",
"934 74 CURVE",
"934 0 LINE",
"609 0 LINE",
"609 74 LINE",
"649 80 OFFCURVE",
"675 90 OFFCURVE",
"688 105 CURVE SMOOTH",
"699 117 OFFCURVE",
"705 140 OFFCURVE",
"705 174 CURVE SMOOTH",
"705 775 LINE",
"319 775 LINE",
"319 174 LINE SMOOTH",
"319 139 OFFCURVE",
"325 115 OFFCURVE",
"338 103 CURVE SMOOTH",
"351 90 OFFCURVE",
"376 80 OFFCURVE",
"415 74 CURVE",
"415 0 LINE",
"90 0 LINE",
"90 74 LINE",
"130 80 OFFCURVE",
"156 90 OFFCURVE",
"169 105 CURVE SMOOTH",
"180 117 OFFCURVE",
"186 140 OFFCURVE",
"186 174 CURVE SMOOTH",
"186 1382 LINE SMOOTH",
"186 1419 OFFCURVE",
"180 1443 OFFCURVE",
"168 1456 CURVE SMOOTH",
"155 1469 OFFCURVE",
"129 1478 OFFCURVE",
"90 1482 CURVE"
);
},
{
closed = 1;
nodes = (
"745 1207 LINE",
"745 1105 LINE",
"279 1105 LINE",
"279 1207 LINE"
);
}
);
};
layerId = "4E782664-D0D5-4FED-AFC2-B9212141A2ED";
paths = (
{
closed = 1;
nodes = (
"574 1556 LINE",
"961 1556 LINE",
"961 1482 LINE",
"911 1479 OFFCURVE",
"877 1468 OFFCURVE",
"860 1449 CURVE SMOOTH",
"845 1433 OFFCURVE",
"838 1407 OFFCURVE",
"838 1370 CURVE SMOOTH",
"838 366 LINE SMOOTH",
"838 250 OFFCURVE",
"818 160 OFFCURVE",
"779 96 CURVE SMOOTH",
"719 -1 OFFCURVE",
"604 -39 OFFCURVE",
"472 -39 CURVE SMOOTH",
"300 -39 OFFCURVE",
"151 64 OFFCURVE",
"151 200 CURVE SMOOTH",
"151 223 OFFCURVE",
"155 243 OFFCURVE",
"164 260 CURVE SMOOTH",
"183 297 OFFCURVE",
"214 315 OFFCURVE",
"257 315 CURVE SMOOTH",
"294 315 OFFCURVE",
"324 301 OFFCURVE",
"346 274 CURVE SMOOTH",
"361 255 OFFCURVE",
"368 233 OFFCURVE",
"368 208 CURVE SMOOTH",
"368 166 OFFCURVE",
"348 133 OFFCURVE",
"307 109 CURVE",
"338 76 OFFCURVE",
"393 59 OFFCURVE",
"472 59 CURVE SMOOTH",
"627 59 OFFCURVE",
"705 163 OFFCURVE",
"705 371 CURVE SMOOTH",
"705 1370 LINE SMOOTH",
"705 1412 OFFCURVE",
"695 1441 OFFCURVE",
"674 1458 CURVE SMOOTH",
"657 1471 OFFCURVE",
"623 1479 OFFCURVE",
"574 1482 CURVE"
);
},
{
closed = 1;
nodes = (
"55 1556 LINE",
"452 1556 LINE",
"452 1482 LINE",
"401 1478 OFFCURVE",
"367 1469 OFFCURVE",
"348 1456 CURVE SMOOTH",
"330 1443 OFFCURVE",
"321 1417 OFFCURVE",
"321 1378 CURVE SMOOTH",
"321 578 LINE SMOOTH",
"321 543 OFFCURVE",
"331 517 OFFCURVE",
"352 500 CURVE SMOOTH",
"366 489 OFFCURVE",
"399 481 OFFCURVE",
"452 474 CURVE",
"452 400 LINE",
"55 400 LINE",
"55 474 LINE",
"108 481 OFFCURVE",
"143 491 OFFCURVE",
"160 504 CURVE SMOOTH",
"177 519 OFFCURVE",
"186 544 OFFCURVE",
"186 578 CURVE SMOOTH",
"186 1378 LINE SMOOTH",
"186 1417 OFFCURVE",
"177 1443 OFFCURVE",
"159 1456 CURVE SMOOTH",
"140 1469 OFFCURVE",
"106 1478 OFFCURVE",
"55 1482 CURVE"
);
}
);
vertWidth = 2048;
width = 1024;
}
);
unicode = 0132;
},
{
color = 3;
glyphname = Ibreve;
lastChange = "2022-04-07 18:22:10 +0000";
layers = (
{
layerId = "4E782664-D0D5-4FED-AFC2-B9212141A2ED";
paths = (
{
closed = 1;
nodes = (
"314 1454 LINE",
"711 1454 LINE",
"711 1382 LINE",
"660 1378 OFFCURVE",
"626 1369 OFFCURVE",
"607 1356 CURVE SMOOTH",
"589 1343 OFFCURVE",
"580 1317 OFFCURVE",
"580 1278 CURVE SMOOTH",
"580 176 LINE SMOOTH",
"580 141 OFFCURVE",
"590 115 OFFCURVE",
"611 98 CURVE SMOOTH",
"625 87 OFFCURVE",
"658 79 OFFCURVE",
"711 72 CURVE",
"711 0 LINE",
"314 0 LINE",
"314 72 LINE",
"367 78 OFFCURVE",
"402 88 OFFCURVE",
"419 102 CURVE SMOOTH",
"436 117 OFFCURVE",
"445 141 OFFCURVE",
"445 176 CURVE SMOOTH",
"445 1278 LINE SMOOTH",
"445 1317 OFFCURVE",
"436 1343 OFFCURVE",
"418 1356 CURVE SMOOTH",
"399 1369 OFFCURVE",
"365 1378 OFFCURVE",
"314 1382 CURVE"
);
},
{
closed = 1;
nodes = (
"823 1800 LINE",
"777 1642 OFFCURVE",
"673 1563 OFFCURVE",
"511 1563 CURVE SMOOTH",
"349 1563 OFFCURVE",
"246 1642 OFFCURVE",
"201 1800 CURVE",
"285 1800 LINE",
"320 1719 OFFCURVE",
"396 1678 OFFCURVE",
"512 1678 CURVE SMOOTH",
"627 1678 OFFCURVE",
"702 1719 OFFCURVE",
"739 1800 CURVE"
);
}
);
vertWidth = 2048;
width = 1024;
}
);
unicode = 012C;
},
{
color = 3;
glyphname = Idotaccent;
lastChange = "2022-04-07 18:22:10 +0000";
layers = (
{
layerId = "4E782664-D0D5-4FED-AFC2-B9212141A2ED";
paths = (
{
closed = 1;
nodes = (
"314 1454 LINE",
"711 1454 LINE",
"711 1382 LINE",
"660 1378 OFFCURVE",
"626 1369 OFFCURVE",
"607 1356 CURVE SMOOTH",
"589 1343 OFFCURVE",
"580 1317 OFFCURVE",
"580 1278 CURVE SMOOTH",
"580 176 LINE SMOOTH",
"580 141 OFFCURVE",
"590 115 OFFCURVE",
"611 98 CURVE SMOOTH",
"625 87 OFFCURVE",
"658 79 OFFCURVE",
"711 72 CURVE",
"711 0 LINE",
"314 0 LINE",
"314 72 LINE",
"367 78 OFFCURVE",
"402 88 OFFCURVE",
"419 102 CURVE SMOOTH",
"436 117 OFFCURVE",
"445 141 OFFCURVE",
"445 176 CURVE SMOOTH",
"445 1278 LINE SMOOTH",
"445 1317 OFFCURVE",
"436 1343 OFFCURVE",
"418 1356 CURVE SMOOTH",
"399 1369 OFFCURVE",
"365 1378 OFFCURVE",
"314 1382 CURVE"
);
},
{
closed = 1;
nodes = (
"532 1801 OFFCURVE",
"549 1797 OFFCURVE",
"565 1790 CURVE SMOOTH",
"610 1769 OFFCURVE",
"633 1733 OFFCURVE",
"633 1682 CURVE SMOOTH",
"633 1649 OFFCURVE",
"621 1621 OFFCURVE",
"598 1598 CURVE SMOOTH",
"575 1575 OFFCURVE",
"546 1563 OFFCURVE",
"513 1563 CURVE SMOOTH",
"493 1563 OFFCURVE",
"474 1568 OFFCURVE",
"457 1578 CURVE SMOOTH",
"416 1601 OFFCURVE",
"395 1636 OFFCURVE",
"395 1683 CURVE SMOOTH",
"395 1718 OFFCURVE",
"408 1747 OFFCURVE",
"434 1770 CURVE SMOOTH",
"456 1791 OFFCURVE",
"483 1801 OFFCURVE",
"515 1801 CURVE SMOOTH"
);
}
);
vertWidth = 2048;
width = 1024;
}
);
unicode = 0130;
},
{
color = 3;
glyphname = Iogonek;
lastChange = "2022-04-07 18:22:10 +0000";
layers = (
{
background = {
paths = (
{
closed = 1;
nodes = (
"313 1556 LINE",
"710 1556 LINE",
"710 1482 LINE",
"659 1478 OFFCURVE",
"625 1469 OFFCURVE",
"606 1456 CURVE SMOOTH",
"588 1443 OFFCURVE",
"579 1417 OFFCURVE",
"579 1378 CURVE SMOOTH",
"579 258 LINE SMOOTH",
"579 223 OFFCURVE",
"589 197 OFFCURVE",
"610 180 CURVE SMOOTH",
"624 169 OFFCURVE",
"657 161 OFFCURVE",
"710 154 CURVE",
"710 80 LINE",
"313 80 LINE",
"313 154 LINE",
"366 161 OFFCURVE",
"401 171 OFFCURVE",
"418 184 CURVE SMOOTH",
"435 199 OFFCURVE",
"444 224 OFFCURVE",
"444 258 CURVE SMOOTH",
"444 1378 LINE SMOOTH",
"444 1417 OFFCURVE",
"435 1443 OFFCURVE",
"417 1456 CURVE SMOOTH",
"398 1469 OFFCURVE",
"364 1478 OFFCURVE",
"313 1482 CURVE"
);
},
{
closed = 1;
nodes = (
"497 34 OFFCURVE",
"464 -24 OFFCURVE",
"464 -76 CURVE SMOOTH",
"464 -127 OFFCURVE",
"492 -152 OFFCURVE",
"547 -152 CURVE SMOOTH",
"586 -152 OFFCURVE",
"632 -130 OFFCURVE",
"685 -86 CURVE",
"706 -149 LINE",
"637 -211 OFFCURVE",
"567 -242 OFFCURVE",
"497 -242 CURVE SMOOTH",
"389 -242 OFFCURVE",
"335 -198 OFFCURVE",
"335 -109 CURVE SMOOTH",
"335 -37 OFFCURVE",
"380 30 OFFCURVE",
"468 95 CURVE",
"563 97 LINE"
);
}
);
};
layerId = "4E782664-D0D5-4FED-AFC2-B9212141A2ED";
paths = (
{
closed = 1;
nodes = (
"389 -242 OFFCURVE",
"335 -198 OFFCURVE",
"335 -109 CURVE SMOOTH",
"335 -43 OFFCURVE",
"373 20 OFFCURVE",
"449 80 CURVE",
"313 80 LINE",
"313 154 LINE",
"366 161 OFFCURVE",
"401 171 OFFCURVE",
"418 184 CURVE SMOOTH",
"435 199 OFFCURVE",
"444 224 OFFCURVE",
"444 258 CURVE SMOOTH",
"444 1378 LINE SMOOTH",
"444 1417 OFFCURVE",
"435 1443 OFFCURVE",
"417 1456 CURVE SMOOTH",
"398 1469 OFFCURVE",
"364 1478 OFFCURVE",
"313 1482 CURVE",
"313 1556 LINE",
"710 1556 LINE",
"710 1482 LINE",
"659 1478 OFFCURVE",
"625 1469 OFFCURVE",
"606 1456 CURVE SMOOTH",
"588 1443 OFFCURVE",
"579 1417 OFFCURVE",
"579 1378 CURVE SMOOTH",
"579 258 LINE SMOOTH",
"579 223 OFFCURVE",
"589 197 OFFCURVE",
"610 180 CURVE SMOOTH",
"624 169 OFFCURVE",
"657 161 OFFCURVE",
"710 154 CURVE",
"710 80 LINE",
"546 80 LINE",
"491 24 OFFCURVE",
"464 -29 OFFCURVE",
"464 -76 CURVE SMOOTH",
"464 -127 OFFCURVE",
"492 -152 OFFCURVE",
"547 -152 CURVE SMOOTH",
"586 -152 OFFCURVE",
"632 -130 OFFCURVE",
"685 -86 CURVE",
"706 -149 LINE",
"637 -211 OFFCURVE",
"567 -242 OFFCURVE",
"497 -242 CURVE SMOOTH"
);
}
);
vertWidth = 2048;
width = 1024;
}
);
unicode = 012E;
},
{
color = 3;
glyphname = Itilde;
lastChange = "2022-04-07 18:22:10 +0000";
layers = (
{
layerId = "4E782664-D0D5-4FED-AFC2-B9212141A2ED";
paths = (
{
closed = 1;
nodes = (
"314 1454 LINE",
"711 1454 LINE",
"711 1382 LINE",
"660 1378 OFFCURVE",
"626 1369 OFFCURVE",
"607 1356 CURVE SMOOTH",
"589 1343 OFFCURVE",
"580 1317 OFFCURVE",
"580 1278 CURVE SMOOTH",
"580 176 LINE SMOOTH",
"580 141 OFFCURVE",
"590 115 OFFCURVE",
"611 98 CURVE SMOOTH",
"625 87 OFFCURVE",
"658 79 OFFCURVE",
"711 72 CURVE",
"711 0 LINE",
"314 0 LINE",
"314 72 LINE",
"367 78 OFFCURVE",
"402 88 OFFCURVE",
"419 102 CURVE SMOOTH",
"436 117 OFFCURVE",
"445 141 OFFCURVE",
"445 176 CURVE SMOOTH",
"445 1278 LINE SMOOTH",
"445 1317 OFFCURVE",
"436 1343 OFFCURVE",
"418 1356 CURVE SMOOTH",
"399 1369 OFFCURVE",
"365 1378 OFFCURVE",
"314 1382 CURVE"
);
},
{
closed = 1;
nodes = (
"170 1614 LINE",
"233 1722 OFFCURVE",
"306 1776 OFFCURVE",
"391 1776 CURVE SMOOTH",
"442 1776 OFFCURVE",
"492 1759 OFFCURVE",
"541 1726 CURVE SMOOTH",
"590 1693 OFFCURVE",
"634 1677 OFFCURVE",
"673 1677 CURVE SMOOTH",
"738 1677 OFFCURVE",
"789 1706 OFFCURVE",
"827 1764 CURVE",
"875 1704 LINE",
"811 1596 OFFCURVE",
"737 1542 OFFCURVE",
"654 1542 CURVE SMOOTH",
"603 1542 OFFCURVE",
"553 1558 OFFCURVE",
"504 1591 CURVE SMOOTH",
"455 1624 OFFCURVE",
"411 1641 OFFCURVE",
"371 1641 CURVE SMOOTH",
"307 1641 OFFCURVE",
"256 1612 OFFCURVE",
"217 1555 CURVE"
);
}
);
vertWidth = 2048;
width = 1024;
}
);
unicode = 0128;
},
{
color = 3;
glyphname = Kcommaaccent;
lastChange = "2022-04-07 18:22:10 +0000";
layers = (
{
background = {
paths = (
{
closed = 1;
nodes = (
"113 1608 LINE",
"281 1608 LINE",
"281 871 LINE",
"744 1608 LINE",
"930 1608 LINE",
"523 968 LINE",
"965 69 LINE",
"764 69 LINE",
"418 841 LINE",
"281 621 LINE",
"281 69 LINE",
"113 69 LINE"
);
},
{
closed = 1;
nodes = (
"364 0 LINE",
"640 0 LINE",
"640 -40 LINE SMOOTH",
"640 -124 OFFCURVE",
"619 -193 OFFCURVE",
"576 -246 CURVE",
"439 -246 LINE",
"465 -211 OFFCURVE",
"480 -172 OFFCURVE",
"485 -130 CURVE",
"364 -130 LINE"
);
}
);
};
layerId = "4E782664-D0D5-4FED-AFC2-B9212141A2ED";
paths = (
{
closed = 1;
nodes = (
"102 144 LINE",
"143 150 OFFCURVE",
"170 160 OFFCURVE",
"183 174 CURVE SMOOTH",
"196 188 OFFCURVE",
"202 211 OFFCURVE",
"202 244 CURVE SMOOTH",
"202 1382 LINE SMOOTH",
"202 1419 OFFCURVE",
"194 1444 OFFCURVE",
"179 1458 CURVE SMOOTH",
"166 1470 OFFCURVE",
"140 1478 OFFCURVE",
"102 1482 CURVE",
"102 1556 LINE",
"429 1556 LINE",
"429 1482 LINE",
"393 1478 OFFCURVE",
"368 1469 OFFCURVE",
"353 1454 CURVE SMOOTH",
"341 1441 OFFCURVE",
"335 1417 OFFCURVE",
"335 1382 CURVE SMOOTH",
"335 807 LINE",
"638 1382 LINE SMOOTH",
"648 1402 OFFCURVE",
"653 1417 OFFCURVE",
"653 1428 CURVE SMOOTH",
"653 1458 OFFCURVE",
"626 1476 OFFCURVE",
"573 1482 CURVE",
"573 1556 LINE",
"888 1556 LINE",
"888 1482 LINE",
"849 1475 OFFCURVE",
"820 1464 OFFCURVE",
"799 1449 CURVE SMOOTH",
"778 1434 OFFCURVE",
"757 1405 OFFCURVE",
"734 1362 CURVE SMOOTH",
"335 618 LINE",
"335 244 LINE SMOOTH",
"335 209 OFFCURVE",
"342 185 OFFCURVE",
"356 170 CURVE SMOOTH",
"369 156 OFFCURVE",
"394 147 OFFCURVE",
"429 144 CURVE",
"429 70 LINE",
"102 70 LINE"
);
},
{
closed = 1;
nodes = (
"456 -191 LINE",
"490 -171 OFFCURVE",
"508 -151 OFFCURVE",
"510 -130 CURVE",
"439 -130 OFFCURVE",
"390 -109 OFFCURVE",
"390 -56 CURVE SMOOTH",
"390 -6 OFFCURVE",
"435 21 OFFCURVE",
"499 21 CURVE SMOOTH",
"568 21 OFFCURVE",
"619 -10 OFFCURVE",
"619 -77 CURVE SMOOTH",
"619 -153 OFFCURVE",
"570 -199 OFFCURVE",
"497 -246 CURVE"
);
},
{
closed = 1;
nodes = (
"612 144 LINE",
"662 148 OFFCURVE",
"687 167 OFFCURVE",
"687 201 CURVE SMOOTH",
"687 216 OFFCURVE",
"684 232 OFFCURVE",
"677 250 CURVE SMOOTH",
"447 845 LINE",
"522 991 LINE",
"825 252 LINE SMOOTH",
"838 219 OFFCURVE",
"855 193 OFFCURVE",
"876 174 CURVE SMOOTH",
"890 163 OFFCURVE",
"914 153 OFFCURVE",
"949 144 CURVE",
"949 70 LINE",
"612 70 LINE"
);
}
);
vertWidth = 2048;
width = 1024;
}
);
unicode = 0136;
},
{
color = 3;
glyphname = Lcommaaccent;
lastChange = "2022-04-07 18:22:10 +0000";
layers = (
{
background = {
paths = (
{
closed = 1;
nodes = (
"335 618 LINE",
"335 244 LINE SMOOTH",
"335 209 OFFCURVE",
"342 185 OFFCURVE",
"356 170 CURVE SMOOTH",
"369 156 OFFCURVE",
"394 147 OFFCURVE",
"429 144 CURVE",
"429 70 LINE",
"102 70 LINE",
"102 144 LINE",
"143 150 OFFCURVE",
"170 160 OFFCURVE",
"183 174 CURVE SMOOTH",
"196 188 OFFCURVE",
"202 211 OFFCURVE",
"202 244 CURVE SMOOTH",
"202 1382 LINE SMOOTH",
"202 1419 OFFCURVE",
"194 1444 OFFCURVE",
"179 1458 CURVE SMOOTH",
"166 1470 OFFCURVE",
"140 1478 OFFCURVE",
"102 1482 CURVE",
"102 1556 LINE",
"429 1556 LINE",
"429 1482 LINE",
"393 1478 OFFCURVE",
"368 1469 OFFCURVE",
"353 1454 CURVE SMOOTH",
"341 1441 OFFCURVE",
"335 1417 OFFCURVE",
"335 1382 CURVE SMOOTH",
"335 807 LINE",
"638 1382 LINE SMOOTH",
"648 1402 OFFCURVE",
"653 1417 OFFCURVE",
"653 1428 CURVE SMOOTH",
"653 1458 OFFCURVE",
"626 1476 OFFCURVE",
"573 1482 CURVE",
"573 1556 LINE",
"888 1556 LINE",
"888 1482 LINE",
"849 1475 OFFCURVE",
"820 1464 OFFCURVE",
"799 1449 CURVE SMOOTH",
"778 1434 OFFCURVE",
"757 1405 OFFCURVE",
"734 1362 CURVE SMOOTH"
);
},
{
closed = 1;
nodes = (
"825 252 LINE SMOOTH",
"838 219 OFFCURVE",
"855 193 OFFCURVE",
"876 174 CURVE SMOOTH",
"890 163 OFFCURVE",
"914 153 OFFCURVE",
"949 144 CURVE",
"949 70 LINE",
"612 70 LINE",
"612 144 LINE",
"662 148 OFFCURVE",
"687 167 OFFCURVE",
"687 201 CURVE SMOOTH",
"687 216 OFFCURVE",
"684 232 OFFCURVE",
"677 250 CURVE SMOOTH",
"447 845 LINE",
"522 991 LINE"
);
},
{
closed = 1;
nodes = (
"456 -191 LINE",
"490 -171 OFFCURVE",
"508 -151 OFFCURVE",
"510 -130 CURVE",
"439 -130 OFFCURVE",
"390 -109 OFFCURVE",
"390 -56 CURVE SMOOTH",
"390 -6 OFFCURVE",
"435 21 OFFCURVE",
"499 21 CURVE SMOOTH",
"568 21 OFFCURVE",
"619 -10 OFFCURVE",
"619 -77 CURVE SMOOTH",
"619 -153 OFFCURVE",
"570 -199 OFFCURVE",
"497 -246 CURVE"
);
}
);
};
layerId = "4E782664-D0D5-4FED-AFC2-B9212141A2ED";
paths = (
{
closed = 1;
nodes = (
"154 1556 LINE",
"531 1556 LINE",
"531 1482 LINE",
"480 1477 OFFCURVE",
"445 1466 OFFCURVE",
"428 1447 CURVE SMOOTH",
"413 1431 OFFCURVE",
"406 1401 OFFCURVE",
"406 1357 CURVE SMOOTH",
"406 285 LINE SMOOTH",
"406 241 OFFCURVE",
"413 211 OFFCURVE",
"428 195 CURVE SMOOTH",
"442 180 OFFCURVE",
"468 172 OFFCURVE",
"506 172 CURVE SMOOTH",
"578 172 LINE SMOOTH",
"699 172 OFFCURVE",
"774 296 OFFCURVE",
"803 545 CURVE",
"871 545 LINE",
"848 70 LINE",
"154 70 LINE",
"154 144 LINE",
"199 149 OFFCURVE",
"231 161 OFFCURVE",
"248 179 CURVE SMOOTH",
"263 194 OFFCURVE",
"271 224 OFFCURVE",
"271 269 CURVE SMOOTH",
"271 1357 LINE SMOOTH",
"271 1406 OFFCURVE",
"263 1438 OFFCURVE",
"246 1454 CURVE SMOOTH",
"231 1469 OFFCURVE",
"200 1478 OFFCURVE",
"154 1482 CURVE"
);
},
{
closed = 1;
nodes = (
"456 -191 LINE",
"490 -171 OFFCURVE",
"508 -151 OFFCURVE",
"510 -130 CURVE",
"439 -130 OFFCURVE",
"390 -109 OFFCURVE",
"390 -56 CURVE SMOOTH",
"390 -6 OFFCURVE",
"435 21 OFFCURVE",
"499 21 CURVE SMOOTH",
"568 21 OFFCURVE",
"619 -10 OFFCURVE",
"619 -77 CURVE SMOOTH",
"619 -153 OFFCURVE",
"570 -199 OFFCURVE",
"497 -246 CURVE"
);
}
);
vertWidth = 2048;
width = 1024;
}
);
unicode = 013B;
},
{
color = 3;
glyphname = Ldot;
lastChange = "2022-04-07 18:22:10 +0000";
layers = (
{
layerId = "4E782664-D0D5-4FED-AFC2-B9212141A2ED";
paths = (
{
closed = 1;
nodes = (
"154 1556 LINE",
"531 1556 LINE",
"531 1482 LINE",
"480 1477 OFFCURVE",
"445 1466 OFFCURVE",
"428 1447 CURVE SMOOTH",
"413 1431 OFFCURVE",
"406 1401 OFFCURVE",
"406 1357 CURVE SMOOTH",
"406 215 LINE SMOOTH",
"406 171 OFFCURVE",
"413 141 OFFCURVE",
"428 125 CURVE SMOOTH",
"442 110 OFFCURVE",
"468 102 OFFCURVE",
"506 102 CURVE SMOOTH",
"578 102 LINE SMOOTH",
"699 102 OFFCURVE",
"774 226 OFFCURVE",
"803 475 CURVE",
"871 475 LINE",
"848 0 LINE",
"154 0 LINE",
"154 74 LINE",
"199 79 OFFCURVE",
"231 91 OFFCURVE",
"248 109 CURVE SMOOTH",
"263 124 OFFCURVE",
"271 154 OFFCURVE",
"271 199 CURVE SMOOTH",
"271 1357 LINE SMOOTH",
"271 1406 OFFCURVE",
"263 1438 OFFCURVE",
"246 1454 CURVE SMOOTH",
"231 1469 OFFCURVE",
"200 1478 OFFCURVE",
"154 1482 CURVE"
);
},
{
closed = 1;
nodes = (
"734 1081 OFFCURVE",
"751 1077 OFFCURVE",
"767 1070 CURVE SMOOTH",
"812 1049 OFFCURVE",
"835 1013 OFFCURVE",
"835 962 CURVE SMOOTH",
"835 929 OFFCURVE",
"823 901 OFFCURVE",
"800 878 CURVE SMOOTH",
"777 855 OFFCURVE",
"748 843 OFFCURVE",
"715 843 CURVE SMOOTH",
"695 843 OFFCURVE",
"676 848 OFFCURVE",
"659 858 CURVE SMOOTH",
"618 881 OFFCURVE",
"597 916 OFFCURVE",
"597 963 CURVE SMOOTH",
"597 998 OFFCURVE",
"610 1027 OFFCURVE",
"636 1050 CURVE SMOOTH",
"658 1071 OFFCURVE",
"685 1081 OFFCURVE",
"717 1081 CURVE SMOOTH"
);
}
);
vertWidth = 2048;
width = 1024;
}
);
unicode = 013F;
},
{
color = 3;
glyphname = Ncommaaccent;
lastChange = "2022-04-07 18:22:10 +0000";
layers = (
{
background = {
paths = (
{
closed = 1;
nodes = (
"154 1556 LINE",
"531 1556 LINE",
"531 1482 LINE",
"480 1477 OFFCURVE",
"445 1466 OFFCURVE",
"428 1447 CURVE SMOOTH",
"413 1431 OFFCURVE",
"406 1401 OFFCURVE",
"406 1357 CURVE SMOOTH",
"406 285 LINE SMOOTH",
"406 241 OFFCURVE",
"413 211 OFFCURVE",
"428 195 CURVE SMOOTH",
"442 180 OFFCURVE",
"468 172 OFFCURVE",
"506 172 CURVE SMOOTH",
"578 172 LINE SMOOTH",
"699 172 OFFCURVE",
"774 296 OFFCURVE",
"803 545 CURVE",
"871 545 LINE",
"848 70 LINE",
"154 70 LINE",
"154 144 LINE",
"199 149 OFFCURVE",
"231 161 OFFCURVE",
"248 179 CURVE SMOOTH",
"263 194 OFFCURVE",
"271 224 OFFCURVE",
"271 269 CURVE SMOOTH",
"271 1357 LINE SMOOTH",
"271 1406 OFFCURVE",
"263 1438 OFFCURVE",
"246 1454 CURVE SMOOTH",
"231 1469 OFFCURVE",
"200 1478 OFFCURVE",
"154 1482 CURVE"
);
},
{
closed = 1;
nodes = (
"456 -191 LINE",
"490 -171 OFFCURVE",
"508 -151 OFFCURVE",
"510 -130 CURVE",
"439 -130 OFFCURVE",
"390 -109 OFFCURVE",
"390 -56 CURVE SMOOTH",
"390 -6 OFFCURVE",
"435 21 OFFCURVE",
"499 21 CURVE SMOOTH",
"568 21 OFFCURVE",
"619 -10 OFFCURVE",
"619 -77 CURVE SMOOTH",
"619 -153 OFFCURVE",
"570 -199 OFFCURVE",
"497 -246 CURVE"
);
}
);
};
layerId = "4E782664-D0D5-4FED-AFC2-B9212141A2ED";
paths = (
{
closed = 1;
nodes = (
"74 1556 LINE",
"352 1556 LINE",
"760 365 LINE",
"768 365 LINE",
"768 1382 LINE SMOOTH",
"768 1414 OFFCURVE",
"760 1437 OFFCURVE",
"745 1450 CURVE SMOOTH",
"727 1465 OFFCURVE",
"698 1476 OFFCURVE",
"657 1482 CURVE",
"657 1556 LINE",
"967 1556 LINE",
"967 1482 LINE",
"927 1476 OFFCURVE",
"898 1465 OFFCURVE",
"881 1450 CURVE SMOOTH",
"866 1436 OFFCURVE",
"858 1413 OFFCURVE",
"858 1382 CURVE SMOOTH",
"858 45 LINE",
"733 45 LINE",
"278 1370 LINE",
"270 1370 LINE",
"270 244 LINE SMOOTH",
"270 207 OFFCURVE",
"278 181 OFFCURVE",
"295 166 CURVE SMOOTH",
"308 155 OFFCURVE",
"336 147 OFFCURVE",
"379 144 CURVE",
"379 70 LINE",
"74 70 LINE",
"74 144 LINE",
"120 151 OFFCURVE",
"149 161 OFFCURVE",
"161 174 CURVE SMOOTH",
"174 188 OFFCURVE",
"180 211 OFFCURVE",
"180 244 CURVE SMOOTH",
"180 1382 LINE SMOOTH",
"180 1418 OFFCURVE",
"173 1442 OFFCURVE",
"159 1454 CURVE SMOOTH",
"146 1466 OFFCURVE",
"117 1475 OFFCURVE",
"74 1482 CURVE"
);
},
{
closed = 1;
nodes = (
"456 -191 LINE",
"490 -171 OFFCURVE",
"508 -151 OFFCURVE",
"510 -130 CURVE",
"439 -130 OFFCURVE",
"390 -109 OFFCURVE",
"390 -56 CURVE SMOOTH",
"390 -6 OFFCURVE",
"435 21 OFFCURVE",
"499 21 CURVE SMOOTH",
"568 21 OFFCURVE",
"619 -10 OFFCURVE",
"619 -77 CURVE SMOOTH",
"619 -153 OFFCURVE",
"570 -199 OFFCURVE",
"497 -246 CURVE"
);
}
);
vertWidth = 2048;
width = 1024;
}
);
unicode = 0145;
},
{
color = 3;
glyphname = Eng;
lastChange = "2022-04-07 18:22:10 +0000";
layers = (
{
background = {
paths = (
{
closed = 1;
nodes = (
"74 1556 LINE",
"352 1556 LINE",
"760 365 LINE",
"768 365 LINE",
"768 1382 LINE SMOOTH",
"768 1414 OFFCURVE",
"760 1437 OFFCURVE",
"745 1450 CURVE SMOOTH",
"727 1465 OFFCURVE",
"698 1476 OFFCURVE",
"657 1482 CURVE",
"657 1556 LINE",
"967 1556 LINE",
"967 1482 LINE",
"927 1476 OFFCURVE",
"898 1465 OFFCURVE",
"881 1450 CURVE SMOOTH",
"866 1436 OFFCURVE",
"858 1413 OFFCURVE",
"858 1382 CURVE SMOOTH",
"858 145 LINE",
"817 43 LINE",
"733 45 LINE",
"278 1370 LINE",
"270 1370 LINE",
"270 244 LINE SMOOTH",
"270 207 OFFCURVE",
"278 181 OFFCURVE",
"295 166 CURVE SMOOTH",
"308 155 OFFCURVE",
"336 147 OFFCURVE",
"379 144 CURVE",
"379 70 LINE",
"74 70 LINE",
"74 144 LINE",
"120 151 OFFCURVE",
"149 161 OFFCURVE",
"161 174 CURVE SMOOTH",
"174 188 OFFCURVE",
"180 211 OFFCURVE",
"180 244 CURVE SMOOTH",
"180 1382 LINE SMOOTH",
"180 1418 OFFCURVE",
"173 1442 OFFCURVE",
"159 1454 CURVE SMOOTH",
"146 1466 OFFCURVE",
"117 1475 OFFCURVE",
"74 1482 CURVE"
);
},
{
closed = 1;
nodes = (
"858 72 LINE SMOOTH",
"858 -106 OFFCURVE",
"809 -244 OFFCURVE",
"604 -244 CURVE SMOOTH",
"480 -244 OFFCURVE",
"362 -168 OFFCURVE",
"362 -53 CURVE SMOOTH",
"362 -15 OFFCURVE",
"373 15 OFFCURVE",
"395 36 CURVE SMOOTH",
"414 55 OFFCURVE",
"438 64 OFFCURVE",
"465 64 CURVE SMOOTH",
"504 64 OFFCURVE",
"532 49 OFFCURVE",
"550 19 CURVE SMOOTH",
"560 2 OFFCURVE",
"565 -18 OFFCURVE",
"565 -41 CURVE SMOOTH",
"565 -84 OFFCURVE",
"550 -114 OFFCURVE",
"520 -131 CURVE",
"537 -150 OFFCURVE",
"563 -160 OFFCURVE",
"596 -160 CURVE SMOOTH",
"751 -160 OFFCURVE",
"768 -47 OFFCURVE",
"768 74 CURVE SMOOTH",
"768 222 LINE",
"858 222 LINE"
);
}
);
};
layerId = "4E782664-D0D5-4FED-AFC2-B9212141A2ED";
paths = (
{
closed = 1;
nodes = (
"480 -244 OFFCURVE",
"362 -168 OFFCURVE",
"362 -53 CURVE SMOOTH",
"362 -15 OFFCURVE",
"373 15 OFFCURVE",
"395 36 CURVE SMOOTH",
"414 55 OFFCURVE",
"438 64 OFFCURVE",
"465 64 CURVE SMOOTH",
"504 64 OFFCURVE",
"532 49 OFFCURVE",
"550 19 CURVE SMOOTH",
"560 2 OFFCURVE",
"565 -18 OFFCURVE",
"565 -41 CURVE SMOOTH",
"565 -84 OFFCURVE",
"550 -114 OFFCURVE",
"520 -131 CURVE",
"537 -150 OFFCURVE",
"563 -160 OFFCURVE",
"596 -160 CURVE SMOOTH",
"738 -160 OFFCURVE",
"764 -65 OFFCURVE",
"768 44 CURVE",
"733 45 LINE",
"278 1370 LINE",
"270 1370 LINE",
"270 244 LINE SMOOTH",
"270 207 OFFCURVE",
"278 181 OFFCURVE",
"295 166 CURVE SMOOTH",
"308 155 OFFCURVE",
"336 147 OFFCURVE",
"379 144 CURVE",
"379 70 LINE",
"74 70 LINE",
"74 144 LINE",
"120 151 OFFCURVE",
"149 161 OFFCURVE",
"161 174 CURVE SMOOTH",
"174 188 OFFCURVE",
"180 211 OFFCURVE",
"180 244 CURVE SMOOTH",
"180 1382 LINE SMOOTH",
"180 1418 OFFCURVE",
"173 1442 OFFCURVE",
"159 1454 CURVE SMOOTH",
"146 1466 OFFCURVE",
"117 1475 OFFCURVE",
"74 1482 CURVE",
"74 1556 LINE",
"352 1556 LINE",
"760 365 LINE",
"768 365 LINE",
"768 1382 LINE SMOOTH",
"768 1414 OFFCURVE",
"760 1437 OFFCURVE",
"745 1450 CURVE SMOOTH",
"727 1465 OFFCURVE",
"698 1476 OFFCURVE",
"657 1482 CURVE",
"657 1556 LINE",
"967 1556 LINE",
"967 1482 LINE",
"927 1476 OFFCURVE",
"898 1465 OFFCURVE",
"881 1450 CURVE SMOOTH",
"866 1436 OFFCURVE",
"858 1413 OFFCURVE",
"858 1382 CURVE SMOOTH",
"858 72 LINE SMOOTH",
"858 -106 OFFCURVE",
"809 -244 OFFCURVE",
"604 -244 CURVE SMOOTH"
);
}
);
vertWidth = 2048;
width = 1024;
}
);
unicode = 014A;
},
{
color = 3;
glyphname = Obreve;
lastChange = "2022-04-07 18:22:10 +0000";
layers = (
{
layerId = "4E782664-D0D5-4FED-AFC2-B9212141A2ED";
paths = (
{
closed = 1;
nodes = (
"630 1493 OFFCURVE",
"724 1427 OFFCURVE",
"797 1294 CURVE SMOOTH",
"875 1151 OFFCURVE",
"914 961 OFFCURVE",
"914 724 CURVE SMOOTH",
"914 507 OFFCURVE",
"884 332 OFFCURVE",
"823 198 CURVE SMOOTH",
"752 40 OFFCURVE",
"648 -39 OFFCURVE",
"511 -39 CURVE SMOOTH",
"379 -39 OFFCURVE",
"277 37 OFFCURVE",
"206 189 CURVE SMOOTH",
"143 323 OFFCURVE",
"111 501 OFFCURVE",
"111 722 CURVE SMOOTH",
"111 983 OFFCURVE",
"157 1184 OFFCURVE",
"248 1327 CURVE SMOOTH",
"319 1438 OFFCURVE",
"407 1493 OFFCURVE",
"514 1493 CURVE SMOOTH"
);
},
{
closed = 1;
nodes = (
"438 1382 OFFCURVE",
"380 1328 OFFCURVE",
"337 1220 CURVE SMOOTH",
"292 1106 OFFCURVE",
"269 941 OFFCURVE",
"269 724 CURVE SMOOTH",
"269 525 OFFCURVE",
"290 368 OFFCURVE",
"331 253 CURVE SMOOTH",
"374 132 OFFCURVE",
"435 72 OFFCURVE",
"513 72 CURVE SMOOTH",
"585 72 OFFCURVE",
"642 124 OFFCURVE",
"685 229 CURVE SMOOTH",
"732 345 OFFCURVE",
"756 510 OFFCURVE",
"756 725 CURVE SMOOTH",
"756 956 OFFCURVE",
"730 1128 OFFCURVE",
"678 1243 CURVE SMOOTH",
"637 1336 OFFCURVE",
"581 1382 OFFCURVE",
"511 1382 CURVE SMOOTH"
);
},
{
closed = 1;
nodes = (
"826 1800 LINE",
"780 1642 OFFCURVE",
"676 1563 OFFCURVE",
"514 1563 CURVE SMOOTH",
"352 1563 OFFCURVE",
"249 1642 OFFCURVE",
"204 1800 CURVE",
"288 1800 LINE",
"323 1719 OFFCURVE",
"399 1678 OFFCURVE",
"515 1678 CURVE SMOOTH",
"630 1678 OFFCURVE",
"705 1719 OFFCURVE",
"742 1800 CURVE"
);
}
);
vertWidth = 2048;
width = 1024;
}
);
unicode = 014E;
},
{
color = 3;
glyphname = Rcommaaccent;
lastChange = "2022-04-07 18:22:10 +0000";
layers = (
{
background = {
paths = (
{
closed = 1;
nodes = (
"335 618 LINE",
"335 244 LINE SMOOTH",
"335 209 OFFCURVE",
"342 185 OFFCURVE",
"356 170 CURVE SMOOTH",
"369 156 OFFCURVE",
"394 147 OFFCURVE",
"429 144 CURVE",
"429 70 LINE",
"102 70 LINE",
"102 144 LINE",
"143 150 OFFCURVE",
"170 160 OFFCURVE",
"183 174 CURVE SMOOTH",
"196 188 OFFCURVE",
"202 211 OFFCURVE",
"202 244 CURVE SMOOTH",
"202 1382 LINE SMOOTH",
"202 1419 OFFCURVE",
"194 1444 OFFCURVE",
"179 1458 CURVE SMOOTH",
"166 1470 OFFCURVE",
"140 1478 OFFCURVE",
"102 1482 CURVE",
"102 1556 LINE",
"429 1556 LINE",
"429 1482 LINE",
"393 1478 OFFCURVE",
"368 1469 OFFCURVE",
"353 1454 CURVE SMOOTH",
"341 1441 OFFCURVE",
"335 1417 OFFCURVE",
"335 1382 CURVE SMOOTH",
"335 807 LINE",
"638 1382 LINE SMOOTH",
"648 1402 OFFCURVE",
"653 1417 OFFCURVE",
"653 1428 CURVE SMOOTH",
"653 1458 OFFCURVE",
"626 1476 OFFCURVE",
"573 1482 CURVE",
"573 1556 LINE",
"888 1556 LINE",
"888 1482 LINE",
"849 1475 OFFCURVE",
"820 1464 OFFCURVE",
"799 1449 CURVE SMOOTH",
"778 1434 OFFCURVE",
"757 1405 OFFCURVE",
"734 1362 CURVE SMOOTH"
);
},
{
closed = 1;
nodes = (
"825 252 LINE SMOOTH",
"838 219 OFFCURVE",
"855 193 OFFCURVE",
"876 174 CURVE SMOOTH",
"890 163 OFFCURVE",
"914 153 OFFCURVE",
"949 144 CURVE",
"949 70 LINE",
"612 70 LINE",
"612 144 LINE",
"662 148 OFFCURVE",
"687 167 OFFCURVE",
"687 201 CURVE SMOOTH",
"687 216 OFFCURVE",
"684 232 OFFCURVE",
"677 250 CURVE SMOOTH",
"447 845 LINE",
"522 991 LINE"
);
},
{
closed = 1;
nodes = (
"456 -191 LINE",
"490 -171 OFFCURVE",
"508 -151 OFFCURVE",
"510 -130 CURVE",
"439 -130 OFFCURVE",
"390 -109 OFFCURVE",
"390 -56 CURVE SMOOTH",
"390 -6 OFFCURVE",
"435 21 OFFCURVE",
"499 21 CURVE SMOOTH",
"568 21 OFFCURVE",
"619 -10 OFFCURVE",
"619 -77 CURVE SMOOTH",
"619 -153 OFFCURVE",
"570 -199 OFFCURVE",
"497 -246 CURVE"
);
}
);
};
layerId = "4E782664-D0D5-4FED-AFC2-B9212141A2ED";
paths = (
{
closed = 1;
nodes = (
"90 1556 LINE",
"489 1556 LINE SMOOTH",
"714 1556 OFFCURVE",
"851 1402 OFFCURVE",
"851 1172 CURVE SMOOTH",
"851 979 OFFCURVE",
"760 842 OFFCURVE",
"559 817 CURVE",
"559 811 LINE",
"626 792 OFFCURVE",
"675 749 OFFCURVE",
"705 682 CURVE SMOOTH",
"734 620 OFFCURVE",
"772 497 OFFCURVE",
"833 307 CURVE SMOOTH",
"866 204 OFFCURVE",
"884 159 OFFCURVE",
"974 142 CURVE",
"974 70 LINE",
"745 70 LINE",
"668 382 OFFCURVE",
"607 577 OFFCURVE",
"570 660 CURVE SMOOTH",
"536 736 OFFCURVE",
"493 774 OFFCURVE",
"440 774 CURVE SMOOTH",
"319 774 LINE",
"319 244 LINE SMOOTH",
"319 207 OFFCURVE",
"326 181 OFFCURVE",
"339 166 CURVE SMOOTH",
"352 153 OFFCURVE",
"378 146 OFFCURVE",
"417 144 CURVE",
"417 70 LINE",
"90 70 LINE",
"90 144 LINE",
"129 150 OFFCURVE",
"155 159 OFFCURVE",
"168 172 CURVE SMOOTH",
"180 185 OFFCURVE",
"186 209 OFFCURVE",
"186 244 CURVE SMOOTH",
"186 1382 LINE SMOOTH",
"186 1421 OFFCURVE",
"180 1447 OFFCURVE",
"168 1460 CURVE SMOOTH",
"156 1472 OFFCURVE",
"130 1479 OFFCURVE",
"90 1482 CURVE"
);
},
{
closed = 1;
nodes = (
"319 876 LINE",
"438 876 LINE SMOOTH",
"613 876 OFFCURVE",
"708 993 OFFCURVE",
"708 1174 CURVE SMOOTH",
"708 1361 OFFCURVE",
"632 1454 OFFCURVE",
"479 1454 CURVE SMOOTH",
"399 1454 LINE SMOOTH",
"368 1454 OFFCURVE",
"347 1448 OFFCURVE",
"335 1435 CURVE SMOOTH",
"324 1424 OFFCURVE",
"319 1401 OFFCURVE",
"319 1366 CURVE SMOOTH"
);
},
{
closed = 1;
nodes = (
"456 -191 LINE",
"490 -171 OFFCURVE",
"508 -151 OFFCURVE",
"510 -130 CURVE",
"439 -130 OFFCURVE",
"390 -109 OFFCURVE",
"390 -56 CURVE SMOOTH",
"390 -6 OFFCURVE",
"435 21 OFFCURVE",
"499 21 CURVE SMOOTH",
"568 21 OFFCURVE",
"619 -10 OFFCURVE",
"619 -77 CURVE SMOOTH",
"619 -153 OFFCURVE",
"570 -199 OFFCURVE",
"497 -246 CURVE"
);
}
);
vertWidth = 2048;
width = 1024;
}
);
unicode = 0156;
},
{
color = 3;
glyphname = Tbar;
lastChange = "2022-04-07 18:22:10 +0000";
layers = (
{
background = {
paths = (
{
closed = 1;
nodes = (
"120 1556 LINE",
"903 1556 LINE",
"921 1149 LINE",
"858 1149 LINE",
"843 1261 OFFCURVE",
"823 1337 OFFCURVE",
"796 1378 CURVE SMOOTH",
"763 1429 OFFCURVE",
"716 1454 OFFCURVE",
"657 1454 CURVE SMOOTH",
"579 1454 LINE",
"579 174 LINE SMOOTH",
"579 139 OFFCURVE",
"587 115 OFFCURVE",
"602 102 CURVE SMOOTH",
"617 89 OFFCURVE",
"648 79 OFFCURVE",
"694 74 CURVE",
"694 0 LINE",
"329 0 LINE",
"329 74 LINE",
"374 79 OFFCURVE",
"405 89 OFFCURVE",
"421 102 CURVE SMOOTH",
"436 115 OFFCURVE",
"444 139 OFFCURVE",
"444 174 CURVE SMOOTH",
"444 1454 LINE",
"366 1454 LINE SMOOTH",
"301 1454 OFFCURVE",
"253 1425 OFFCURVE",
"220 1366 CURVE SMOOTH",
"196 1323 OFFCURVE",
"178 1250 OFFCURVE",
"165 1149 CURVE",
"102 1149 LINE"
);
},
{
closed = 1;
nodes = (
"785 807 LINE",
"785 705 LINE",
"239 705 LINE",
"239 807 LINE"
);
}
);
};
layerId = "4E782664-D0D5-4FED-AFC2-B9212141A2ED";
paths = (
{
closed = 1;
nodes = (
"329 74 LINE",
"374 79 OFFCURVE",
"405 89 OFFCURVE",
"421 102 CURVE SMOOTH",
"436 115 OFFCURVE",
"444 139 OFFCURVE",
"444 174 CURVE SMOOTH",
"444 705 LINE",
"239 705 LINE",
"239 807 LINE",
"444 807 LINE",
"444 1454 LINE",
"366 1454 LINE SMOOTH",
"301 1454 OFFCURVE",
"253 1425 OFFCURVE",
"220 1366 CURVE SMOOTH",
"196 1323 OFFCURVE",
"178 1250 OFFCURVE",
"165 1149 CURVE",
"102 1149 LINE",
"120 1556 LINE",
"903 1556 LINE",
"921 1149 LINE",
"858 1149 LINE",
"843 1261 OFFCURVE",
"823 1337 OFFCURVE",
"796 1378 CURVE SMOOTH",
"763 1429 OFFCURVE",
"716 1454 OFFCURVE",
"657 1454 CURVE SMOOTH",
"579 1454 LINE",
"579 807 LINE",
"785 807 LINE",
"785 705 LINE",
"579 705 LINE",
"579 174 LINE SMOOTH",
"579 139 OFFCURVE",
"587 115 OFFCURVE",
"602 102 CURVE SMOOTH",
"617 89 OFFCURVE",
"648 79 OFFCURVE",
"694 74 CURVE",
"694 0 LINE",
"329 0 LINE"
);
}
);
vertWidth = 2048;
width = 1024;
}
);
unicode = 0166;
},
{
color = 3;
glyphname = Uogonek;
lastChange = "2022-04-07 18:22:10 +0000";
layers = (
{
background = {
paths = (
{
closed = 1;
nodes = (
"72 1556 LINE",
"399 1556 LINE",
"399 1482 LINE",
"365 1478 OFFCURVE",
"341 1469 OFFCURVE",
"326 1454 CURVE SMOOTH",
"312 1440 OFFCURVE",
"305 1416 OFFCURVE",
"305 1382 CURVE SMOOTH",
"305 682 LINE SMOOTH",
"305 399 OFFCURVE",
"325 193 OFFCURVE",
"533 193 CURVE SMOOTH",
"735 193 OFFCURVE",
"758 406 OFFCURVE",
"758 691 CURVE SMOOTH",
"758 1382 LINE SMOOTH",
"758 1414 OFFCURVE",
"752 1437 OFFCURVE",
"740 1451 CURVE SMOOTH",
"726 1467 OFFCURVE",
"701 1477 OFFCURVE",
"666 1482 CURVE",
"666 1556 LINE",
"942 1556 LINE",
"942 1482 LINE",
"904 1475 OFFCURVE",
"879 1466 OFFCURVE",
"866 1454 CURVE SMOOTH",
"854 1441 OFFCURVE",
"848 1417 OFFCURVE",
"848 1382 CURVE SMOOTH",
"848 691 LINE SMOOTH",
"848 344 OFFCURVE",
"803 66 OFFCURVE",
"527 66 CURVE SMOOTH",
"228 66 OFFCURVE",
"172 316 OFFCURVE",
"172 682 CURVE SMOOTH",
"172 1382 LINE SMOOTH",
"172 1421 OFFCURVE",
"165 1447 OFFCURVE",
"151 1460 CURVE SMOOTH",
"139 1472 OFFCURVE",
"113 1479 OFFCURVE",
"72 1482 CURVE"
);
},
{
closed = 1;
nodes = (
"527 34 OFFCURVE",
"494 -24 OFFCURVE",
"494 -76 CURVE SMOOTH",
"494 -127 OFFCURVE",
"522 -152 OFFCURVE",
"577 -152 CURVE SMOOTH",
"616 -152 OFFCURVE",
"662 -130 OFFCURVE",
"715 -86 CURVE",
"736 -149 LINE",
"667 -211 OFFCURVE",
"597 -242 OFFCURVE",
"527 -242 CURVE SMOOTH",
"419 -242 OFFCURVE",
"365 -198 OFFCURVE",
"365 -109 CURVE SMOOTH",
"365 -37 OFFCURVE",
"410 30 OFFCURVE",
"498 95 CURVE",
"593 97 LINE"
);
}
);
};
layerId = "4E782664-D0D5-4FED-AFC2-B9212141A2ED";
paths = (
{
closed = 1;
nodes = (
"419 -242 OFFCURVE",
"365 -198 OFFCURVE",
"365 -109 CURVE SMOOTH",
"365 -46 OFFCURVE",
"399 13 OFFCURVE",
"466 70 CURVE",
"220 103 OFFCURVE",
"172 342 OFFCURVE",
"172 682 CURVE SMOOTH",
"172 1382 LINE SMOOTH",
"172 1421 OFFCURVE",
"165 1447 OFFCURVE",
"151 1460 CURVE SMOOTH",
"139 1472 OFFCURVE",
"113 1479 OFFCURVE",
"72 1482 CURVE",
"72 1556 LINE",
"399 1556 LINE",
"399 1482 LINE",
"365 1478 OFFCURVE",
"341 1469 OFFCURVE",
"326 1454 CURVE SMOOTH",
"312 1440 OFFCURVE",
"305 1416 OFFCURVE",
"305 1382 CURVE SMOOTH",
"305 682 LINE SMOOTH",
"305 399 OFFCURVE",
"325 193 OFFCURVE",
"533 193 CURVE SMOOTH",
"735 193 OFFCURVE",
"758 406 OFFCURVE",
"758 691 CURVE SMOOTH",
"758 1382 LINE SMOOTH",
"758 1414 OFFCURVE",
"752 1437 OFFCURVE",
"740 1451 CURVE SMOOTH",
"726 1467 OFFCURVE",
"701 1477 OFFCURVE",
"666 1482 CURVE",
"666 1556 LINE",
"942 1556 LINE",
"942 1482 LINE",
"904 1475 OFFCURVE",
"879 1466 OFFCURVE",
"866 1454 CURVE SMOOTH",
"854 1441 OFFCURVE",
"848 1417 OFFCURVE",
"848 1382 CURVE SMOOTH",
"848 691 LINE SMOOTH",
"848 360 OFFCURVE",
"807 92 OFFCURVE",
"564 68 CURVE",
"517 16 OFFCURVE",
"494 -32 OFFCURVE",
"494 -76 CURVE SMOOTH",
"494 -127 OFFCURVE",
"522 -152 OFFCURVE",
"577 -152 CURVE SMOOTH",
"616 -152 OFFCURVE",
"662 -130 OFFCURVE",
"715 -86 CURVE",
"736 -149 LINE",
"667 -211 OFFCURVE",
"597 -242 OFFCURVE",
"527 -242 CURVE SMOOTH"
);
}
);
vertWidth = 2048;
width = 1024;
}
);
unicode = 0172;
},
{
color = 3;
glyphname = Utilde;
lastChange = "2022-04-07 18:22:10 +0000";
layers = (
{
layerId = "4E782664-D0D5-4FED-AFC2-B9212141A2ED";
paths = (
{
closed = 1;
nodes = (
"72 1454 LINE",
"399 1454 LINE",
"399 1380 LINE",
"365 1376 OFFCURVE",
"341 1367 OFFCURVE",
"326 1352 CURVE SMOOTH",
"312 1338 OFFCURVE",
"305 1314 OFFCURVE",
"305 1280 CURVE SMOOTH",
"305 578 LINE SMOOTH",
"305 405 OFFCURVE",
"318 286 OFFCURVE",
"343 219 CURVE SMOOTH",
"376 132 OFFCURVE",
"439 88 OFFCURVE",
"533 88 CURVE SMOOTH",
"625 88 OFFCURVE",
"686 131 OFFCURVE",
"717 218 CURVE SMOOTH",
"744 295 OFFCURVE",
"758 417 OFFCURVE",
"758 586 CURVE SMOOTH",
"758 1280 LINE SMOOTH",
"758 1312 OFFCURVE",
"752 1335 OFFCURVE",
"740 1349 CURVE SMOOTH",
"726 1365 OFFCURVE",
"701 1375 OFFCURVE",
"666 1380 CURVE",
"666 1454 LINE",
"942 1454 LINE",
"942 1380 LINE",
"904 1373 OFFCURVE",
"879 1364 OFFCURVE",
"866 1352 CURVE SMOOTH",
"854 1339 OFFCURVE",
"848 1315 OFFCURVE",
"848 1280 CURVE SMOOTH",
"848 586 LINE SMOOTH",
"848 436 OFFCURVE",
"840 325 OFFCURVE",
"825 254 CURVE SMOOTH",
"783 59 OFFCURVE",
"684 -39 OFFCURVE",
"527 -39 CURVE SMOOTH",
"399 -39 OFFCURVE",
"303 16 OFFCURVE",
"240 125 CURVE SMOOTH",
"209 178 OFFCURVE",
"189 250 OFFCURVE",
"180 340 CURVE SMOOTH",
"175 400 OFFCURVE",
"172 479 OFFCURVE",
"172 578 CURVE SMOOTH",
"172 1280 LINE SMOOTH",
"172 1319 OFFCURVE",
"165 1345 OFFCURVE",
"151 1358 CURVE SMOOTH",
"139 1370 OFFCURVE",
"113 1377 OFFCURVE",
"72 1380 CURVE"
);
},
{
closed = 1;
nodes = (
"170 1614 LINE",
"233 1722 OFFCURVE",
"306 1776 OFFCURVE",
"391 1776 CURVE SMOOTH",
"442 1776 OFFCURVE",
"492 1759 OFFCURVE",
"541 1726 CURVE SMOOTH",
"590 1693 OFFCURVE",
"634 1677 OFFCURVE",
"673 1677 CURVE SMOOTH",
"738 1677 OFFCURVE",
"789 1706 OFFCURVE",
"827 1764 CURVE",
"875 1704 LINE",
"811 1596 OFFCURVE",
"737 1542 OFFCURVE",
"654 1542 CURVE SMOOTH",
"603 1542 OFFCURVE",
"553 1558 OFFCURVE",
"504 1591 CURVE SMOOTH",
"455 1624 OFFCURVE",
"411 1641 OFFCURVE",
"371 1641 CURVE SMOOTH",
"307 1641 OFFCURVE",
"256 1612 OFFCURVE",
"217 1555 CURVE"
);
}
);
vertWidth = 2048;
width = 1024;
}
);
unicode = 0168;
},
{
color = 3;
glyphname = Wcircumflex;
lastChange = "2022-04-07 18:22:10 +0000";
layers = (
{
background = {
paths = (
{
closed = 1;
nodes = (
"72 1454 LINE",
"399 1454 LINE",
"399 1380 LINE",
"365 1376 OFFCURVE",
"341 1367 OFFCURVE",
"326 1352 CURVE SMOOTH",
"312 1338 OFFCURVE",
"305 1314 OFFCURVE",
"305 1280 CURVE SMOOTH",
"305 578 LINE SMOOTH",
"305 405 OFFCURVE",
"318 286 OFFCURVE",
"343 219 CURVE SMOOTH",
"376 132 OFFCURVE",
"439 88 OFFCURVE",
"533 88 CURVE SMOOTH",
"625 88 OFFCURVE",
"686 131 OFFCURVE",
"717 218 CURVE SMOOTH",
"744 295 OFFCURVE",
"758 417 OFFCURVE",
"758 586 CURVE SMOOTH",
"758 1280 LINE SMOOTH",
"758 1312 OFFCURVE",
"752 1335 OFFCURVE",
"740 1349 CURVE SMOOTH",
"726 1365 OFFCURVE",
"701 1375 OFFCURVE",
"666 1380 CURVE",
"666 1454 LINE",
"942 1454 LINE",
"942 1380 LINE",
"904 1373 OFFCURVE",
"879 1364 OFFCURVE",
"866 1352 CURVE SMOOTH",
"854 1339 OFFCURVE",
"848 1315 OFFCURVE",
"848 1280 CURVE SMOOTH",
"848 586 LINE SMOOTH",
"848 436 OFFCURVE",
"840 325 OFFCURVE",
"825 254 CURVE SMOOTH",
"783 59 OFFCURVE",
"684 -39 OFFCURVE",
"527 -39 CURVE SMOOTH",
"399 -39 OFFCURVE",
"303 16 OFFCURVE",
"240 125 CURVE SMOOTH",
"209 178 OFFCURVE",
"189 250 OFFCURVE",
"180 340 CURVE SMOOTH",
"175 400 OFFCURVE",
"172 479 OFFCURVE",
"172 578 CURVE SMOOTH",
"172 1280 LINE SMOOTH",
"172 1319 OFFCURVE",
"165 1345 OFFCURVE",
"151 1358 CURVE SMOOTH",
"139 1370 OFFCURVE",
"113 1377 OFFCURVE",
"72 1380 CURVE"
);
},
{
closed = 1;
nodes = (
"170 1614 LINE",
"233 1722 OFFCURVE",
"306 1776 OFFCURVE",
"391 1776 CURVE SMOOTH",
"442 1776 OFFCURVE",
"492 1759 OFFCURVE",
"541 1726 CURVE SMOOTH",
"590 1693 OFFCURVE",
"634 1677 OFFCURVE",
"673 1677 CURVE SMOOTH",
"738 1677 OFFCURVE",
"789 1706 OFFCURVE",
"827 1764 CURVE",
"875 1704 LINE",
"811 1596 OFFCURVE",
"737 1542 OFFCURVE",
"654 1542 CURVE SMOOTH",
"603 1542 OFFCURVE",
"553 1558 OFFCURVE",
"504 1591 CURVE SMOOTH",
"455 1624 OFFCURVE",
"411 1641 OFFCURVE",
"371 1641 CURVE SMOOTH",
"307 1641 OFFCURVE",
"256 1612 OFFCURVE",
"217 1555 CURVE"
);
}
);
};
layerId = "4E782664-D0D5-4FED-AFC2-B9212141A2ED";
paths = (
{
closed = 1;
nodes = (
"10 1456 LINE",
"248 1456 LINE",
"248 1382 LINE",
"215 1365 OFFCURVE",
"198 1342 OFFCURVE",
"198 1314 CURVE SMOOTH",
"198 1293 OFFCURVE",
"200 1264 OFFCURVE",
"205 1229 CURVE SMOOTH",
"332 291 LINE",
"340 291 LINE",
"461 1337 LINE",
"600 1337 LINE",
"733 291 LINE",
"739 291 LINE",
"850 1214 LINE SMOOTH",
"853 1241 OFFCURVE",
"854 1270 OFFCURVE",
"854 1301 CURVE SMOOTH",
"854 1348 OFFCURVE",
"829 1375 OFFCURVE",
"778 1382 CURVE",
"778 1456 LINE",
"1011 1456 LINE",
"1011 1384 LINE",
"974 1364 OFFCURVE",
"951 1310 OFFCURVE",
"940 1223 CURVE SMOOTH",
"784 -25 LINE",
"663 -25 LINE",
"522 1030 LINE",
"516 1030 LINE",
"387 -25 LINE",
"268 -25 LINE",
"80 1247 LINE SMOOTH",
"69 1322 OFFCURVE",
"46 1367 OFFCURVE",
"10 1382 CURVE"
);
},
{
closed = 1;
nodes = (
"443 1800 LINE",
"611 1800 LINE",
"871 1563 LINE",
"744 1563 LINE",
"527 1696 LINE",
"310 1563 LINE",
"183 1563 LINE"
);
}
);
vertWidth = 2048;
width = 1024;
}
);
unicode = 0174;
},
{
color = 3;
glyphname = Ycircumflex;
lastChange = "2022-04-07 18:22:10 +0000";
layers = (
{
layerId = "4E782664-D0D5-4FED-AFC2-B9212141A2ED";
paths = (
{
closed = 1;
nodes = (
"72 1454 LINE",
"418 1454 LINE",
"418 1378 LINE",
"357 1372 OFFCURVE",
"326 1352 OFFCURVE",
"326 1319 CURVE SMOOTH",
"326 1302 OFFCURVE",
"329 1284 OFFCURVE",
"336 1266 CURVE SMOOTH",
"537 723 LINE",
"737 1249 LINE SMOOTH",
"746 1270 OFFCURVE",
"750 1290 OFFCURVE",
"750 1307 CURVE SMOOTH",
"750 1345 OFFCURVE",
"719 1369 OFFCURVE",
"656 1378 CURVE",
"656 1454 LINE",
"953 1454 LINE",
"953 1378 LINE",
"920 1368 OFFCURVE",
"897 1355 OFFCURVE",
"885 1340 CURVE SMOOTH",
"867 1317 OFFCURVE",
"849 1281 OFFCURVE",
"830 1233 CURVE SMOOTH",
"576 588 LINE",
"576 172 LINE SMOOTH",
"576 141 OFFCURVE",
"584 119 OFFCURVE",
"601 104 CURVE SMOOTH",
"615 92 OFFCURVE",
"645 81 OFFCURVE",
"690 72 CURVE",
"690 0 LINE",
"330 0 LINE",
"330 72 LINE",
"377 77 OFFCURVE",
"407 87 OFFCURVE",
"422 102 CURVE SMOOTH",
"436 115 OFFCURVE",
"443 139 OFFCURVE",
"443 172 CURVE SMOOTH",
"443 594 LINE",
"189 1268 LINE SMOOTH",
"164 1333 OFFCURVE",
"125 1369 OFFCURVE",
"72 1378 CURVE"
);
},
{
closed = 1;
nodes = (
"443 1800 LINE",
"611 1800 LINE",
"871 1563 LINE",
"744 1563 LINE",
"527 1696 LINE",
"310 1563 LINE",
"183 1563 LINE"
);
}
);
vertWidth = 2048;
width = 1024;
}
);
unicode = 0176;
},
{
color = 3;
glyphname = Ydieresis;
lastChange = "2022-04-07 18:22:10 +0000";
layers = (
{
layerId = "4E782664-D0D5-4FED-AFC2-B9212141A2ED";
paths = (
{
closed = 1;
nodes = (
"72 1454 LINE",
"418 1454 LINE",
"418 1378 LINE",
"357 1372 OFFCURVE",
"326 1352 OFFCURVE",
"326 1319 CURVE SMOOTH",
"326 1302 OFFCURVE",
"329 1284 OFFCURVE",
"336 1266 CURVE SMOOTH",
"537 723 LINE",
"737 1249 LINE SMOOTH",
"745 1270 OFFCURVE",
"750 1290 OFFCURVE",
"750 1307 CURVE SMOOTH",
"750 1345 OFFCURVE",
"719 1369 OFFCURVE",
"656 1378 CURVE",
"656 1454 LINE",
"953 1454 LINE",
"953 1378 LINE",
"920 1368 OFFCURVE",
"897 1355 OFFCURVE",
"885 1340 CURVE SMOOTH",
"867 1317 OFFCURVE",
"849 1281 OFFCURVE",
"830 1233 CURVE SMOOTH",
"576 588 LINE",
"576 172 LINE SMOOTH",
"576 141 OFFCURVE",
"584 119 OFFCURVE",
"601 104 CURVE SMOOTH",
"615 92 OFFCURVE",
"645 81 OFFCURVE",
"690 72 CURVE",
"690 0 LINE",
"330 0 LINE",
"330 72 LINE",
"377 77 OFFCURVE",
"407 87 OFFCURVE",
"422 102 CURVE SMOOTH",
"436 115 OFFCURVE",
"443 139 OFFCURVE",
"443 172 CURVE SMOOTH",
"443 594 LINE",
"189 1268 LINE SMOOTH",
"164 1333 OFFCURVE",
"125 1369 OFFCURVE",
"72 1378 CURVE"
);
},
{
closed = 1;
nodes = (
"313 1801 OFFCURVE",
"330 1797 OFFCURVE",
"346 1790 CURVE SMOOTH",
"391 1768 OFFCURVE",
"414 1732 OFFCURVE",
"414 1682 CURVE SMOOTH",
"414 1649 OFFCURVE",
"402 1621 OFFCURVE",
"379 1598 CURVE SMOOTH",
"356 1575 OFFCURVE",
"327 1563 OFFCURVE",
"294 1563 CURVE SMOOTH",
"274 1563 OFFCURVE",
"255 1568 OFFCURVE",
"238 1578 CURVE SMOOTH",
"197 1601 OFFCURVE",
"176 1636 OFFCURVE",
"176 1683 CURVE SMOOTH",
"176 1718 OFFCURVE",
"189 1747 OFFCURVE",
"215 1770 CURVE SMOOTH",
"237 1791 OFFCURVE",
"264 1801 OFFCURVE",
"296 1801 CURVE SMOOTH"
);
},
{
closed = 1;
nodes = (
"768 1801 OFFCURVE",
"785 1797 OFFCURVE",
"801 1790 CURVE SMOOTH",
"846 1768 OFFCURVE",
"869 1732 OFFCURVE",
"869 1682 CURVE SMOOTH",
"869 1649 OFFCURVE",
"857 1621 OFFCURVE",
"834 1598 CURVE SMOOTH",
"811 1575 OFFCURVE",
"782 1563 OFFCURVE",
"749 1563 CURVE SMOOTH",
"729 1563 OFFCURVE",
"710 1568 OFFCURVE",
"693 1578 CURVE SMOOTH",
"652 1601 OFFCURVE",
"631 1636 OFFCURVE",
"631 1683 CURVE SMOOTH",
"631 1717 OFFCURVE",
"644 1746 OFFCURVE",
"670 1770 CURVE SMOOTH",
"692 1791 OFFCURVE",
"719 1801 OFFCURVE",
"751 1801 CURVE SMOOTH"
);
}
);
vertWidth = 2048;
width = 1024;
}
);
unicode = 0178;
},
{
color = 3;
glyphname = cdotaccent;
lastChange = "2022-04-07 18:22:10 +0000";
layers = (
{
layerId = "4E782664-D0D5-4FED-AFC2-B9212141A2ED";
paths = (
{
closed = 1;
nodes = (
"848 272 LINE",
"789 63 OFFCURVE",
"684 -41 OFFCURVE",
"533 -41 CURVE SMOOTH",
"417 -41 OFFCURVE",
"324 19 OFFCURVE",
"254 140 CURVE SMOOTH",
"191 247 OFFCURVE",
"160 385 OFFCURVE",
"160 554 CURVE SMOOTH",
"160 705 OFFCURVE",
"189 833 OFFCURVE",
"246 940 CURVE SMOOTH",
"321 1078 OFFCURVE",
"422 1147 OFFCURVE",
"549 1147 CURVE SMOOTH",
"630 1147 OFFCURVE",
"695 1122 OFFCURVE",
"746 1071 CURVE SMOOTH",
"797 1021 OFFCURVE",
"822 967 OFFCURVE",
"822 910 CURVE SMOOTH",
"822 879 OFFCURVE",
"813 854 OFFCURVE",
"796 834 CURVE SMOOTH",
"777 812 OFFCURVE",
"752 801 OFFCURVE",
"721 801 CURVE SMOOTH",
"678 801 OFFCURVE",
"648 820 OFFCURVE",
"630 858 CURVE SMOOTH",
"624 870 OFFCURVE",
"621 883 OFFCURVE",
"621 897 CURVE SMOOTH",
"621 936 OFFCURVE",
"637 966 OFFCURVE",
"670 987 CURVE",
"653 1028 OFFCURVE",
"615 1049 OFFCURVE",
"557 1049 CURVE SMOOTH",
"498 1049 OFFCURVE",
"448 1015 OFFCURVE",
"405 946 CURVE SMOOTH",
"346 852 OFFCURVE",
"316 721 OFFCURVE",
"316 553 CURVE SMOOTH",
"316 408 OFFCURVE",
"340 290 OFFCURVE",
"388 201 CURVE SMOOTH",
"433 116 OFFCURVE",
"489 74 OFFCURVE",
"554 74 CURVE SMOOTH",
"655 74 OFFCURVE",
"731 157 OFFCURVE",
"783 322 CURVE"
);
},
{
closed = 1;
nodes = (
"565 1596 OFFCURVE",
"589 1589 OFFCURVE",
"612 1575 CURVE SMOOTH",
"658 1548 OFFCURVE",
"681 1507 OFFCURVE",
"681 1454 CURVE SMOOTH",
"681 1418 OFFCURVE",
"669 1386 OFFCURVE",
"644 1359 CURVE SMOOTH",
"616 1328 OFFCURVE",
"581 1313 OFFCURVE",
"538 1313 CURVE SMOOTH",
"515 1313 OFFCURVE",
"493 1319 OFFCURVE",
"472 1330 CURVE SMOOTH",
"423 1357 OFFCURVE",
"398 1399 OFFCURVE",
"398 1455 CURVE SMOOTH",
"398 1494 OFFCURVE",
"412 1528 OFFCURVE",
"441 1556 CURVE SMOOTH",
"468 1583 OFFCURVE",
"501 1596 OFFCURVE",
"540 1596 CURVE SMOOTH"
);
}
);
vertWidth = 2048;
width = 1024;
}
);
unicode = 010B;
},
{
color = 3;
glyphname = ebreve;
lastChange = "2022-04-07 18:22:10 +0000";
layers = (
{
layerId = "4E782664-D0D5-4FED-AFC2-B9212141A2ED";
paths = (
{
closed = 1;
nodes = (
"297 564 LINE",
"297 525 LINE SMOOTH",
"297 390 OFFCURVE",
"321 281 OFFCURVE",
"368 198 CURVE SMOOTH",
"415 115 OFFCURVE",
"474 74 OFFCURVE",
"545 74 CURVE SMOOTH",
"643 74 OFFCURVE",
"722 154 OFFCURVE",
"783 314 CURVE",
"844 252 LINE",
"770 57 OFFCURVE",
"662 -41 OFFCURVE",
"521 -41 CURVE SMOOTH",
"432 -41 OFFCURVE",
"355 -2 OFFCURVE",
"290 77 CURVE SMOOTH",
"202 185 OFFCURVE",
"158 339 OFFCURVE",
"158 539 CURVE SMOOTH",
"158 716 OFFCURVE",
"192 863 OFFCURVE",
"261 979 CURVE SMOOTH",
"328 1091 OFFCURVE",
"412 1147 OFFCURVE",
"511 1147 CURVE SMOOTH",
"610 1147 OFFCURVE",
"693 1090 OFFCURVE",
"760 976 CURVE SMOOTH",
"820 872 OFFCURVE",
"850 748 OFFCURVE",
"850 605 CURVE SMOOTH",
"850 564 LINE"
);
},
{
closed = 1;
nodes = (
"703 662 LINE",
"700 780 OFFCURVE",
"681 874 OFFCURVE",
"647 943 CURVE SMOOTH",
"612 1015 OFFCURVE",
"567 1051 OFFCURVE",
"512 1051 CURVE SMOOTH",
"463 1051 OFFCURVE",
"419 1016 OFFCURVE",
"378 946 CURVE SMOOTH",
"333 870 OFFCURVE",
"308 775 OFFCURVE",
"303 662 CURVE"
);
},
{
closed = 1;
nodes = (
"820 1557 LINE",
"818 1481 OFFCURVE",
"799 1420 OFFCURVE",
"764 1373 CURVE SMOOTH",
"709 1300 OFFCURVE",
"625 1264 OFFCURVE",
"512 1264 CURVE SMOOTH",
"390 1264 OFFCURVE",
"303 1306 OFFCURVE",
"250 1389 CURVE SMOOTH",
"222 1434 OFFCURVE",
"207 1490 OFFCURVE",
"205 1557 CURVE",
"302 1557 LINE",
"317 1444 OFFCURVE",
"387 1387 OFFCURVE",
"513 1387 CURVE SMOOTH",
"638 1387 OFFCURVE",
"708 1444 OFFCURVE",
"723 1557 CURVE"
);
}
);
vertWidth = 2048;
width = 1024;
}
);
unicode = 0115;
},
{
color = 3;
glyphname = edotaccent;
lastChange = "2022-04-07 18:22:10 +0000";
layers = (
{
layerId = "4E782664-D0D5-4FED-AFC2-B9212141A2ED";
paths = (
{
closed = 1;
nodes = (
"297 564 LINE",
"297 525 LINE SMOOTH",
"297 390 OFFCURVE",
"321 281 OFFCURVE",
"368 198 CURVE SMOOTH",
"415 115 OFFCURVE",
"474 74 OFFCURVE",
"545 74 CURVE SMOOTH",
"643 74 OFFCURVE",
"722 154 OFFCURVE",
"783 314 CURVE",
"844 252 LINE",
"770 57 OFFCURVE",
"662 -41 OFFCURVE",
"521 -41 CURVE SMOOTH",
"432 -41 OFFCURVE",
"355 -2 OFFCURVE",
"290 77 CURVE SMOOTH",
"202 185 OFFCURVE",
"158 339 OFFCURVE",
"158 539 CURVE SMOOTH",
"158 716 OFFCURVE",
"192 863 OFFCURVE",
"261 979 CURVE SMOOTH",
"328 1091 OFFCURVE",
"412 1147 OFFCURVE",
"511 1147 CURVE SMOOTH",
"610 1147 OFFCURVE",
"693 1090 OFFCURVE",
"760 976 CURVE SMOOTH",
"820 872 OFFCURVE",
"850 748 OFFCURVE",
"850 605 CURVE SMOOTH",
"850 564 LINE"
);
},
{
closed = 1;
nodes = (
"703 662 LINE",
"700 780 OFFCURVE",
"681 874 OFFCURVE",
"647 943 CURVE SMOOTH",
"612 1015 OFFCURVE",
"567 1051 OFFCURVE",
"512 1051 CURVE SMOOTH",
"463 1051 OFFCURVE",
"419 1016 OFFCURVE",
"378 946 CURVE SMOOTH",
"333 870 OFFCURVE",
"308 775 OFFCURVE",
"303 662 CURVE"
);
},
{
closed = 1;
nodes = (
"538 1596 OFFCURVE",
"562 1589 OFFCURVE",
"585 1575 CURVE SMOOTH",
"631 1548 OFFCURVE",
"654 1507 OFFCURVE",
"654 1454 CURVE SMOOTH",
"654 1418 OFFCURVE",
"642 1386 OFFCURVE",
"617 1359 CURVE SMOOTH",
"589 1328 OFFCURVE",
"554 1313 OFFCURVE",
"511 1313 CURVE SMOOTH",
"488 1313 OFFCURVE",
"466 1319 OFFCURVE",
"445 1330 CURVE SMOOTH",
"396 1357 OFFCURVE",
"371 1399 OFFCURVE",
"371 1455 CURVE SMOOTH",
"371 1494 OFFCURVE",
"385 1528 OFFCURVE",
"414 1556 CURVE SMOOTH",
"441 1583 OFFCURVE",
"474 1596 OFFCURVE",
"513 1596 CURVE SMOOTH"
);
}
);
vertWidth = 2048;
width = 1024;
}
);
unicode = 0117;
},
{
color = 3;
glyphname = gbreve;
lastChange = "2022-04-07 18:22:10 +0000";
layers = (
{
layerId = "4E782664-D0D5-4FED-AFC2-B9212141A2ED";
paths = (
{
closed = 1;
nodes = (
"287 264 LINE",
"212 294 OFFCURVE",
"174 342 OFFCURVE",
"174 407 CURVE SMOOTH",
"174 470 OFFCURVE",
"210 516 OFFCURVE",
"283 543 CURVE",
"212 601 OFFCURVE",
"176 688 OFFCURVE",
"176 804 CURVE SMOOTH",
"176 879 OFFCURVE",
"195 947 OFFCURVE",
"232 1007 CURVE SMOOTH",
"291 1100 OFFCURVE",
"373 1147 OFFCURVE",
"478 1147 CURVE SMOOTH",
"557 1147 OFFCURVE",
"621 1118 OFFCURVE",
"668 1059 CURVE",
"693 1109 OFFCURVE",
"729 1146 OFFCURVE",
"774 1169 CURVE SMOOTH",
"799 1182 OFFCURVE",
"823 1188 OFFCURVE",
"845 1188 CURVE SMOOTH",
"873 1188 OFFCURVE",
"897 1177 OFFCURVE",
"918 1156 CURVE SMOOTH",
"942 1131 OFFCURVE",
"954 1099 OFFCURVE",
"954 1062 CURVE SMOOTH",
"954 1000 OFFCURVE",
"927 969 OFFCURVE",
"873 969 CURVE SMOOTH",
"854 969 OFFCURVE",
"838 975 OFFCURVE",
"824 987 CURVE SMOOTH",
"805 1002 OFFCURVE",
"796 1024 OFFCURVE",
"796 1052 CURVE SMOOTH",
"796 1061 OFFCURVE",
"798 1072 OFFCURVE",
"801 1085 CURVE",
"773 1083 OFFCURVE",
"746 1056 OFFCURVE",
"721 1004 CURVE",
"759 944 OFFCURVE",
"778 877 OFFCURVE",
"778 802 CURVE SMOOTH",
"778 710 OFFCURVE",
"757 636 OFFCURVE",
"716 579 CURVE SMOOTH",
"664 510 OFFCURVE",
"586 475 OFFCURVE",
"482 475 CURVE SMOOTH",
"436 475 OFFCURVE",
"396 481 OFFCURVE",
"361 494 CURVE",
"316 489 OFFCURVE",
"293 466 OFFCURVE",
"293 426 CURVE SMOOTH",
"293 401 OFFCURVE",
"304 383 OFFCURVE",
"327 372 CURVE SMOOTH",
"351 360 OFFCURVE",
"386 351 OFFCURVE",
"432 346 CURVE SMOOTH",
"598 328 LINE SMOOTH",
"688 318 OFFCURVE",
"756 294 OFFCURVE",
"801 257 CURVE SMOOTH",
"857 212 OFFCURVE",
"885 142 OFFCURVE",
"885 49 CURVE SMOOTH",
"885 -146 OFFCURVE",
"753 -244 OFFCURVE",
"488 -244 CURVE SMOOTH",
"383 -244 OFFCURVE",
"298 -221 OFFCURVE",
"234 -175 CURVE SMOOTH",
"161 -122 OFFCURVE",
"125 -48 OFFCURVE",
"125 47 CURVE SMOOTH",
"125 149 OFFCURVE",
"179 218 OFFCURVE",
"287 254 CURVE"
);
},
{
closed = 1;
nodes = (
"423 1055 OFFCURVE",
"381 1029 OFFCURVE",
"350 977 CURVE SMOOTH",
"323 930 OFFCURVE",
"309 871 OFFCURVE",
"309 800 CURVE SMOOTH",
"309 745 OFFCURVE",
"317 698 OFFCURVE",
"334 660 CURVE SMOOTH",
"362 597 OFFCURVE",
"410 565 OFFCURVE",
"479 565 CURVE SMOOTH",
"535 565 OFFCURVE",
"578 589 OFFCURVE",
"608 638 CURVE SMOOTH",
"634 681 OFFCURVE",
"647 736 OFFCURVE",
"647 804 CURVE SMOOTH",
"647 887 OFFCURVE",
"626 953 OFFCURVE",
"585 1002 CURVE SMOOTH",
"555 1037 OFFCURVE",
"519 1055 OFFCURVE",
"476 1055 CURVE SMOOTH"
);
},
{
closed = 1;
nodes = (
"329 207 OFFCURVE",
"248 156 OFFCURVE",
"248 54 CURVE SMOOTH",
"248 11 OFFCURVE",
"262 -29 OFFCURVE",
"291 -65 CURVE SMOOTH",
"338 -124 OFFCURVE",
"406 -154 OFFCURVE",
"493 -154 CURVE SMOOTH",
"552 -154 OFFCURVE",
"603 -142 OFFCURVE",
"645 -118 CURVE SMOOTH",
"709 -81 OFFCURVE",
"741 -28 OFFCURVE",
"741 42 CURVE SMOOTH",
"741 152 OFFCURVE",
"657 207 OFFCURVE",
"490 207 CURVE SMOOTH"
);
},
{
closed = 1;
nodes = (
"786 1557 LINE",
"784 1481 OFFCURVE",
"765 1420 OFFCURVE",
"730 1373 CURVE SMOOTH",
"675 1300 OFFCURVE",
"591 1264 OFFCURVE",
"478 1264 CURVE SMOOTH",
"356 1264 OFFCURVE",
"269 1306 OFFCURVE",
"216 1389 CURVE SMOOTH",
"188 1434 OFFCURVE",
"173 1490 OFFCURVE",
"171 1557 CURVE",
"268 1557 LINE",
"283 1444 OFFCURVE",
"353 1387 OFFCURVE",
"479 1387 CURVE SMOOTH",
"604 1387 OFFCURVE",
"674 1444 OFFCURVE",
"689 1557 CURVE"
);
}
);
vertWidth = 2048;
width = 1024;
}
);
unicode = 011F;
},
{
color = 3;
glyphname = gcommaaccent;
lastChange = "2022-04-07 18:22:10 +0000";
layers = (
{
background = {
paths = (
{
closed = 1;
nodes = (
"505 1596 OFFCURVE",
"529 1589 OFFCURVE",
"552 1575 CURVE SMOOTH",
"598 1548 OFFCURVE",
"621 1507 OFFCURVE",
"621 1454 CURVE SMOOTH",
"621 1418 OFFCURVE",
"609 1386 OFFCURVE",
"584 1359 CURVE SMOOTH",
"556 1328 OFFCURVE",
"521 1313 OFFCURVE",
"478 1313 CURVE SMOOTH",
"455 1313 OFFCURVE",
"433 1319 OFFCURVE",
"412 1330 CURVE SMOOTH",
"363 1357 OFFCURVE",
"338 1399 OFFCURVE",
"338 1455 CURVE SMOOTH",
"338 1494 OFFCURVE",
"352 1528 OFFCURVE",
"381 1556 CURVE SMOOTH",
"408 1583 OFFCURVE",
"441 1596 OFFCURVE",
"480 1596 CURVE SMOOTH"
);
}
);
};
layerId = "4E782664-D0D5-4FED-AFC2-B9212141A2ED";
paths = (
{
closed = 1;
nodes = (
"287 264 LINE",
"212 294 OFFCURVE",
"174 342 OFFCURVE",
"174 407 CURVE SMOOTH",
"174 470 OFFCURVE",
"210 516 OFFCURVE",
"283 543 CURVE",
"212 601 OFFCURVE",
"176 688 OFFCURVE",
"176 804 CURVE SMOOTH",
"176 879 OFFCURVE",
"195 947 OFFCURVE",
"232 1007 CURVE SMOOTH",
"291 1100 OFFCURVE",
"373 1147 OFFCURVE",
"478 1147 CURVE SMOOTH",
"557 1147 OFFCURVE",
"621 1118 OFFCURVE",
"668 1059 CURVE",
"693 1109 OFFCURVE",
"729 1146 OFFCURVE",
"774 1169 CURVE SMOOTH",
"799 1182 OFFCURVE",
"823 1188 OFFCURVE",
"845 1188 CURVE SMOOTH",
"873 1188 OFFCURVE",
"897 1177 OFFCURVE",
"918 1156 CURVE SMOOTH",
"942 1131 OFFCURVE",
"954 1099 OFFCURVE",
"954 1062 CURVE SMOOTH",
"954 1000 OFFCURVE",
"927 969 OFFCURVE",
"873 969 CURVE SMOOTH",
"854 969 OFFCURVE",
"838 975 OFFCURVE",
"824 987 CURVE SMOOTH",
"805 1002 OFFCURVE",
"796 1024 OFFCURVE",
"796 1052 CURVE SMOOTH",
"796 1061 OFFCURVE",
"798 1072 OFFCURVE",
"801 1085 CURVE",
"773 1083 OFFCURVE",
"746 1056 OFFCURVE",
"721 1004 CURVE",
"759 944 OFFCURVE",
"778 877 OFFCURVE",
"778 802 CURVE SMOOTH",
"778 710 OFFCURVE",
"757 636 OFFCURVE",
"716 579 CURVE SMOOTH",
"664 510 OFFCURVE",
"586 475 OFFCURVE",
"482 475 CURVE SMOOTH",
"436 475 OFFCURVE",
"396 481 OFFCURVE",
"361 494 CURVE",
"316 489 OFFCURVE",
"293 466 OFFCURVE",
"293 426 CURVE SMOOTH",
"293 401 OFFCURVE",
"304 383 OFFCURVE",
"327 372 CURVE SMOOTH",
"351 360 OFFCURVE",
"386 351 OFFCURVE",
"432 346 CURVE SMOOTH",
"598 328 LINE SMOOTH",
"688 318 OFFCURVE",
"756 294 OFFCURVE",
"801 257 CURVE SMOOTH",
"857 212 OFFCURVE",
"885 142 OFFCURVE",
"885 49 CURVE SMOOTH",
"885 -146 OFFCURVE",
"753 -244 OFFCURVE",
"488 -244 CURVE SMOOTH",
"383 -244 OFFCURVE",
"298 -221 OFFCURVE",
"234 -175 CURVE SMOOTH",
"161 -122 OFFCURVE",
"125 -48 OFFCURVE",
"125 47 CURVE SMOOTH",
"125 149 OFFCURVE",
"179 218 OFFCURVE",
"287 254 CURVE"
);
},
{
closed = 1;
nodes = (
"423 1055 OFFCURVE",
"381 1029 OFFCURVE",
"350 977 CURVE SMOOTH",
"323 930 OFFCURVE",
"309 871 OFFCURVE",
"309 800 CURVE SMOOTH",
"309 745 OFFCURVE",
"317 698 OFFCURVE",
"334 660 CURVE SMOOTH",
"362 597 OFFCURVE",
"410 565 OFFCURVE",
"479 565 CURVE SMOOTH",
"535 565 OFFCURVE",
"578 589 OFFCURVE",
"608 638 CURVE SMOOTH",
"634 681 OFFCURVE",
"647 736 OFFCURVE",
"647 804 CURVE SMOOTH",
"647 887 OFFCURVE",
"626 953 OFFCURVE",
"585 1002 CURVE SMOOTH",
"555 1037 OFFCURVE",
"519 1055 OFFCURVE",
"476 1055 CURVE SMOOTH"
);
},
{
closed = 1;
nodes = (
"329 207 OFFCURVE",
"248 156 OFFCURVE",
"248 54 CURVE SMOOTH",
"248 11 OFFCURVE",
"262 -29 OFFCURVE",
"291 -65 CURVE SMOOTH",
"338 -124 OFFCURVE",
"406 -154 OFFCURVE",
"493 -154 CURVE SMOOTH",
"552 -154 OFFCURVE",
"603 -142 OFFCURVE",
"645 -118 CURVE SMOOTH",
"709 -81 OFFCURVE",
"741 -28 OFFCURVE",
"741 42 CURVE SMOOTH",
"741 152 OFFCURVE",
"657 207 OFFCURVE",
"490 207 CURVE SMOOTH"
);
},
{
closed = 1;
nodes = (
"551 1606 LINE",
"511 1576 OFFCURVE",
"489 1546 OFFCURVE",
"487 1515 CURVE",
"558 1515 OFFCURVE",
"607 1488 OFFCURVE",
"607 1421 CURVE SMOOTH",
"607 1352 OFFCURVE",
"554 1314 OFFCURVE",
"478 1314 CURVE SMOOTH",
"398 1314 OFFCURVE",
"338 1354 OFFCURVE",
"338 1442 CURVE SMOOTH",
"338 1540 OFFCURVE",
"407 1600 OFFCURVE",
"510 1661 CURVE"
);
}
);
vertWidth = 2048;
width = 1024;
}
);
unicode = 0123;
},
{
color = 3;
glyphname = gdotaccent;
lastChange = "2022-04-07 18:22:10 +0000";
layers = (
{
layerId = "4E782664-D0D5-4FED-AFC2-B9212141A2ED";
paths = (
{
closed = 1;
nodes = (
"287 264 LINE",
"212 294 OFFCURVE",
"174 342 OFFCURVE",
"174 407 CURVE SMOOTH",
"174 470 OFFCURVE",
"210 516 OFFCURVE",
"283 543 CURVE",
"212 601 OFFCURVE",
"176 688 OFFCURVE",
"176 804 CURVE SMOOTH",
"176 879 OFFCURVE",
"195 947 OFFCURVE",
"232 1007 CURVE SMOOTH",
"291 1100 OFFCURVE",
"373 1147 OFFCURVE",
"478 1147 CURVE SMOOTH",
"557 1147 OFFCURVE",
"621 1118 OFFCURVE",
"668 1059 CURVE",
"693 1109 OFFCURVE",
"729 1146 OFFCURVE",
"774 1169 CURVE SMOOTH",
"799 1182 OFFCURVE",
"823 1188 OFFCURVE",
"845 1188 CURVE SMOOTH",
"873 1188 OFFCURVE",
"897 1177 OFFCURVE",
"918 1156 CURVE SMOOTH",
"942 1131 OFFCURVE",
"954 1099 OFFCURVE",
"954 1062 CURVE SMOOTH",
"954 1000 OFFCURVE",
"927 969 OFFCURVE",
"873 969 CURVE SMOOTH",
"854 969 OFFCURVE",
"838 975 OFFCURVE",
"824 987 CURVE SMOOTH",
"805 1002 OFFCURVE",
"796 1024 OFFCURVE",
"796 1052 CURVE SMOOTH",
"796 1061 OFFCURVE",
"798 1072 OFFCURVE",
"801 1085 CURVE",
"773 1083 OFFCURVE",
"746 1056 OFFCURVE",
"721 1004 CURVE",
"759 944 OFFCURVE",
"778 877 OFFCURVE",
"778 802 CURVE SMOOTH",
"778 710 OFFCURVE",
"757 636 OFFCURVE",
"716 579 CURVE SMOOTH",
"664 510 OFFCURVE",
"586 475 OFFCURVE",
"482 475 CURVE SMOOTH",
"436 475 OFFCURVE",
"396 481 OFFCURVE",
"361 494 CURVE",
"316 489 OFFCURVE",
"293 466 OFFCURVE",
"293 426 CURVE SMOOTH",
"293 401 OFFCURVE",
"304 383 OFFCURVE",
"327 372 CURVE SMOOTH",
"351 360 OFFCURVE",
"386 351 OFFCURVE",
"432 346 CURVE SMOOTH",
"598 328 LINE SMOOTH",
"688 318 OFFCURVE",
"756 294 OFFCURVE",
"801 257 CURVE SMOOTH",
"857 212 OFFCURVE",
"885 142 OFFCURVE",
"885 49 CURVE SMOOTH",
"885 -146 OFFCURVE",
"753 -244 OFFCURVE",
"488 -244 CURVE SMOOTH",
"383 -244 OFFCURVE",
"298 -221 OFFCURVE",
"234 -175 CURVE SMOOTH",
"161 -122 OFFCURVE",
"125 -48 OFFCURVE",
"125 47 CURVE SMOOTH",
"125 149 OFFCURVE",
"179 218 OFFCURVE",
"287 254 CURVE"
);
},
{
closed = 1;
nodes = (
"423 1055 OFFCURVE",
"381 1029 OFFCURVE",
"350 977 CURVE SMOOTH",
"323 930 OFFCURVE",
"309 871 OFFCURVE",
"309 800 CURVE SMOOTH",
"309 745 OFFCURVE",
"317 698 OFFCURVE",
"334 660 CURVE SMOOTH",
"362 597 OFFCURVE",
"410 565 OFFCURVE",
"479 565 CURVE SMOOTH",
"535 565 OFFCURVE",
"578 589 OFFCURVE",
"608 638 CURVE SMOOTH",
"634 681 OFFCURVE",
"647 736 OFFCURVE",
"647 804 CURVE SMOOTH",
"647 887 OFFCURVE",
"626 953 OFFCURVE",
"585 1002 CURVE SMOOTH",
"555 1037 OFFCURVE",
"519 1055 OFFCURVE",
"476 1055 CURVE SMOOTH"
);
},
{
closed = 1;
nodes = (
"329 207 OFFCURVE",
"248 156 OFFCURVE",
"248 54 CURVE SMOOTH",
"248 11 OFFCURVE",
"262 -29 OFFCURVE",
"291 -65 CURVE SMOOTH",
"338 -124 OFFCURVE",
"406 -154 OFFCURVE",
"493 -154 CURVE SMOOTH",
"552 -154 OFFCURVE",
"603 -142 OFFCURVE",
"645 -118 CURVE SMOOTH",
"709 -81 OFFCURVE",
"741 -28 OFFCURVE",
"741 42 CURVE SMOOTH",
"741 152 OFFCURVE",
"657 207 OFFCURVE",
"490 207 CURVE SMOOTH"
);
},
{
closed = 1;
nodes = (
"505 1596 OFFCURVE",
"529 1589 OFFCURVE",
"552 1575 CURVE SMOOTH",
"598 1548 OFFCURVE",
"621 1507 OFFCURVE",
"621 1454 CURVE SMOOTH",
"621 1418 OFFCURVE",
"609 1386 OFFCURVE",
"584 1359 CURVE SMOOTH",
"556 1328 OFFCURVE",
"521 1313 OFFCURVE",
"478 1313 CURVE SMOOTH",
"455 1313 OFFCURVE",
"433 1319 OFFCURVE",
"412 1330 CURVE SMOOTH",
"363 1357 OFFCURVE",
"338 1399 OFFCURVE",
"338 1455 CURVE SMOOTH",
"338 1494 OFFCURVE",
"352 1528 OFFCURVE",
"381 1556 CURVE SMOOTH",
"408 1583 OFFCURVE",
"441 1596 OFFCURVE",
"480 1596 CURVE SMOOTH"
);
}
);
vertWidth = 2048;
width = 1024;
}
);
unicode = 0121;
},
{
color = 0;
glyphname = idotless;
lastChange = "2022-03-08 17:53:24 +0000";
layers = (
{
layerId = "4E782664-D0D5-4FED-AFC2-B9212141A2ED";
paths = (
{
closed = 1;
nodes = (
"311 0 LINE",
"311 74 LINE",
"368 82 OFFCURVE",
"404 93 OFFCURVE",
"421 106 CURVE SMOOTH",
"442 123 OFFCURVE",
"452 154 OFFCURVE",
"452 197 CURVE SMOOTH",
"452 928 LINE SMOOTH",
"452 965 OFFCURVE",
"444 991 OFFCURVE",
"427 1004 CURVE SMOOTH",
"409 1018 OFFCURVE",
"375 1027 OFFCURVE",
"325 1032 CURVE",
"325 1106 LINE",
"406 1107 OFFCURVE",
"492 1120 OFFCURVE",
"581 1147 CURVE",
"581 197 LINE SMOOTH",
"581 153 OFFCURVE",
"591 123 OFFCURVE",
"610 106 CURVE SMOOTH",
"629 91 OFFCURVE",
"665 80 OFFCURVE",
"718 74 CURVE",
"718 0 LINE"
);
}
);
vertWidth = 2048;
width = 1024;
}
);
unicode = 0131;
},
{
color = 3;
glyphname = ibreve;
lastChange = "2022-04-07 18:22:10 +0000";
layers = (
{
layerId = "4E782664-D0D5-4FED-AFC2-B9212141A2ED";
paths = (
{
closed = 1;
nodes = (
"311 0 LINE",
"311 74 LINE",
"368 82 OFFCURVE",
"404 93 OFFCURVE",
"421 106 CURVE SMOOTH",
"442 123 OFFCURVE",
"452 154 OFFCURVE",
"452 197 CURVE SMOOTH",
"452 928 LINE SMOOTH",
"452 965 OFFCURVE",
"444 991 OFFCURVE",
"427 1004 CURVE SMOOTH",
"409 1018 OFFCURVE",
"375 1027 OFFCURVE",
"325 1032 CURVE",
"325 1106 LINE",
"406 1107 OFFCURVE",
"492 1120 OFFCURVE",
"581 1147 CURVE",
"581 197 LINE SMOOTH",
"581 153 OFFCURVE",
"591 123 OFFCURVE",
"610 106 CURVE SMOOTH",
"629 91 OFFCURVE",
"665 80 OFFCURVE",
"718 74 CURVE",
"718 0 LINE"
);
},
{
closed = 1;
nodes = (
"806 1557 LINE",
"804 1481 OFFCURVE",
"785 1420 OFFCURVE",
"750 1373 CURVE SMOOTH",
"695 1300 OFFCURVE",
"611 1264 OFFCURVE",
"498 1264 CURVE SMOOTH",
"376 1264 OFFCURVE",
"289 1306 OFFCURVE",
"236 1389 CURVE SMOOTH",
"208 1434 OFFCURVE",
"193 1490 OFFCURVE",
"191 1557 CURVE",
"288 1557 LINE",
"303 1444 OFFCURVE",
"373 1387 OFFCURVE",
"499 1387 CURVE SMOOTH",
"624 1387 OFFCURVE",
"694 1444 OFFCURVE",
"709 1557 CURVE"
);
}
);
vertWidth = 2048;
width = 1024;
}
);
unicode = 012D;
},
{
color = 3;
glyphname = ij;
lastChange = "2022-04-07 18:22:10 +0000";
layers = (
{
layerId = "4E782664-D0D5-4FED-AFC2-B9212141A2ED";
paths = (
{
closed = 1;
nodes = (
"334 1653 OFFCURVE",
"357 1646 OFFCURVE",
"378 1633 CURVE SMOOTH",
"417 1608 OFFCURVE",
"437 1572 OFFCURVE",
"437 1526 CURVE SMOOTH",
"437 1493 OFFCURVE",
"425 1464 OFFCURVE",
"402 1439 CURVE SMOOTH",
"377 1412 OFFCURVE",
"347 1399 OFFCURVE",
"310 1399 CURVE SMOOTH",
"289 1399 OFFCURVE",
"269 1404 OFFCURVE",
"250 1414 CURVE SMOOTH",
"205 1439 OFFCURVE",
"183 1476 OFFCURVE",
"183 1526 CURVE SMOOTH",
"183 1565 OFFCURVE",
"198 1597 OFFCURVE",
"227 1622 CURVE SMOOTH",
"251 1643 OFFCURVE",
"279 1653 OFFCURVE",
"310 1653 CURVE SMOOTH"
);
},
{
closed = 1;
nodes = (
"109 200 LINE",
"109 274 LINE",
"166 282 OFFCURVE",
"202 293 OFFCURVE",
"219 306 CURVE SMOOTH",
"240 323 OFFCURVE",
"250 354 OFFCURVE",
"250 397 CURVE SMOOTH",
"250 928 LINE SMOOTH",
"250 965 OFFCURVE",
"242 991 OFFCURVE",
"225 1004 CURVE SMOOTH",
"207 1018 OFFCURVE",
"173 1027 OFFCURVE",
"123 1032 CURVE",
"123 1106 LINE",
"204 1107 OFFCURVE",
"290 1120 OFFCURVE",
"379 1147 CURVE",
"379 397 LINE SMOOTH",
"379 353 OFFCURVE",
"389 323 OFFCURVE",
"408 306 CURVE SMOOTH",
"427 291 OFFCURVE",
"463 280 OFFCURVE",
"516 274 CURVE",
"516 200 LINE"
);
},
{
closed = 1;
nodes = (
"829 1653 OFFCURVE",
"852 1646 OFFCURVE",
"873 1633 CURVE SMOOTH",
"912 1608 OFFCURVE",
"932 1572 OFFCURVE",
"932 1526 CURVE SMOOTH",
"932 1493 OFFCURVE",
"920 1464 OFFCURVE",
"897 1439 CURVE SMOOTH",
"872 1412 OFFCURVE",
"842 1399 OFFCURVE",
"805 1399 CURVE SMOOTH",
"784 1399 OFFCURVE",
"764 1404 OFFCURVE",
"745 1414 CURVE SMOOTH",
"700 1439 OFFCURVE",
"678 1476 OFFCURVE",
"678 1526 CURVE SMOOTH",
"678 1565 OFFCURVE",
"693 1597 OFFCURVE",
"722 1622 CURVE SMOOTH",
"746 1643 OFFCURVE",
"774 1653 OFFCURVE",
"805 1653 CURVE SMOOTH"
);
},
{
closed = 1;
nodes = (
"627 1106 LINE",
"706 1107 OFFCURVE",
"792 1120 OFFCURVE",
"885 1147 CURVE",
"885 272 LINE SMOOTH",
"885 -19 OFFCURVE",
"809 -244 OFFCURVE",
"491 -244 CURVE SMOOTH",
"347 -244 OFFCURVE",
"209 -168 OFFCURVE",
"209 -53 CURVE SMOOTH",
"209 -15 OFFCURVE",
"220 15 OFFCURVE",
"242 36 CURVE SMOOTH",
"261 55 OFFCURVE",
"285 64 OFFCURVE",
"312 64 CURVE SMOOTH",
"351 64 OFFCURVE",
"379 49 OFFCURVE",
"397 19 CURVE SMOOTH",
"407 2 OFFCURVE",
"412 -18 OFFCURVE",
"412 -41 CURVE SMOOTH",
"412 -84 OFFCURVE",
"397 -114 OFFCURVE",
"367 -131 CURVE",
"393 -150 OFFCURVE",
"433 -160 OFFCURVE",
"483 -160 CURVE SMOOTH",
"729 -160 OFFCURVE",
"756 50 OFFCURVE",
"756 274 CURVE SMOOTH",
"756 928 LINE SMOOTH",
"756 963 OFFCURVE",
"746 988 OFFCURVE",
"727 1003 CURVE SMOOTH",
"711 1016 OFFCURVE",
"678 1026 OFFCURVE",
"627 1032 CURVE"
);
}
);
vertWidth = 2048;
width = 1024;
}
);
unicode = 0133;
},
{
color = 3;
glyphname = iogonek;
lastChange = "2022-04-07 18:22:10 +0000";
layers = (
{
background = {
paths = (
{
closed = 1;
nodes = (
"536 1653 OFFCURVE",
"559 1646 OFFCURVE",
"580 1633 CURVE SMOOTH",
"619 1608 OFFCURVE",
"639 1572 OFFCURVE",
"639 1526 CURVE SMOOTH",
"639 1493 OFFCURVE",
"627 1464 OFFCURVE",
"604 1439 CURVE SMOOTH",
"579 1412 OFFCURVE",
"549 1399 OFFCURVE",
"512 1399 CURVE SMOOTH",
"491 1399 OFFCURVE",
"471 1404 OFFCURVE",
"452 1414 CURVE SMOOTH",
"407 1439 OFFCURVE",
"385 1476 OFFCURVE",
"385 1526 CURVE SMOOTH",
"385 1565 OFFCURVE",
"400 1597 OFFCURVE",
"429 1622 CURVE SMOOTH",
"453 1643 OFFCURVE",
"481 1653 OFFCURVE",
"512 1653 CURVE SMOOTH"
);
},
{
closed = 1;
nodes = (
"311 80 LINE",
"311 154 LINE",
"368 162 OFFCURVE",
"404 173 OFFCURVE",
"421 186 CURVE SMOOTH",
"442 203 OFFCURVE",
"452 234 OFFCURVE",
"452 277 CURVE SMOOTH",
"452 928 LINE SMOOTH",
"452 965 OFFCURVE",
"444 991 OFFCURVE",
"427 1004 CURVE SMOOTH",
"409 1018 OFFCURVE",
"375 1027 OFFCURVE",
"325 1032 CURVE",
"325 1106 LINE",
"406 1107 OFFCURVE",
"492 1120 OFFCURVE",
"581 1147 CURVE",
"581 277 LINE SMOOTH",
"581 233 OFFCURVE",
"591 203 OFFCURVE",
"610 186 CURVE SMOOTH",
"629 171 OFFCURVE",
"665 160 OFFCURVE",
"718 154 CURVE",
"718 80 LINE"
);
},
{
closed = 1;
nodes = (
"497 34 OFFCURVE",
"464 -24 OFFCURVE",
"464 -76 CURVE SMOOTH",
"464 -127 OFFCURVE",
"492 -152 OFFCURVE",
"547 -152 CURVE SMOOTH",
"586 -152 OFFCURVE",
"632 -130 OFFCURVE",
"685 -86 CURVE",
"706 -149 LINE",
"637 -211 OFFCURVE",
"567 -242 OFFCURVE",
"497 -242 CURVE SMOOTH",
"389 -242 OFFCURVE",
"335 -198 OFFCURVE",
"335 -109 CURVE SMOOTH",
"335 -37 OFFCURVE",
"380 30 OFFCURVE",
"468 95 CURVE",
"563 97 LINE"
);
}
);
};
layerId = "4E782664-D0D5-4FED-AFC2-B9212141A2ED";
paths = (
{
closed = 1;
nodes = (
"389 -242 OFFCURVE",
"335 -198 OFFCURVE",
"335 -109 CURVE SMOOTH",
"335 -43 OFFCURVE",
"373 20 OFFCURVE",
"449 80 CURVE",
"311 80 LINE",
"311 154 LINE",
"368 162 OFFCURVE",
"404 173 OFFCURVE",
"421 186 CURVE SMOOTH",
"442 203 OFFCURVE",
"452 234 OFFCURVE",
"452 277 CURVE SMOOTH",
"452 928 LINE SMOOTH",
"452 965 OFFCURVE",
"444 991 OFFCURVE",
"427 1004 CURVE SMOOTH",
"409 1018 OFFCURVE",
"375 1027 OFFCURVE",
"325 1032 CURVE",
"325 1106 LINE",
"406 1107 OFFCURVE",
"492 1120 OFFCURVE",
"581 1147 CURVE",
"581 277 LINE SMOOTH",
"581 233 OFFCURVE",
"591 203 OFFCURVE",
"610 186 CURVE SMOOTH",
"629 171 OFFCURVE",
"665 160 OFFCURVE",
"718 154 CURVE",
"718 80 LINE",
"546 80 LINE",
"491 24 OFFCURVE",
"464 -29 OFFCURVE",
"464 -76 CURVE SMOOTH",
"464 -127 OFFCURVE",
"492 -152 OFFCURVE",
"547 -152 CURVE SMOOTH",
"586 -152 OFFCURVE",
"632 -130 OFFCURVE",
"685 -86 CURVE",
"706 -149 LINE",
"637 -211 OFFCURVE",
"567 -242 OFFCURVE",
"497 -242 CURVE SMOOTH"
);
},
{
closed = 1;
nodes = (
"491 1399 OFFCURVE",
"471 1404 OFFCURVE",
"452 1414 CURVE SMOOTH",
"407 1439 OFFCURVE",
"385 1476 OFFCURVE",
"385 1526 CURVE SMOOTH",
"385 1565 OFFCURVE",
"400 1597 OFFCURVE",
"429 1622 CURVE SMOOTH",
"453 1643 OFFCURVE",
"481 1653 OFFCURVE",
"512 1653 CURVE SMOOTH",
"536 1653 OFFCURVE",
"559 1646 OFFCURVE",
"580 1633 CURVE SMOOTH",
"619 1608 OFFCURVE",
"639 1572 OFFCURVE",
"639 1526 CURVE SMOOTH",
"639 1493 OFFCURVE",
"627 1464 OFFCURVE",
"604 1439 CURVE SMOOTH",
"579 1412 OFFCURVE",
"549 1399 OFFCURVE",
"512 1399 CURVE SMOOTH"
);
}
);
vertWidth = 2048;
width = 1024;
}
);
unicode = 012F;
},
{
color = 3;
glyphname = itilde;
lastChange = "2022-04-07 18:22:10 +0000";
layers = (
{
layerId = "4E782664-D0D5-4FED-AFC2-B9212141A2ED";
paths = (
{
closed = 1;
nodes = (
"311 0 LINE",
"311 74 LINE",
"368 82 OFFCURVE",
"404 93 OFFCURVE",
"421 106 CURVE SMOOTH",
"442 123 OFFCURVE",
"452 154 OFFCURVE",
"452 197 CURVE SMOOTH",
"452 928 LINE SMOOTH",
"452 965 OFFCURVE",
"444 991 OFFCURVE",
"427 1004 CURVE SMOOTH",
"409 1018 OFFCURVE",
"375 1027 OFFCURVE",
"325 1032 CURVE",
"325 1106 LINE",
"406 1107 OFFCURVE",
"492 1120 OFFCURVE",
"581 1147 CURVE",
"581 197 LINE SMOOTH",
"581 153 OFFCURVE",
"591 123 OFFCURVE",
"610 106 CURVE SMOOTH",
"629 91 OFFCURVE",
"665 80 OFFCURVE",
"718 74 CURVE",
"718 0 LINE"
);
},
{
closed = 1;
nodes = (
"150 1368 LINE",
"213 1476 OFFCURVE",
"286 1530 OFFCURVE",
"371 1530 CURVE SMOOTH",
"422 1530 OFFCURVE",
"476 1511 OFFCURVE",
"531 1474 CURVE SMOOTH",
"572 1446 OFFCURVE",
"613 1432 OFFCURVE",
"653 1432 CURVE SMOOTH",
"718 1432 OFFCURVE",
"769 1461 OFFCURVE",
"807 1518 CURVE",
"854 1458 LINE",
"791 1351 OFFCURVE",
"718 1297 OFFCURVE",
"634 1297 CURVE SMOOTH",
"583 1297 OFFCURVE",
"533 1313 OFFCURVE",
"484 1346 CURVE SMOOTH",
"435 1379 OFFCURVE",
"390 1395 OFFCURVE",
"351 1395 CURVE SMOOTH",
"286 1395 OFFCURVE",
"235 1366 OFFCURVE",
"197 1309 CURVE"
);
}
);
vertWidth = 2048;
width = 1024;
}
);
unicode = 0129;
},
{
color = 3;
glyphname = kcommaaccent;
lastChange = "2022-04-07 18:22:10 +0000";
layers = (
{
background = {
paths = (
{
closed = 1;
nodes = (
"363 456 LINE",
"363 267 LINE SMOOTH",
"363 224 OFFCURVE",
"368 195 OFFCURVE",
"379 179 CURVE SMOOTH",
"390 162 OFFCURVE",
"414 150 OFFCURVE",
"449 144 CURVE",
"449 70 LINE",
"123 70 LINE",
"123 144 LINE",
"168 152 OFFCURVE",
"198 165 OFFCURVE",
"213 183 CURVE SMOOTH",
"227 200 OFFCURVE",
"234 228 OFFCURVE",
"234 267 CURVE SMOOTH",
"234 1378 LINE SMOOTH",
"234 1415 OFFCURVE",
"226 1441 OFFCURVE",
"211 1454 CURVE SMOOTH",
"194 1469 OFFCURVE",
"165 1478 OFFCURVE",
"123 1483 CURVE",
"123 1557 LINE",
"209 1557 OFFCURVE",
"289 1571 OFFCURVE",
"363 1598 CURVE",
"363 607 LINE",
"604 905 LINE SMOOTH",
"624 933 OFFCURVE",
"635 958 OFFCURVE",
"635 980 CURVE SMOOTH",
"635 999 OFFCURVE",
"626 1012 OFFCURVE",
"608 1018 CURVE SMOOTH",
"595 1023 OFFCURVE",
"576 1027 OFFCURVE",
"551 1032 CURVE",
"551 1106 LINE",
"883 1106 LINE",
"883 1032 LINE",
"829 1022 OFFCURVE",
"772 975 OFFCURVE",
"713 891 CURVE SMOOTH"
);
},
{
closed = 1;
nodes = (
"785 273 LINE SMOOTH",
"827 203 OFFCURVE",
"870 159 OFFCURVE",
"934 144 CURVE",
"934 70 LINE",
"584 70 LINE",
"584 144 LINE",
"633 160 OFFCURVE",
"658 178 OFFCURVE",
"658 199 CURVE SMOOTH",
"658 212 OFFCURVE",
"654 231 OFFCURVE",
"641 254 CURVE SMOOTH",
"456 613 LINE",
"544 712 LINE"
);
},
{
closed = 1;
nodes = (
"456 -191 LINE",
"490 -171 OFFCURVE",
"508 -151 OFFCURVE",
"510 -130 CURVE",
"439 -130 OFFCURVE",
"390 -109 OFFCURVE",
"390 -56 CURVE SMOOTH",
"390 -6 OFFCURVE",
"435 21 OFFCURVE",
"499 21 CURVE SMOOTH",
"568 21 OFFCURVE",
"619 -10 OFFCURVE",
"619 -77 CURVE SMOOTH",
"619 -153 OFFCURVE",
"570 -199 OFFCURVE",
"497 -246 CURVE"
);
}
);
};
layerId = "4E782664-D0D5-4FED-AFC2-B9212141A2ED";
paths = (
{
closed = 1;
nodes = (
"123 144 LINE",
"168 152 OFFCURVE",
"198 165 OFFCURVE",
"213 183 CURVE SMOOTH",
"227 200 OFFCURVE",
"234 228 OFFCURVE",
"234 267 CURVE SMOOTH",
"234 1378 LINE SMOOTH",
"234 1415 OFFCURVE",
"226 1441 OFFCURVE",
"211 1454 CURVE SMOOTH",
"194 1469 OFFCURVE",
"165 1478 OFFCURVE",
"123 1483 CURVE",
"123 1557 LINE",
"209 1557 OFFCURVE",
"289 1571 OFFCURVE",
"363 1598 CURVE",
"363 607 LINE",
"604 905 LINE",
"624 933 OFFCURVE",
"635 958 OFFCURVE",
"635 980 CURVE SMOOTH",
"635 999 OFFCURVE",
"626 1012 OFFCURVE",
"608 1018 CURVE SMOOTH",
"595 1023 OFFCURVE",
"576 1027 OFFCURVE",
"551 1032 CURVE",
"551 1106 LINE",
"883 1106 LINE",
"883 1032 LINE",
"829 1022 OFFCURVE",
"772 975 OFFCURVE",
"713 891 CURVE",
"554 694 LINE",
"785 273 LINE",
"827 203 OFFCURVE",
"870 159 OFFCURVE",
"934 144 CURVE",
"934 70 LINE",
"584 70 LINE",
"584 144 LINE",
"633 160 OFFCURVE",
"658 178 OFFCURVE",
"658 199 CURVE SMOOTH",
"658 212 OFFCURVE",
"654 231 OFFCURVE",
"641 254 CURVE SMOOTH",
"469 588 LINE",
"363 456 LINE",
"363 267 LINE SMOOTH",
"363 224 OFFCURVE",
"368 195 OFFCURVE",
"379 179 CURVE SMOOTH",
"390 162 OFFCURVE",
"414 150 OFFCURVE",
"449 144 CURVE",
"449 70 LINE",
"123 70 LINE"
);
},
{
closed = 1;
nodes = (
"456 -191 LINE",
"490 -171 OFFCURVE",
"508 -151 OFFCURVE",
"510 -130 CURVE",
"439 -130 OFFCURVE",
"390 -109 OFFCURVE",
"390 -56 CURVE SMOOTH",
"390 -6 OFFCURVE",
"435 21 OFFCURVE",
"499 21 CURVE SMOOTH",
"568 21 OFFCURVE",
"619 -10 OFFCURVE",
"619 -77 CURVE SMOOTH",
"619 -153 OFFCURVE",
"570 -199 OFFCURVE",
"497 -246 CURVE"
);
}
);
vertWidth = 2048;
width = 1024;
}
);
unicode = 0137;
},
{
color = 3;
glyphname = kgreenlandic;
lastChange = "2022-04-07 18:22:10 +0000";
layers = (
{
background = {
paths = (
{
closed = 1;
nodes = (
"109 0 LINE",
"109 74 LINE",
"156 82 OFFCURVE",
"186 95 OFFCURVE",
"201 113 CURVE SMOOTH",
"215 130 OFFCURVE",
"222 158 OFFCURVE",
"222 197 CURVE SMOOTH",
"222 944 LINE SMOOTH",
"222 976 OFFCURVE",
"214 997 OFFCURVE",
"199 1008 CURVE SMOOTH",
"182 1020 OFFCURVE",
"152 1028 OFFCURVE",
"111 1032 CURVE",
"111 1106 LINE",
"194 1107 OFFCURVE",
"274 1120 OFFCURVE",
"351 1147 CURVE",
"351 973 LINE",
"373 1022 OFFCURVE",
"402 1062 OFFCURVE",
"438 1092 CURVE SMOOTH",
"483 1129 OFFCURVE",
"531 1147 OFFCURVE",
"583 1147 CURVE SMOOTH",
"690 1147 OFFCURVE",
"764 1084 OFFCURVE",
"804 957 CURVE SMOOTH",
"825 890 OFFCURVE",
"836 803 OFFCURVE",
"836 696 CURVE SMOOTH",
"836 197 LINE SMOOTH",
"836 152 OFFCURVE",
"844 121 OFFCURVE",
"860 104 CURVE SMOOTH",
"876 87 OFFCURVE",
"905 77 OFFCURVE",
"946 74 CURVE",
"946 0 LINE",
"621 0 LINE",
"621 74 LINE",
"654 80 OFFCURVE",
"675 91 OFFCURVE",
"686 106 CURVE SMOOTH",
"699 125 OFFCURVE",
"705 155 OFFCURVE",
"705 197 CURVE SMOOTH",
"705 702 LINE SMOOTH",
"705 919 OFFCURVE",
"657 1028 OFFCURVE",
"560 1028 CURVE SMOOTH",
"526 1028 OFFCURVE",
"491 1010 OFFCURVE",
"456 975 CURVE SMOOTH",
"416 935 OFFCURVE",
"381 876 OFFCURVE",
"351 799 CURVE",
"351 197 LINE SMOOTH",
"351 152 OFFCURVE",
"358 121 OFFCURVE",
"371 104 CURVE SMOOTH",
"382 90 OFFCURVE",
"404 80 OFFCURVE",
"439 74 CURVE",
"439 0 LINE"
);
}
);
};
layerId = "4E782664-D0D5-4FED-AFC2-B9212141A2ED";
paths = (
{
closed = 1;
nodes = (
"123 0 LINE",
"123 74 LINE",
"168 82 OFFCURVE",
"198 95 OFFCURVE",
"213 113 CURVE SMOOTH",
"227 130 OFFCURVE",
"234 158 OFFCURVE",
"234 197 CURVE SMOOTH",
"234 927 LINE SMOOTH",
"234 964 OFFCURVE",
"226 990 OFFCURVE",
"211 1003 CURVE SMOOTH",
"194 1018 OFFCURVE",
"165 1027 OFFCURVE",
"123 1032 CURVE",
"123 1106 LINE",
"209 1106 OFFCURVE",
"289 1120 OFFCURVE",
"363 1147 CURVE",
"363 571 LINE",
"604 905 LINE SMOOTH",
"624 933 OFFCURVE",
"635 958 OFFCURVE",
"635 980 CURVE SMOOTH",
"635 999 OFFCURVE",
"626 1012 OFFCURVE",
"608 1018 CURVE SMOOTH",
"595 1023 OFFCURVE",
"576 1027 OFFCURVE",
"551 1032 CURVE",
"551 1106 LINE",
"883 1106 LINE",
"883 1032 LINE",
"829 1022 OFFCURVE",
"772 975 OFFCURVE",
"713 891 CURVE SMOOTH",
"551 662 LINE",
"785 203 LINE SMOOTH",
"821 132 OFFCURVE",
"870 89 OFFCURVE",
"934 74 CURVE",
"934 0 LINE",
"584 0 LINE",
"584 74 LINE",
"633 90 OFFCURVE",
"658 108 OFFCURVE",
"658 129 CURVE SMOOTH",
"658 142 OFFCURVE",
"652 161 OFFCURVE",
"641 184 CURVE SMOOTH",
"463 563 LINE",
"363 420 LINE",
"363 197 LINE SMOOTH",
"363 154 OFFCURVE",
"368 125 OFFCURVE",
"379 109 CURVE SMOOTH",
"390 92 OFFCURVE",
"414 80 OFFCURVE",
"449 74 CURVE",
"449 0 LINE"
);
}
);
vertWidth = 2048;
width = 1024;
}
);
unicode = 0138;
},
{
color = 3;
glyphname = lcommaaccent;
lastChange = "2022-04-07 18:22:10 +0000";
layers = (
{
background = {
paths = (
{
closed = 1;
nodes = (
"154 1556 LINE",
"531 1556 LINE",
"531 1482 LINE",
"480 1477 OFFCURVE",
"445 1466 OFFCURVE",
"428 1447 CURVE SMOOTH",
"413 1431 OFFCURVE",
"406 1401 OFFCURVE",
"406 1357 CURVE SMOOTH",
"406 285 LINE SMOOTH",
"406 241 OFFCURVE",
"413 211 OFFCURVE",
"428 195 CURVE SMOOTH",
"442 180 OFFCURVE",
"468 172 OFFCURVE",
"506 172 CURVE SMOOTH",
"578 172 LINE SMOOTH",
"699 172 OFFCURVE",
"774 296 OFFCURVE",
"803 545 CURVE",
"871 545 LINE",
"848 70 LINE",
"154 70 LINE",
"154 144 LINE",
"199 149 OFFCURVE",
"231 161 OFFCURVE",
"248 179 CURVE SMOOTH",
"263 194 OFFCURVE",
"271 224 OFFCURVE",
"271 269 CURVE SMOOTH",
"271 1357 LINE SMOOTH",
"271 1406 OFFCURVE",
"263 1438 OFFCURVE",
"246 1454 CURVE SMOOTH",
"231 1469 OFFCURVE",
"200 1478 OFFCURVE",
"154 1482 CURVE"
);
},
{
closed = 1;
nodes = (
"456 -191 LINE",
"490 -171 OFFCURVE",
"508 -151 OFFCURVE",
"510 -130 CURVE",
"439 -130 OFFCURVE",
"390 -109 OFFCURVE",
"390 -56 CURVE SMOOTH",
"390 -6 OFFCURVE",
"435 21 OFFCURVE",
"499 21 CURVE SMOOTH",
"568 21 OFFCURVE",
"619 -10 OFFCURVE",
"619 -77 CURVE SMOOTH",
"619 -153 OFFCURVE",
"570 -199 OFFCURVE",
"497 -246 CURVE"
);
}
);
};
layerId = "4E782664-D0D5-4FED-AFC2-B9212141A2ED";
paths = (
{
closed = 1;
nodes = (
"311 70 LINE",
"311 144 LINE",
"368 152 OFFCURVE",
"404 163 OFFCURVE",
"421 176 CURVE SMOOTH",
"442 193 OFFCURVE",
"452 224 OFFCURVE",
"452 267 CURVE SMOOTH",
"452 1379 LINE SMOOTH",
"452 1416 OFFCURVE",
"444 1441 OFFCURVE",
"427 1454 CURVE SMOOTH",
"409 1469 OFFCURVE",
"375 1478 OFFCURVE",
"325 1483 CURVE",
"325 1557 LINE",
"406 1557 OFFCURVE",
"492 1571 OFFCURVE",
"581 1598 CURVE",
"581 267 LINE SMOOTH",
"581 223 OFFCURVE",
"591 193 OFFCURVE",
"610 176 CURVE SMOOTH",
"629 161 OFFCURVE",
"665 150 OFFCURVE",
"718 144 CURVE",
"718 70 LINE"
);
},
{
closed = 1;
nodes = (
"456 -191 LINE",
"490 -171 OFFCURVE",
"508 -151 OFFCURVE",
"510 -130 CURVE",
"439 -130 OFFCURVE",
"390 -109 OFFCURVE",
"390 -56 CURVE SMOOTH",
"390 -6 OFFCURVE",
"435 21 OFFCURVE",
"499 21 CURVE SMOOTH",
"568 21 OFFCURVE",
"619 -10 OFFCURVE",
"619 -77 CURVE SMOOTH",
"619 -153 OFFCURVE",
"570 -199 OFFCURVE",
"497 -246 CURVE"
);
}
);
vertWidth = 2048;
width = 1024;
}
);
unicode = 013C;
},
{
color = 3;
glyphname = ldot;
lastChange = "2022-04-07 18:22:10 +0000";
layers = (
{
background = {
paths = (
{
closed = 1;
nodes = (
"154 1556 LINE",
"531 1556 LINE",
"531 1482 LINE",
"480 1477 OFFCURVE",
"445 1466 OFFCURVE",
"428 1447 CURVE SMOOTH",
"413 1431 OFFCURVE",
"406 1401 OFFCURVE",
"406 1357 CURVE SMOOTH",
"406 215 LINE SMOOTH",
"406 171 OFFCURVE",
"413 141 OFFCURVE",
"428 125 CURVE SMOOTH",
"442 110 OFFCURVE",
"468 102 OFFCURVE",
"506 102 CURVE SMOOTH",
"578 102 LINE SMOOTH",
"699 102 OFFCURVE",
"774 226 OFFCURVE",
"803 475 CURVE",
"871 475 LINE",
"848 0 LINE",
"154 0 LINE",
"154 74 LINE",
"199 79 OFFCURVE",
"231 91 OFFCURVE",
"248 109 CURVE SMOOTH",
"263 124 OFFCURVE",
"271 154 OFFCURVE",
"271 199 CURVE SMOOTH",
"271 1357 LINE SMOOTH",
"271 1406 OFFCURVE",
"263 1438 OFFCURVE",
"246 1454 CURVE SMOOTH",
"231 1469 OFFCURVE",
"200 1478 OFFCURVE",
"154 1482 CURVE"
);
},
{
closed = 1;
nodes = (
"734 1081 OFFCURVE",
"751 1077 OFFCURVE",
"767 1070 CURVE SMOOTH",
"812 1049 OFFCURVE",
"835 1013 OFFCURVE",
"835 962 CURVE SMOOTH",
"835 929 OFFCURVE",
"823 901 OFFCURVE",
"800 878 CURVE SMOOTH",
"777 855 OFFCURVE",
"748 843 OFFCURVE",
"715 843 CURVE SMOOTH",
"695 843 OFFCURVE",
"676 848 OFFCURVE",
"659 858 CURVE SMOOTH",
"618 881 OFFCURVE",
"597 916 OFFCURVE",
"597 963 CURVE SMOOTH",
"597 998 OFFCURVE",
"610 1027 OFFCURVE",
"636 1050 CURVE SMOOTH",
"658 1071 OFFCURVE",
"685 1081 OFFCURVE",
"717 1081 CURVE SMOOTH"
);
}
);
};
layerId = "4E782664-D0D5-4FED-AFC2-B9212141A2ED";
paths = (
{
closed = 1;
nodes = (
"311 0 LINE",
"311 74 LINE",
"368 82 OFFCURVE",
"404 93 OFFCURVE",
"421 106 CURVE SMOOTH",
"442 123 OFFCURVE",
"452 154 OFFCURVE",
"452 197 CURVE SMOOTH",
"452 1379 LINE SMOOTH",
"452 1416 OFFCURVE",
"444 1441 OFFCURVE",
"427 1454 CURVE SMOOTH",
"409 1469 OFFCURVE",
"375 1478 OFFCURVE",
"325 1483 CURVE",
"325 1557 LINE",
"406 1557 OFFCURVE",
"492 1571 OFFCURVE",
"581 1598 CURVE",
"581 197 LINE SMOOTH",
"581 153 OFFCURVE",
"591 123 OFFCURVE",
"610 106 CURVE SMOOTH",
"629 91 OFFCURVE",
"665 80 OFFCURVE",
"718 74 CURVE",
"718 0 LINE"
);
},
{
closed = 1;
nodes = (
"1039 921 OFFCURVE",
"1056 917 OFFCURVE",
"1072 910 CURVE SMOOTH",
"1117 889 OFFCURVE",
"1140 853 OFFCURVE",
"1140 802 CURVE SMOOTH",
"1140 769 OFFCURVE",
"1128 741 OFFCURVE",
"1105 718 CURVE SMOOTH",
"1082 695 OFFCURVE",
"1053 683 OFFCURVE",
"1020 683 CURVE SMOOTH",
"1000 683 OFFCURVE",
"981 688 OFFCURVE",
"964 698 CURVE SMOOTH",
"923 721 OFFCURVE",
"902 756 OFFCURVE",
"902 803 CURVE SMOOTH",
"902 838 OFFCURVE",
"915 867 OFFCURVE",
"941 890 CURVE SMOOTH",
"963 911 OFFCURVE",
"990 921 OFFCURVE",
"1022 921 CURVE SMOOTH"
);
}
);
vertWidth = 2048;
width = 1024;
}
);
unicode = 0140;
},
{
color = 3;
glyphname = napostrophe;
lastChange = "2022-04-07 18:22:10 +0000";
layers = (
{
layerId = "4E782664-D0D5-4FED-AFC2-B9212141A2ED";
paths = (
{
closed = 1;
nodes = (
"109 0 LINE",
"109 74 LINE",
"156 82 OFFCURVE",
"186 95 OFFCURVE",
"201 113 CURVE SMOOTH",
"215 130 OFFCURVE",
"222 158 OFFCURVE",
"222 197 CURVE SMOOTH",
"222 944 LINE SMOOTH",
"222 976 OFFCURVE",
"214 997 OFFCURVE",
"199 1008 CURVE SMOOTH",
"182 1020 OFFCURVE",
"152 1028 OFFCURVE",
"111 1032 CURVE",
"111 1106 LINE",
"194 1107 OFFCURVE",
"274 1120 OFFCURVE",
"351 1147 CURVE",
"351 973 LINE",
"373 1022 OFFCURVE",
"402 1062 OFFCURVE",
"438 1092 CURVE SMOOTH",
"483 1129 OFFCURVE",
"531 1147 OFFCURVE",
"583 1147 CURVE SMOOTH",
"690 1147 OFFCURVE",
"764 1084 OFFCURVE",
"804 957 CURVE SMOOTH",
"825 890 OFFCURVE",
"836 803 OFFCURVE",
"836 696 CURVE SMOOTH",
"836 197 LINE SMOOTH",
"836 152 OFFCURVE",
"844 121 OFFCURVE",
"860 104 CURVE SMOOTH",
"876 87 OFFCURVE",
"905 77 OFFCURVE",
"946 74 CURVE",
"946 0 LINE",
"621 0 LINE",
"621 74 LINE",
"654 80 OFFCURVE",
"675 91 OFFCURVE",
"686 106 CURVE SMOOTH",
"699 125 OFFCURVE",
"705 155 OFFCURVE",
"705 197 CURVE SMOOTH",
"705 702 LINE SMOOTH",
"705 919 OFFCURVE",
"657 1028 OFFCURVE",
"560 1028 CURVE SMOOTH",
"526 1028 OFFCURVE",
"491 1010 OFFCURVE",
"456 975 CURVE SMOOTH",
"416 935 OFFCURVE",
"381 876 OFFCURVE",
"351 799 CURVE",
"351 197 LINE SMOOTH",
"351 152 OFFCURVE",
"358 121 OFFCURVE",
"371 104 CURVE SMOOTH",
"382 90 OFFCURVE",
"404 80 OFFCURVE",
"439 74 CURVE",
"439 0 LINE"
);
},
{
closed = 1;
nodes = (
"144 1329 LINE",
"184 1366 OFFCURVE",
"206 1402 OFFCURVE",
"208 1440 CURVE",
"137 1440 OFFCURVE",
"88 1470 OFFCURVE",
"88 1544 CURVE SMOOTH",
"88 1619 OFFCURVE",
"141 1661 OFFCURVE",
"217 1661 CURVE SMOOTH",
"297 1661 OFFCURVE",
"357 1621 OFFCURVE",
"357 1533 CURVE SMOOTH",
"357 1417 OFFCURVE",
"288 1346 OFFCURVE",
"185 1274 CURVE"
);
}
);
vertWidth = 2048;
width = 1024;
}
);
unicode = 0149;
},
{
color = 3;
glyphname = ncommaaccent;
lastChange = "2022-04-07 18:22:10 +0000";
layers = (
{
background = {
paths = (
{
closed = 1;
nodes = (
"311 70 LINE",
"311 144 LINE",
"368 152 OFFCURVE",
"404 163 OFFCURVE",
"421 176 CURVE SMOOTH",
"442 193 OFFCURVE",
"452 224 OFFCURVE",
"452 267 CURVE SMOOTH",
"452 1379 LINE SMOOTH",
"452 1416 OFFCURVE",
"444 1441 OFFCURVE",
"427 1454 CURVE SMOOTH",
"409 1469 OFFCURVE",
"375 1478 OFFCURVE",
"325 1483 CURVE",
"325 1557 LINE",
"406 1557 OFFCURVE",
"492 1571 OFFCURVE",
"581 1598 CURVE",
"581 267 LINE SMOOTH",
"581 223 OFFCURVE",
"591 193 OFFCURVE",
"610 176 CURVE SMOOTH",
"629 161 OFFCURVE",
"665 150 OFFCURVE",
"718 144 CURVE",
"718 70 LINE"
);
},
{
closed = 1;
nodes = (
"456 -191 LINE",
"490 -171 OFFCURVE",
"508 -151 OFFCURVE",
"510 -130 CURVE",
"439 -130 OFFCURVE",
"390 -109 OFFCURVE",
"390 -56 CURVE SMOOTH",
"390 -6 OFFCURVE",
"435 21 OFFCURVE",
"499 21 CURVE SMOOTH",
"568 21 OFFCURVE",
"619 -10 OFFCURVE",
"619 -77 CURVE SMOOTH",
"619 -153 OFFCURVE",
"570 -199 OFFCURVE",
"497 -246 CURVE"
);
}
);
};
layerId = "4E782664-D0D5-4FED-AFC2-B9212141A2ED";
paths = (
{
closed = 1;
nodes = (
"109 70 LINE",
"109 144 LINE",
"156 152 OFFCURVE",
"186 165 OFFCURVE",
"201 183 CURVE SMOOTH",
"215 200 OFFCURVE",
"222 228 OFFCURVE",
"222 267 CURVE SMOOTH",
"222 944 LINE SMOOTH",
"222 976 OFFCURVE",
"214 997 OFFCURVE",
"199 1008 CURVE SMOOTH",
"182 1020 OFFCURVE",
"152 1028 OFFCURVE",
"111 1032 CURVE",
"111 1106 LINE",
"194 1107 OFFCURVE",
"274 1120 OFFCURVE",
"351 1147 CURVE",
"351 973 LINE",
"373 1022 OFFCURVE",
"402 1062 OFFCURVE",
"438 1092 CURVE SMOOTH",
"483 1129 OFFCURVE",
"531 1147 OFFCURVE",
"583 1147 CURVE SMOOTH",
"690 1147 OFFCURVE",
"764 1084 OFFCURVE",
"804 957 CURVE SMOOTH",
"825 890 OFFCURVE",
"836 803 OFFCURVE",
"836 696 CURVE SMOOTH",
"836 267 LINE SMOOTH",
"836 222 OFFCURVE",
"844 191 OFFCURVE",
"860 174 CURVE SMOOTH",
"876 157 OFFCURVE",
"905 147 OFFCURVE",
"946 144 CURVE",
"946 70 LINE",
"621 70 LINE",
"621 144 LINE",
"654 150 OFFCURVE",
"675 161 OFFCURVE",
"686 176 CURVE SMOOTH",
"699 195 OFFCURVE",
"705 225 OFFCURVE",
"705 267 CURVE SMOOTH",
"705 702 LINE SMOOTH",
"705 919 OFFCURVE",
"657 1028 OFFCURVE",
"560 1028 CURVE SMOOTH",
"526 1028 OFFCURVE",
"491 1010 OFFCURVE",
"456 975 CURVE SMOOTH",
"416 935 OFFCURVE",
"381 876 OFFCURVE",
"351 799 CURVE",
"351 267 LINE SMOOTH",
"351 222 OFFCURVE",
"358 191 OFFCURVE",
"371 174 CURVE SMOOTH",
"382 160 OFFCURVE",
"404 150 OFFCURVE",
"439 144 CURVE",
"439 70 LINE"
);
},
{
closed = 1;
nodes = (
"476 -191 LINE",
"510 -171 OFFCURVE",
"528 -151 OFFCURVE",
"530 -130 CURVE",
"459 -130 OFFCURVE",
"410 -109 OFFCURVE",
"410 -56 CURVE SMOOTH",
"410 -6 OFFCURVE",
"455 21 OFFCURVE",
"519 21 CURVE SMOOTH",
"588 21 OFFCURVE",
"639 -10 OFFCURVE",
"639 -77 CURVE SMOOTH",
"639 -153 OFFCURVE",
"590 -199 OFFCURVE",
"517 -246 CURVE"
);
}
);
vertWidth = 2048;
width = 1024;
}
);
unicode = 0146;
},
{
color = 3;
glyphname = obreve;
lastChange = "2022-04-07 18:22:10 +0000";
layers = (
{
layerId = "4E782664-D0D5-4FED-AFC2-B9212141A2ED";
paths = (
{
closed = 1;
nodes = (
"612 1147 OFFCURVE",
"696 1096 OFFCURVE",
"765 995 CURVE SMOOTH",
"842 882 OFFCURVE",
"880 733 OFFCURVE",
"880 549 CURVE SMOOTH",
"880 400 OFFCURVE",
"855 273 OFFCURVE",
"804 170 CURVE SMOOTH",
"735 29 OFFCURVE",
"637 -41 OFFCURVE",
"510 -41 CURVE SMOOTH",
"400 -41 OFFCURVE",
"311 15 OFFCURVE",
"242 128 CURVE SMOOTH",
"176 236 OFFCURVE",
"143 376 OFFCURVE",
"143 549 CURVE SMOOTH",
"143 755 OFFCURVE",
"190 915 OFFCURVE",
"283 1029 CURVE SMOOTH",
"348 1108 OFFCURVE",
"424 1147 OFFCURVE",
"513 1147 CURVE SMOOTH"
);
},
{
closed = 1;
nodes = (
"454 1049 OFFCURVE",
"406 1013 OFFCURVE",
"366 941 CURVE SMOOTH",
"315 850 OFFCURVE",
"290 722 OFFCURVE",
"290 555 CURVE SMOOTH",
"290 406 OFFCURVE",
"315 282 OFFCURVE",
"364 184 CURVE SMOOTH",
"407 99 OFFCURVE",
"456 57 OFFCURVE",
"512 57 CURVE SMOOTH",
"561 57 OFFCURVE",
"605 91 OFFCURVE",
"646 160 CURVE SMOOTH",
"704 259 OFFCURVE",
"733 390 OFFCURVE",
"733 553 CURVE SMOOTH",
"733 727 OFFCURVE",
"706 859 OFFCURVE",
"652 950 CURVE SMOOTH",
"613 1016 OFFCURVE",
"566 1049 OFFCURVE",
"511 1049 CURVE SMOOTH"
);
},
{
closed = 1;
nodes = (
"821 1557 LINE",
"819 1481 OFFCURVE",
"800 1420 OFFCURVE",
"765 1373 CURVE SMOOTH",
"710 1300 OFFCURVE",
"626 1264 OFFCURVE",
"513 1264 CURVE SMOOTH",
"391 1264 OFFCURVE",
"304 1306 OFFCURVE",
"251 1389 CURVE SMOOTH",
"223 1434 OFFCURVE",
"208 1490 OFFCURVE",
"206 1557 CURVE",
"303 1557 LINE",
"318 1444 OFFCURVE",
"388 1387 OFFCURVE",
"514 1387 CURVE SMOOTH",
"639 1387 OFFCURVE",
"709 1444 OFFCURVE",
"724 1557 CURVE"
);
}
);
vertWidth = 2048;
width = 1024;
}
);
unicode = 014F;
},
{
color = 3;
glyphname = rcommaaccent;
lastChange = "2022-04-07 18:22:10 +0000";
layers = (
{
background = {
paths = (
{
closed = 1;
nodes = (
"311 70 LINE",
"311 144 LINE",
"368 152 OFFCURVE",
"404 163 OFFCURVE",
"421 176 CURVE SMOOTH",
"442 193 OFFCURVE",
"452 224 OFFCURVE",
"452 267 CURVE SMOOTH",
"452 1379 LINE SMOOTH",
"452 1416 OFFCURVE",
"444 1441 OFFCURVE",
"427 1454 CURVE SMOOTH",
"409 1469 OFFCURVE",
"375 1478 OFFCURVE",
"325 1483 CURVE",
"325 1557 LINE",
"406 1557 OFFCURVE",
"492 1571 OFFCURVE",
"581 1598 CURVE",
"581 267 LINE SMOOTH",
"581 223 OFFCURVE",
"591 193 OFFCURVE",
"610 176 CURVE SMOOTH",
"629 161 OFFCURVE",
"665 150 OFFCURVE",
"718 144 CURVE",
"718 70 LINE"
);
},
{
closed = 1;
nodes = (
"456 -191 LINE",
"490 -171 OFFCURVE",
"508 -151 OFFCURVE",
"510 -130 CURVE",
"439 -130 OFFCURVE",
"390 -109 OFFCURVE",
"390 -56 CURVE SMOOTH",
"390 -6 OFFCURVE",
"435 21 OFFCURVE",
"499 21 CURVE SMOOTH",
"568 21 OFFCURVE",
"619 -10 OFFCURVE",
"619 -77 CURVE SMOOTH",
"619 -153 OFFCURVE",
"570 -199 OFFCURVE",
"497 -246 CURVE"
);
}
);
};
layerId = "4E782664-D0D5-4FED-AFC2-B9212141A2ED";
paths = (
{
closed = 1;
nodes = (
"231 70 LINE",
"231 144 LINE",
"278 150 OFFCURVE",
"309 161 OFFCURVE",
"325 176 CURVE SMOOTH",
"340 191 OFFCURVE",
"348 222 OFFCURVE",
"348 267 CURVE SMOOTH",
"348 928 LINE SMOOTH",
"348 968 OFFCURVE",
"340 995 OFFCURVE",
"323 1010 CURVE SMOOTH",
"309 1022 OFFCURVE",
"279 1029 OFFCURVE",
"233 1032 CURVE",
"233 1106 LINE",
"304 1106 OFFCURVE",
"384 1120 OFFCURVE",
"471 1147 CURVE",
"471 926 LINE",
"501 996 OFFCURVE",
"537 1049 OFFCURVE",
"580 1085 CURVE SMOOTH",
"629 1126 OFFCURVE",
"679 1147 OFFCURVE",
"730 1147 CURVE SMOOTH",
"757 1147 OFFCURVE",
"783 1140 OFFCURVE",
"806 1126 CURVE SMOOTH",
"854 1097 OFFCURVE",
"878 1056 OFFCURVE",
"878 1003 CURVE SMOOTH",
"878 981 OFFCURVE",
"873 961 OFFCURVE",
"864 943 CURVE SMOOTH",
"845 907 OFFCURVE",
"815 889 OFFCURVE",
"773 889 CURVE SMOOTH",
"750 889 OFFCURVE",
"729 896 OFFCURVE",
"711 909 CURVE SMOOTH",
"685 928 OFFCURVE",
"672 954 OFFCURVE",
"672 985 CURVE SMOOTH",
"672 1006 OFFCURVE",
"681 1028 OFFCURVE",
"698 1049 CURVE",
"664 1036 OFFCURVE",
"630 1008 OFFCURVE",
"596 965 CURVE SMOOTH",
"547 902 OFFCURVE",
"508 832 OFFCURVE",
"479 756 CURVE",
"479 267 LINE SMOOTH",
"479 225 OFFCURVE",
"489 195 OFFCURVE",
"508 176 CURVE SMOOTH",
"523 161 OFFCURVE",
"555 150 OFFCURVE",
"604 144 CURVE",
"604 70 LINE"
);
},
{
closed = 1;
nodes = (
"356 -191 LINE",
"390 -171 OFFCURVE",
"408 -151 OFFCURVE",
"410 -130 CURVE",
"339 -130 OFFCURVE",
"290 -109 OFFCURVE",
"290 -56 CURVE SMOOTH",
"290 -6 OFFCURVE",
"335 21 OFFCURVE",
"399 21 CURVE SMOOTH",
"468 21 OFFCURVE",
"519 -10 OFFCURVE",
"519 -77 CURVE SMOOTH",
"519 -153 OFFCURVE",
"470 -199 OFFCURVE",
"397 -246 CURVE"
);
}
);
vertWidth = 2048;
width = 1024;
}
);
unicode = 0157;
},
{
color = 3;
glyphname = longs;
lastChange = "2022-04-07 18:22:10 +0000";
layers = (
{
background = {
paths = (
{
closed = 1;
nodes = (
"379 1258 LINE",
"379 1371 OFFCURVE",
"401 1458 OFFCURVE",
"444 1518 CURVE SMOOTH",
"490 1581 OFFCURVE",
"552 1612 OFFCURVE",
"629 1612 CURVE SMOOTH",
"691 1612 OFFCURVE",
"744 1592 OFFCURVE",
"788 1552 CURVE SMOOTH",
"821 1523 OFFCURVE",
"838 1485 OFFCURVE",
"838 1438 CURVE SMOOTH",
"838 1416 OFFCURVE",
"834 1398 OFFCURVE",
"826 1383 CURVE SMOOTH",
"809 1352 OFFCURVE",
"783 1337 OFFCURVE",
"748 1337 CURVE SMOOTH",
"717 1337 OFFCURVE",
"693 1349 OFFCURVE",
"676 1372 CURVE SMOOTH",
"665 1387 OFFCURVE",
"660 1404 OFFCURVE",
"660 1424 CURVE SMOOTH",
"660 1453 OFFCURVE",
"670 1476 OFFCURVE",
"690 1491 CURVE",
"675 1508 OFFCURVE",
"655 1516 OFFCURVE",
"630 1516 CURVE SMOOTH",
"550 1516 OFFCURVE",
"510 1429 OFFCURVE",
"510 1256 CURVE",
"510 197 LINE",
"510 155 OFFCURVE",
"518 126 OFFCURVE",
"534 109 CURVE SMOOTH",
"551 92 OFFCURVE",
"584 80 OFFCURVE",
"633 74 CURVE",
"633 0 LINE",
"256 0 LINE",
"256 74 LINE",
"306 80 OFFCURVE",
"339 92 OFFCURVE",
"355 109 CURVE SMOOTH",
"371 126 OFFCURVE",
"379 156 OFFCURVE",
"379 197 CURVE"
);
}
);
};
layerId = "4E782664-D0D5-4FED-AFC2-B9212141A2ED";
paths = (
{
closed = 1;
nodes = (
"256 74 LINE",
"306 80 OFFCURVE",
"339 92 OFFCURVE",
"355 109 CURVE SMOOTH",
"371 126 OFFCURVE",
"379 156 OFFCURVE",
"379 197 CURVE SMOOTH",
"379 1258 LINE SMOOTH",
"379 1371 OFFCURVE",
"401 1458 OFFCURVE",
"444 1518 CURVE SMOOTH",
"490 1581 OFFCURVE",
"552 1612 OFFCURVE",
"629 1612 CURVE SMOOTH",
"691 1612 OFFCURVE",
"744 1592 OFFCURVE",
"788 1552 CURVE SMOOTH",
"821 1523 OFFCURVE",
"838 1485 OFFCURVE",
"838 1438 CURVE SMOOTH",
"838 1416 OFFCURVE",
"834 1398 OFFCURVE",
"826 1383 CURVE SMOOTH",
"809 1352 OFFCURVE",
"783 1337 OFFCURVE",
"748 1337 CURVE SMOOTH",
"717 1337 OFFCURVE",
"693 1349 OFFCURVE",
"676 1372 CURVE SMOOTH",
"665 1387 OFFCURVE",
"660 1404 OFFCURVE",
"660 1424 CURVE SMOOTH",
"660 1453 OFFCURVE",
"670 1476 OFFCURVE",
"690 1491 CURVE",
"675 1508 OFFCURVE",
"655 1516 OFFCURVE",
"630 1516 CURVE SMOOTH",
"550 1516 OFFCURVE",
"510 1429 OFFCURVE",
"510 1256 CURVE SMOOTH",
"510 197 LINE SMOOTH",
"510 155 OFFCURVE",
"518 126 OFFCURVE",
"534 109 CURVE SMOOTH",
"551 92 OFFCURVE",
"584 80 OFFCURVE",
"633 74 CURVE",
"633 0 LINE",
"256 0 LINE"
);
}
);
vertWidth = 2048;
width = 1024;
}
);
unicode = 017F;
},
{
color = 3;
glyphname = tbar;
lastChange = "2022-04-07 18:22:10 +0000";
layers = (
{
background = {
paths = (
{
closed = 1;
nodes = (
"184 1008 LINE",
"184 1092 LINE",
"260 1105 OFFCURVE",
"312 1123 OFFCURVE",
"340 1145 CURVE SMOOTH",
"373 1171 OFFCURVE",
"397 1218 OFFCURVE",
"413 1287 CURVE SMOOTH",
"421 1322 OFFCURVE",
"429 1377 OFFCURVE",
"438 1452 CURVE",
"512 1452 LINE",
"512 1106 LINE",
"788 1106 LINE",
"788 1008 LINE",
"512 1008 LINE",
"512 266 LINE SMOOTH",
"512 203 OFFCURVE",
"517 158 OFFCURVE",
"527 132 CURVE SMOOTH",
"538 104 OFFCURVE",
"561 90 OFFCURVE",
"597 90 CURVE SMOOTH",
"644 90 OFFCURVE",
"687 124 OFFCURVE",
"725 191 CURVE",
"774 119 LINE",
"715 16 OFFCURVE",
"644 -35 OFFCURVE",
"562 -35 CURVE SMOOTH",
"501 -35 OFFCURVE",
"454 -9 OFFCURVE",
"421 44 CURVE SMOOTH",
"396 85 OFFCURVE",
"383 158 OFFCURVE",
"383 264 CURVE SMOOTH",
"383 1008 LINE"
);
},
{
closed = 1;
nodes = (
"788 687 LINE",
"788 589 LINE",
"184 589 LINE",
"184 687 LINE"
);
}
);
};
layerId = "4E782664-D0D5-4FED-AFC2-B9212141A2ED";
paths = (
{
closed = 1;
nodes = (
"501 -35 OFFCURVE",
"454 -9 OFFCURVE",
"421 44 CURVE SMOOTH",
"396 85 OFFCURVE",
"383 158 OFFCURVE",
"383 264 CURVE SMOOTH",
"383 589 LINE",
"184 589 LINE",
"184 687 LINE",
"383 687 LINE",
"383 1008 LINE",
"184 1008 LINE",
"184 1092 LINE",
"260 1105 OFFCURVE",
"312 1123 OFFCURVE",
"340 1145 CURVE SMOOTH",
"373 1171 OFFCURVE",
"397 1218 OFFCURVE",
"413 1287 CURVE SMOOTH",
"421 1322 OFFCURVE",
"429 1377 OFFCURVE",
"438 1452 CURVE",
"512 1452 LINE",
"512 1106 LINE",
"788 1106 LINE",
"788 1008 LINE",
"512 1008 LINE",
"512 687 LINE",
"788 687 LINE",
"788 589 LINE",
"512 589 LINE",
"512 266 LINE SMOOTH",
"512 203 OFFCURVE",
"517 158 OFFCURVE",
"527 132 CURVE SMOOTH",
"538 104 OFFCURVE",
"561 90 OFFCURVE",
"597 90 CURVE SMOOTH",
"644 90 OFFCURVE",
"687 124 OFFCURVE",
"725 191 CURVE",
"774 119 LINE",
"715 16 OFFCURVE",
"644 -35 OFFCURVE",
"562 -35 CURVE SMOOTH"
);
}
);
vertWidth = 2048;
width = 1024;
}
);
unicode = 0167;
},
{
color = 3;
glyphname = uogonek;
lastChange = "2022-04-07 18:22:10 +0000";
layers = (
{
background = {
paths = (
{
closed = 1;
nodes = (
"720 110 LINE",
"700 251 LINE",
"679 190 OFFCURVE",
"646 143 OFFCURVE",
"600 110 CURVE SMOOTH",
"561 83 OFFCURVE",
"516 69 OFFCURVE",
"466 69 CURVE SMOOTH",
"385 69 OFFCURVE",
"319 107 OFFCURVE",
"268 184 CURVE SMOOTH",
"229 243 OFFCURVE",
"209 339 OFFCURVE",
"209 470 CURVE SMOOTH",
"209 928 LINE SMOOTH",
"209 962 OFFCURVE",
"201 987 OFFCURVE",
"184 1002 CURVE SMOOTH",
"171 1013 OFFCURVE",
"141 1023 OFFCURVE",
"92 1032 CURVE",
"92 1106 LINE",
"171 1107 OFFCURVE",
"253 1120 OFFCURVE",
"338 1147 CURVE",
"338 477 LINE SMOOTH",
"338 284 OFFCURVE",
"386 188 OFFCURVE",
"483 188 CURVE SMOOTH",
"523 188 OFFCURVE",
"562 209 OFFCURVE",
"599 250 CURVE SMOOTH",
"639 295 OFFCURVE",
"669 357 OFFCURVE",
"690 436 CURVE",
"690 928 LINE SMOOTH",
"690 965 OFFCURVE",
"682 992 OFFCURVE",
"665 1008 CURVE SMOOTH",
"653 1020 OFFCURVE",
"625 1028 OFFCURVE",
"581 1032 CURVE",
"581 1106 LINE",
"663 1107 OFFCURVE",
"743 1120 OFFCURVE",
"821 1147 CURVE",
"821 337 LINE SMOOTH",
"821 281 OFFCURVE",
"828 242 OFFCURVE",
"841 221 CURVE SMOOTH",
"854 200 OFFCURVE",
"881 187 OFFCURVE",
"921 184 CURVE",
"921 110 LINE"
);
},
{
closed = 1;
nodes = (
"728 54 OFFCURVE",
"682 -13 OFFCURVE",
"682 -79 CURVE SMOOTH",
"682 -128 OFFCURVE",
"705 -152 OFFCURVE",
"753 -152 CURVE SMOOTH",
"791 -152 OFFCURVE",
"834 -134 OFFCURVE",
"884 -98 CURVE",
"914 -155 LINE",
"848 -213 OFFCURVE",
"779 -242 OFFCURVE",
"705 -242 CURVE SMOOTH",
"617 -242 OFFCURVE",
"547 -201 OFFCURVE",
"547 -111 CURVE SMOOTH",
"547 -26 OFFCURVE",
"666 93 OFFCURVE",
"756 141 CURVE",
"819 120 LINE"
);
}
);
};
layerId = "4E782664-D0D5-4FED-AFC2-B9212141A2ED";
paths = (
{
closed = 1;
nodes = (
"617 -242 OFFCURVE",
"547 -201 OFFCURVE",
"547 -111 CURVE SMOOTH",
"547 -37 OFFCURVE",
"636 62 OFFCURVE",
"719 118 CURVE",
"700 251 LINE",
"679 190 OFFCURVE",
"646 143 OFFCURVE",
"600 110 CURVE SMOOTH",
"561 83 OFFCURVE",
"516 69 OFFCURVE",
"466 69 CURVE SMOOTH",
"385 69 OFFCURVE",
"319 107 OFFCURVE",
"268 184 CURVE SMOOTH",
"229 243 OFFCURVE",
"209 339 OFFCURVE",
"209 470 CURVE SMOOTH",
"209 928 LINE SMOOTH",
"209 962 OFFCURVE",
"201 987 OFFCURVE",
"184 1002 CURVE SMOOTH",
"171 1013 OFFCURVE",
"141 1023 OFFCURVE",
"92 1032 CURVE",
"92 1106 LINE",
"171 1107 OFFCURVE",
"253 1120 OFFCURVE",
"338 1147 CURVE",
"338 477 LINE SMOOTH",
"338 284 OFFCURVE",
"386 188 OFFCURVE",
"483 188 CURVE SMOOTH",
"523 188 OFFCURVE",
"562 209 OFFCURVE",
"599 250 CURVE SMOOTH",
"639 295 OFFCURVE",
"669 357 OFFCURVE",
"690 436 CURVE",
"690 928 LINE SMOOTH",
"690 965 OFFCURVE",
"682 992 OFFCURVE",
"665 1008 CURVE SMOOTH",
"653 1020 OFFCURVE",
"625 1028 OFFCURVE",
"581 1032 CURVE",
"581 1106 LINE",
"663 1107 OFFCURVE",
"743 1120 OFFCURVE",
"821 1147 CURVE",
"821 337 LINE SMOOTH",
"821 281 OFFCURVE",
"828 242 OFFCURVE",
"841 221 CURVE SMOOTH",
"854 200 OFFCURVE",
"881 187 OFFCURVE",
"921 184 CURVE",
"921 110 LINE",
"806 110 LINE",
"723 47 OFFCURVE",
"682 -16 OFFCURVE",
"682 -79 CURVE SMOOTH",
"682 -128 OFFCURVE",
"705 -152 OFFCURVE",
"753 -152 CURVE SMOOTH",
"791 -152 OFFCURVE",
"834 -134 OFFCURVE",
"884 -98 CURVE",
"914 -155 LINE",
"848 -213 OFFCURVE",
"779 -242 OFFCURVE",
"705 -242 CURVE SMOOTH"
);
}
);
vertWidth = 2048;
width = 1024;
}
);
unicode = 0173;
},
{
color = 3;
glyphname = utilde;
lastChange = "2022-04-07 18:22:10 +0000";
layers = (
{
layerId = "4E782664-D0D5-4FED-AFC2-B9212141A2ED";
paths = (
{
closed = 1;
nodes = (
"720 0 LINE",
"700 141 LINE",
"679 80 OFFCURVE",
"646 33 OFFCURVE",
"600 0 CURVE SMOOTH",
"561 -27 OFFCURVE",
"516 -41 OFFCURVE",
"466 -41 CURVE SMOOTH",
"385 -41 OFFCURVE",
"319 -3 OFFCURVE",
"268 74 CURVE SMOOTH",
"229 133 OFFCURVE",
"209 229 OFFCURVE",
"209 360 CURVE SMOOTH",
"209 928 LINE SMOOTH",
"209 962 OFFCURVE",
"201 987 OFFCURVE",
"184 1002 CURVE SMOOTH",
"171 1013 OFFCURVE",
"141 1023 OFFCURVE",
"92 1032 CURVE",
"92 1106 LINE",
"171 1107 OFFCURVE",
"253 1120 OFFCURVE",
"338 1147 CURVE",
"338 367 LINE SMOOTH",
"338 174 OFFCURVE",
"386 78 OFFCURVE",
"483 78 CURVE SMOOTH",
"523 78 OFFCURVE",
"562 99 OFFCURVE",
"599 140 CURVE SMOOTH",
"639 185 OFFCURVE",
"669 247 OFFCURVE",
"690 326 CURVE",
"690 928 LINE SMOOTH",
"690 965 OFFCURVE",
"682 992 OFFCURVE",
"665 1008 CURVE SMOOTH",
"653 1020 OFFCURVE",
"625 1028 OFFCURVE",
"581 1032 CURVE",
"581 1106 LINE",
"663 1107 OFFCURVE",
"743 1120 OFFCURVE",
"821 1147 CURVE",
"821 227 LINE SMOOTH",
"821 171 OFFCURVE",
"828 132 OFFCURVE",
"841 111 CURVE SMOOTH",
"854 90 OFFCURVE",
"881 77 OFFCURVE",
"921 74 CURVE",
"921 0 LINE"
);
},
{
closed = 1;
nodes = (
"160 1368 LINE",
"223 1476 OFFCURVE",
"296 1530 OFFCURVE",
"381 1530 CURVE SMOOTH",
"432 1530 OFFCURVE",
"486 1511 OFFCURVE",
"541 1474 CURVE SMOOTH",
"582 1446 OFFCURVE",
"623 1432 OFFCURVE",
"663 1432 CURVE SMOOTH",
"728 1432 OFFCURVE",
"779 1461 OFFCURVE",
"817 1518 CURVE",
"864 1458 LINE",
"801 1351 OFFCURVE",
"728 1297 OFFCURVE",
"644 1297 CURVE SMOOTH",
"593 1297 OFFCURVE",
"543 1313 OFFCURVE",
"494 1346 CURVE SMOOTH",
"445 1379 OFFCURVE",
"400 1395 OFFCURVE",
"361 1395 CURVE SMOOTH",
"296 1395 OFFCURVE",
"245 1366 OFFCURVE",
"207 1309 CURVE"
);
}
);
vertWidth = 2048;
width = 1024;
}
);
unicode = 0169;
},
{
color = 3;
glyphname = wcircumflex;
lastChange = "2022-04-07 18:22:10 +0000";
layers = (
{
layerId = "4E782664-D0D5-4FED-AFC2-B9212141A2ED";
paths = (
{
closed = 1;
nodes = (
"35 1106 LINE",
"275 1106 LINE",
"275 1032 LINE",
"240 1019 OFFCURVE",
"222 997 OFFCURVE",
"222 968 CURVE SMOOTH",
"222 959 OFFCURVE",
"223 949 OFFCURVE",
"225 936 CURVE SMOOTH",
"352 244 LINE",
"361 244 LINE",
"465 1000 LINE",
"592 1000 LINE",
"705 244 LINE",
"713 244 LINE",
"821 938 LINE SMOOTH",
"823 953 OFFCURVE",
"825 965 OFFCURVE",
"825 972 CURVE SMOOTH",
"825 1009 OFFCURVE",
"808 1029 OFFCURVE",
"774 1032 CURVE",
"774 1106 LINE",
"985 1106 LINE",
"985 1032 LINE",
"983 1031 OFFCURVE",
"981 1031 OFFCURVE",
"980 1030 CURVE",
"954 1017 OFFCURVE",
"937 1003 OFFCURVE",
"930 989 CURVE SMOOTH",
"923 977 OFFCURVE",
"918 959 OFFCURVE",
"914 934 CURVE SMOOTH",
"750 -20 LINE",
"641 -20 LINE",
"518 739 LINE",
"510 739 LINE",
"402 -20 LINE",
"297 -20 LINE",
"98 936 LINE SMOOTH",
"87 991 OFFCURVE",
"66 1023 OFFCURVE",
"35 1032 CURVE"
);
},
{
closed = 1;
nodes = (
"446 1573 LINE",
"613 1573 LINE",
"874 1270 LINE",
"747 1270 LINE",
"529 1460 LINE",
"312 1270 LINE",
"185 1270 LINE"
);
}
);
vertWidth = 2048;
width = 1024;
}
);
unicode = 0175;
},
{
color = 3;
glyphname = ycircumflex;
lastChange = "2022-04-07 18:22:10 +0000";
layers = (
{
layerId = "4E782664-D0D5-4FED-AFC2-B9212141A2ED";
paths = (
{
closed = 1;
nodes = (
"84 1106 LINE",
"428 1106 LINE",
"428 1032 LINE",
"371 1026 OFFCURVE",
"342 1010 OFFCURVE",
"342 984 CURVE SMOOTH",
"342 971 OFFCURVE",
"347 953 OFFCURVE",
"354 930 CURVE SMOOTH",
"555 299 LINE",
"725 893 LINE SMOOTH",
"734 926 OFFCURVE",
"739 952 OFFCURVE",
"739 973 CURVE SMOOTH",
"739 999 OFFCURVE",
"714 1023 OFFCURVE",
"660 1031 CURVE SMOOTH",
"653 1032 LINE",
"653 1106 LINE",
"950 1106 LINE",
"950 1032 LINE",
"921 1025 OFFCURVE",
"900 1016 OFFCURVE",
"887 1004 CURVE SMOOTH",
"868 988 OFFCURVE",
"850 950 OFFCURVE",
"832 891 CURVE SMOOTH",
"573 57 LINE SMOOTH",
"542 -43 OFFCURVE",
"509 -117 OFFCURVE",
"472 -164 CURVE SMOOTH",
"431 -217 OFFCURVE",
"377 -244 OFFCURVE",
"312 -244 CURVE SMOOTH",
"241 -244 OFFCURVE",
"187 -215 OFFCURVE",
"152 -157 CURVE SMOOTH",
"135 -130 OFFCURVE",
"126 -102 OFFCURVE",
"126 -73 CURVE SMOOTH",
"126 -42 OFFCURVE",
"134 -17 OFFCURVE",
"150 2 CURVE SMOOTH",
"170 27 OFFCURVE",
"197 39 OFFCURVE",
"231 39 CURVE SMOOTH",
"267 39 OFFCURVE",
"295 24 OFFCURVE",
"316 -7 CURVE SMOOTH",
"328 -25 OFFCURVE",
"334 -45 OFFCURVE",
"334 -67 CURVE SMOOTH",
"334 -102 OFFCURVE",
"320 -132 OFFCURVE",
"291 -156 CURVE",
"338 -153 OFFCURVE",
"374 -132 OFFCURVE",
"399 -95 CURVE SMOOTH",
"422 -62 OFFCURVE",
"444 -10 OFFCURVE",
"465 61 CURVE SMOOTH",
"483 123 LINE",
"209 938 LINE SMOOTH",
"191 991 OFFCURVE",
"149 1022 OFFCURVE",
"84 1032 CURVE"
);
},
{
closed = 1;
nodes = (
"456 1573 LINE",
"623 1573 LINE",
"884 1270 LINE",
"757 1270 LINE",
"539 1460 LINE",
"322 1270 LINE",
"195 1270 LINE"
);
}
);
vertWidth = 2048;
width = 1024;
}
);
unicode = 0177;
},
{
color = 3;
glyphname = fi;
lastChange = "2022-04-07 18:22:10 +0000";
layers = (
{
background = {
paths = (
{
closed = 1;
nodes = (
"196 1106 LINE",
"196 1258 LINE SMOOTH",
"196 1457 OFFCURVE",
"314 1612 OFFCURVE",
"586 1612 CURVE SMOOTH",
"731 1612 OFFCURVE",
"872 1538 OFFCURVE",
"872 1418 CURVE SMOOTH",
"872 1347 OFFCURVE",
"827 1297 OFFCURVE",
"752 1297 CURVE SMOOTH",
"677 1297 OFFCURVE",
"624 1346 OFFCURVE",
"624 1414 CURVE SMOOTH",
"624 1447 OFFCURVE",
"634 1474 OFFCURVE",
"654 1491 CURVE",
"635 1508 OFFCURVE",
"603 1516 OFFCURVE",
"567 1516 CURVE SMOOTH",
"407 1516 OFFCURVE",
"327 1429 OFFCURVE",
"327 1256 CURVE SMOOTH",
"327 1106 LINE",
"737 1106 LINE",
"737 1008 LINE",
"327 1008 LINE",
"327 197 LINE SMOOTH",
"327 155 OFFCURVE",
"335 126 OFFCURVE",
"351 109 CURVE SMOOTH",
"368 92 OFFCURVE",
"401 80 OFFCURVE",
"450 74 CURVE",
"450 0 LINE",
"73 0 LINE",
"73 74 LINE",
"123 80 OFFCURVE",
"156 92 OFFCURVE",
"172 109 CURVE SMOOTH",
"188 126 OFFCURVE",
"196 156 OFFCURVE",
"196 197 CURVE SMOOTH",
"196 1008 LINE",
"20 1008 LINE",
"20 1106 LINE"
);
},
{
closed = 1;
nodes = (
"544 0 LINE",
"544 74 LINE",
"601 82 OFFCURVE",
"637 93 OFFCURVE",
"654 106 CURVE SMOOTH",
"675 123 OFFCURVE",
"685 154 OFFCURVE",
"685 197 CURVE SMOOTH",
"685 928 LINE SMOOTH",
"685 988 OFFCURVE",
"653 1008 OFFCURVE",
"558 1008 CURVE",
"558 1106 LINE",
"639 1107 OFFCURVE",
"725 1120 OFFCURVE",
"814 1147 CURVE",
"814 197 LINE SMOOTH",
"814 153 OFFCURVE",
"824 123 OFFCURVE",
"843 106 CURVE SMOOTH",
"862 91 OFFCURVE",
"898 80 OFFCURVE",
"951 74 CURVE",
"951 0 LINE"
);
}
);
};
layerId = "4E782664-D0D5-4FED-AFC2-B9212141A2ED";
paths = (
{
closed = 1;
nodes = (
"73 74 LINE",
"123 80 OFFCURVE",
"156 92 OFFCURVE",
"172 109 CURVE SMOOTH",
"188 126 OFFCURVE",
"196 156 OFFCURVE",
"196 197 CURVE SMOOTH",
"196 1008 LINE",
"20 1008 LINE",
"20 1106 LINE",
"196 1106 LINE",
"196 1258 LINE SMOOTH",
"196 1457 OFFCURVE",
"314 1612 OFFCURVE",
"586 1612 CURVE SMOOTH",
"731 1612 OFFCURVE",
"872 1538 OFFCURVE",
"872 1418 CURVE SMOOTH",
"872 1347 OFFCURVE",
"827 1297 OFFCURVE",
"752 1297 CURVE SMOOTH",
"677 1297 OFFCURVE",
"624 1346 OFFCURVE",
"624 1414 CURVE SMOOTH",
"624 1447 OFFCURVE",
"634 1474 OFFCURVE",
"654 1491 CURVE",
"635 1508 OFFCURVE",
"603 1516 OFFCURVE",
"567 1516 CURVE SMOOTH",
"407 1516 OFFCURVE",
"327 1429 OFFCURVE",
"327 1256 CURVE SMOOTH",
"327 1106 LINE",
"558 1106 LINE SMOOTH",
"639 1107 OFFCURVE",
"725 1120 OFFCURVE",
"814 1147 CURVE",
"814 197 LINE SMOOTH",
"814 153 OFFCURVE",
"824 123 OFFCURVE",
"843 106 CURVE SMOOTH",
"862 91 OFFCURVE",
"898 80 OFFCURVE",
"951 74 CURVE",
"951 0 LINE",
"544 0 LINE",
"544 74 LINE",
"601 82 OFFCURVE",
"637 93 OFFCURVE",
"654 106 CURVE SMOOTH",
"675 123 OFFCURVE",
"685 154 OFFCURVE",
"685 197 CURVE SMOOTH",
"685 928 LINE SMOOTH",
"685 988 OFFCURVE",
"653 1008 OFFCURVE",
"558 1008 CURVE SMOOTH",
"327 1008 LINE",
"327 197 LINE SMOOTH",
"327 155 OFFCURVE",
"335 126 OFFCURVE",
"351 109 CURVE SMOOTH",
"368 92 OFFCURVE",
"401 80 OFFCURVE",
"450 74 CURVE",
"450 0 LINE",
"73 0 LINE"
);
}
);
vertWidth = 2048;
width = 1024;
}
);
unicode = FB01;
},
{
color = 3;
glyphname = fl;
lastChange = "2022-04-07 18:22:10 +0000";
layers = (
{
background = {
paths = (
{
closed = 1;
nodes = (
"824 123 OFFCURVE",
"814 153 OFFCURVE",
"814 197 CURVE SMOOTH",
"814 1598 LINE",
"738 1603 OFFCURVE",
"662 1612 OFFCURVE",
"586 1612 CURVE SMOOTH",
"314 1612 OFFCURVE",
"196 1457 OFFCURVE",
"196 1258 CURVE SMOOTH",
"196 1106 LINE",
"20 1106 LINE",
"20 1008 LINE",
"196 1008 LINE",
"196 197 LINE SMOOTH",
"196 156 OFFCURVE",
"188 126 OFFCURVE",
"172 109 CURVE SMOOTH",
"156 92 OFFCURVE",
"123 80 OFFCURVE",
"73 74 CURVE",
"73 0 LINE",
"450 0 LINE",
"450 74 LINE",
"401 80 OFFCURVE",
"368 92 OFFCURVE",
"351 109 CURVE SMOOTH",
"335 126 OFFCURVE",
"327 155 OFFCURVE",
"327 197 CURVE SMOOTH",
"327 1008 LINE",
"747 1008 LINE",
"747 1106 LINE",
"327 1106 LINE",
"327 1256 LINE SMOOTH",
"327 1429 OFFCURVE",
"407 1516 OFFCURVE",
"567 1516 CURVE SMOOTH",
"646 1516 OFFCURVE",
"685 1490 OFFCURVE",
"685 1413 CURVE SMOOTH",
"685 197 LINE SMOOTH",
"685 154 OFFCURVE",
"675 123 OFFCURVE",
"654 106 CURVE SMOOTH",
"637 93 OFFCURVE",
"601 82 OFFCURVE",
"544 74 CURVE",
"544 0 LINE",
"951 0 LINE",
"951 74 LINE",
"898 80 OFFCURVE",
"862 91 OFFCURVE",
"843 106 CURVE SMOOTH"
);
}
);
};
layerId = "4E782664-D0D5-4FED-AFC2-B9212141A2ED";
paths = (
{
closed = 1;
nodes = (
"73 74 LINE",
"123 80 OFFCURVE",
"156 92 OFFCURVE",
"172 109 CURVE SMOOTH",
"188 126 OFFCURVE",
"196 156 OFFCURVE",
"196 197 CURVE SMOOTH",
"196 1008 LINE",
"20 1008 LINE",
"20 1106 LINE",
"196 1106 LINE",
"196 1258 LINE SMOOTH",
"196 1457 OFFCURVE",
"314 1612 OFFCURVE",
"586 1612 CURVE SMOOTH",
"662 1612 OFFCURVE",
"738 1603 OFFCURVE",
"814 1598 CURVE",
"814 197 LINE SMOOTH",
"814 153 OFFCURVE",
"824 123 OFFCURVE",
"843 106 CURVE SMOOTH",
"862 91 OFFCURVE",
"898 80 OFFCURVE",
"951 74 CURVE",
"951 0 LINE",
"544 0 LINE",
"544 74 LINE",
"601 82 OFFCURVE",
"637 93 OFFCURVE",
"654 106 CURVE SMOOTH",
"675 123 OFFCURVE",
"685 154 OFFCURVE",
"685 197 CURVE SMOOTH",
"685 1008 LINE",
"327 1008 LINE",
"327 197 LINE SMOOTH",
"327 155 OFFCURVE",
"335 126 OFFCURVE",
"351 109 CURVE SMOOTH",
"368 92 OFFCURVE",
"401 80 OFFCURVE",
"450 74 CURVE",
"450 0 LINE",
"73 0 LINE"
);
},
{
closed = 1;
nodes = (
"685 1106 LINE",
"685 1413 LINE SMOOTH",
"685 1490 OFFCURVE",
"646 1516 OFFCURVE",
"567 1516 CURVE SMOOTH",
"407 1516 OFFCURVE",
"327 1429 OFFCURVE",
"327 1256 CURVE SMOOTH",
"327 1106 LINE"
);
}
);
vertWidth = 2048;
width = 1024;
}
);
unicode = FB02;
},
{
color = 4;
glyphname = "Gje-cy";
lastChange = "2022-04-07 18:22:10 +0000";
layers = (
{
layerId = "4E782664-D0D5-4FED-AFC2-B9212141A2ED";
paths = (
{
closed = 1;
nodes = (
"408 1556 LINE",
"1585 1556 LINE",
"1626 1106 LINE",
"1554 1106 LINE",
"1533 1231 OFFCURVE",
"1490 1321 OFFCURVE",
"1425 1376 CURVE SMOOTH",
"1364 1428 OFFCURVE",
"1276 1454 OFFCURVE",
"1161 1454 CURVE SMOOTH",
"985 1454 LINE SMOOTH",
"899 1454 OFFCURVE",
"842 1442 OFFCURVE",
"813 1418 CURVE SMOOTH",
"786 1395 OFFCURVE",
"772 1349 OFFCURVE",
"772 1280 CURVE SMOOTH",
"772 260 LINE SMOOTH",
"772 189 OFFCURVE",
"786 142 OFFCURVE",
"815 117 CURVE SMOOTH",
"842 94 OFFCURVE",
"905 79 OFFCURVE",
"1003 74 CURVE",
"1003 0 LINE",
"408 0 LINE",
"408 74 LINE",
"505 80 OFFCURVE",
"567 97 OFFCURVE",
"594 124 CURVE SMOOTH",
"616 147 OFFCURVE",
"627 193 OFFCURVE",
"627 260 CURVE SMOOTH",
"627 1296 LINE SMOOTH",
"627 1365 OFFCURVE",
"614 1411 OFFCURVE",
"588 1435 CURVE SMOOTH",
"559 1462 OFFCURVE",
"499 1477 OFFCURVE",
"408 1482 CURVE"
);
}
);
vertWidth = 2048;
width = 2048;
}
);
unicode = 0403;
},
{
color = 4;
glyphname = "Gheupturn-cy";
lastChange = "2022-04-07 18:22:10 +0000";
layers = (
{
background = {
paths = (
{
closed = 1;
nodes = (
"1513 1561 OFFCURVE",
"1397 1456 OFFCURVE",
"1161 1456 CURVE SMOOTH",
"408 1456 LINE",
"408 1382 LINE",
"499 1377 OFFCURVE",
"559 1362 OFFCURVE",
"588 1335 CURVE SMOOTH",
"614 1311 OFFCURVE",
"627 1265 OFFCURVE",
"627 1196 CURVE SMOOTH",
"627 260 LINE SMOOTH",
"627 193 OFFCURVE",
"616 147 OFFCURVE",
"594 124 CURVE SMOOTH",
"567 97 OFFCURVE",
"505 80 OFFCURVE",
"408 74 CURVE",
"408 0 LINE",
"1003 0 LINE",
"1003 74 LINE",
"905 79 OFFCURVE",
"842 94 OFFCURVE",
"815 117 CURVE SMOOTH",
"786 142 OFFCURVE",
"772 189 OFFCURVE",
"772 260 CURVE SMOOTH",
"772 1180 LINE SMOOTH",
"772 1249 OFFCURVE",
"786 1295 OFFCURVE",
"813 1318 CURVE SMOOTH",
"842 1342 OFFCURVE",
"899 1354 OFFCURVE",
"985 1354 CURVE SMOOTH",
"1585 1354 LINE",
"1626 1802 LINE",
"1554 1802 LINE"
);
}
);
};
layerId = "4E782664-D0D5-4FED-AFC2-B9212141A2ED";
paths = (
{
closed = 1;
nodes = (
"408 74 LINE",
"505 80 OFFCURVE",
"567 97 OFFCURVE",
"594 124 CURVE SMOOTH",
"616 147 OFFCURVE",
"627 193 OFFCURVE",
"627 260 CURVE SMOOTH",
"627 1196 LINE SMOOTH",
"627 1265 OFFCURVE",
"614 1311 OFFCURVE",
"588 1335 CURVE SMOOTH",
"559 1362 OFFCURVE",
"499 1377 OFFCURVE",
"408 1382 CURVE",
"408 1456 LINE",
"1161 1456 LINE SMOOTH",
"1397 1456 OFFCURVE",
"1513 1561 OFFCURVE",
"1554 1802 CURVE",
"1626 1802 LINE",
"1585 1354 LINE",
"985 1354 LINE SMOOTH",
"899 1354 OFFCURVE",
"842 1342 OFFCURVE",
"813 1318 CURVE SMOOTH",
"786 1295 OFFCURVE",
"772 1249 OFFCURVE",
"772 1180 CURVE SMOOTH",
"772 260 LINE SMOOTH",
"772 189 OFFCURVE",
"786 142 OFFCURVE",
"815 117 CURVE SMOOTH",
"842 94 OFFCURVE",
"905 79 OFFCURVE",
"1003 74 CURVE",
"1003 0 LINE",
"408 0 LINE"
);
}
);
vertWidth = 2048;
width = 2048;
}
);
unicode = 0490;
},
{
color = 4;
glyphname = "Kje-cy";
lastChange = "2022-11-08 20:59:32 +0000";
layers = (
{
background = {
paths = (
{
closed = 1;
nodes = (
"314 1454 LINE",
"711 1454 LINE",
"711 1382 LINE",
"660 1378 OFFCURVE",
"626 1369 OFFCURVE",
"607 1356 CURVE SMOOTH",
"589 1343 OFFCURVE",
"580 1317 OFFCURVE",
"580 1278 CURVE SMOOTH",
"580 176 LINE SMOOTH",
"580 141 OFFCURVE",
"590 115 OFFCURVE",
"611 98 CURVE SMOOTH",
"625 87 OFFCURVE",
"658 79 OFFCURVE",
"711 72 CURVE",
"711 0 LINE",
"314 0 LINE",
"314 72 LINE",
"367 78 OFFCURVE",
"402 88 OFFCURVE",
"419 102 CURVE SMOOTH",
"436 117 OFFCURVE",
"445 141 OFFCURVE",
"445 176 CURVE SMOOTH",
"445 1278 LINE SMOOTH",
"445 1317 OFFCURVE",
"436 1343 OFFCURVE",
"418 1356 CURVE SMOOTH",
"399 1369 OFFCURVE",
"365 1378 OFFCURVE",
"314 1382 CURVE"
);
},
{
closed = 1;
nodes = (
"823 1800 LINE",
"777 1642 OFFCURVE",
"673 1563 OFFCURVE",
"511 1563 CURVE SMOOTH",
"349 1563 OFFCURVE",
"246 1642 OFFCURVE",
"201 1800 CURVE",
"285 1800 LINE",
"320 1719 OFFCURVE",
"396 1678 OFFCURVE",
"512 1678 CURVE SMOOTH",
"627 1678 OFFCURVE",
"702 1719 OFFCURVE",
"739 1800 CURVE"
);
},
{
closed = 1;
nodes = (
"281 1556 LINE",
"833 1556 LINE",
"833 1482 LINE",
"740 1473 OFFCURVE",
"682 1459 OFFCURVE",
"660 1438 CURVE SMOOTH",
"641 1420 OFFCURVE",
"631 1381 OFFCURVE",
"631 1321 CURVE SMOOTH",
"631 747 LINE",
"1300 1382 LINE SMOOTH",
"1315 1396 OFFCURVE",
"1323 1409 OFFCURVE",
"1323 1422 CURVE SMOOTH",
"1323 1437 OFFCURVE",
"1303 1451 OFFCURVE",
"1264 1464 CURVE SMOOTH",
"1235 1473 OFFCURVE",
"1196 1479 OFFCURVE",
"1147 1482 CURVE",
"1147 1556 LINE",
"1700 1556 LINE",
"1700 1482 LINE",
"1636 1475 OFFCURVE",
"1583 1461 OFFCURVE",
"1541 1439 CURVE SMOOTH",
"1508 1422 OFFCURVE",
"1474 1396 OFFCURVE",
"1438 1362 CURVE SMOOTH",
"989 940 LINE",
"1616 203 LINE SMOOTH",
"1675 133 OFFCURVE",
"1755 90 OFFCURVE",
"1855 74 CURVE",
"1855 0 LINE",
"1282 0 LINE",
"1282 74 LINE",
"1398 83 OFFCURVE",
"1456 102 OFFCURVE",
"1456 130 CURVE SMOOTH",
"1456 146 OFFCURVE",
"1446 165 OFFCURVE",
"1427 188 CURVE SMOOTH",
"893 837 LINE",
"631 596 LINE",
"631 235 LINE SMOOTH",
"631 174 OFFCURVE",
"644 133 OFFCURVE",
"669 112 CURVE SMOOTH",
"690 95 OFFCURVE",
"744 83 OFFCURVE",
"833 74 CURVE",
"833 0 LINE",
"281 0 LINE",
"281 74 LINE",
"374 82 OFFCURVE",
"432 97 OFFCURVE",
"454 118 CURVE SMOOTH",
"474 137 OFFCURVE",
"484 176 OFFCURVE",
"484 235 CURVE SMOOTH",
"484 1321 LINE SMOOTH",
"484 1382 OFFCURVE",
"473 1422 OFFCURVE",
"451 1441 CURVE SMOOTH",
"427 1462 OFFCURVE",
"370 1476 OFFCURVE",
"281 1482 CURVE"
);
}
);
};
layerId = "4E782664-D0D5-4FED-AFC2-B9212141A2ED";
paths = (
{
closed = 1;
nodes = (
"833 0 LINE",
"833 74 LINE",
"744 83 OFFCURVE",
"690 95 OFFCURVE",
"669 112 CURVE SMOOTH",
"644 133 OFFCURVE",
"631 174 OFFCURVE",
"631 235 CURVE SMOOTH",
"631 655 LINE",
"732 660 OFFCURVE",
"832 681 OFFCURVE",
"930 716 CURVE",
"974 739 LINE",
"1427 188 LINE SMOOTH",
"1446 165 OFFCURVE",
"1456 146 OFFCURVE",
"1456 130 CURVE SMOOTH",
"1456 102 OFFCURVE",
"1398 83 OFFCURVE",
"1282 74 CURVE",
"1282 0 LINE",
"1855 0 LINE",
"1855 74 LINE",
"1755 90 OFFCURVE",
"1675 133 OFFCURVE",
"1616 203 CURVE SMOOTH",
"1094 815 LINE",
"1197 904 OFFCURVE",
"1277 1034 OFFCURVE",
"1335 1206 CURVE SMOOTH",
"1356 1270 OFFCURVE",
"1381 1318 OFFCURVE",
"1410 1351 CURVE SMOOTH",
"1441 1387 OFFCURVE",
"1483 1405 OFFCURVE",
"1534 1405 CURVE",
"1511 1379 OFFCURVE",
"1499 1348 OFFCURVE",
"1499 1312 CURVE SMOOTH",
"1499 1277 OFFCURVE",
"1511 1250 OFFCURVE",
"1535 1229 CURVE SMOOTH",
"1556 1211 OFFCURVE",
"1583 1202 OFFCURVE",
"1614 1202 CURVE SMOOTH",
"1659 1202 OFFCURVE",
"1693 1220 OFFCURVE",
"1715 1256 CURVE SMOOTH",
"1728 1279 OFFCURVE",
"1735 1304 OFFCURVE",
"1735 1331 CURVE SMOOTH",
"1735 1384 OFFCURVE",
"1708 1426 OFFCURVE",
"1655 1459 CURVE SMOOTH",
"1614 1484 OFFCURVE",
"1568 1496 OFFCURVE",
"1515 1496 CURVE SMOOTH",
"1386 1496 OFFCURVE",
"1294 1413 OFFCURVE",
"1237 1247 CURVE SMOOTH",
"1166 1040 OFFCURVE",
"1064 901 OFFCURVE",
"930 831 CURVE SMOOTH",
"856 792 OFFCURVE",
"756 768 OFFCURVE",
"631 758 CURVE",
"631 1221 LINE SMOOTH",
"631 1281 OFFCURVE",
"641 1320 OFFCURVE",
"660 1338 CURVE SMOOTH",
"682 1359 OFFCURVE",
"740 1373 OFFCURVE",
"833 1382 CURVE",
"833 1456 LINE",
"281 1456 LINE",
"281 1382 LINE",
"370 1376 OFFCURVE",
"427 1362 OFFCURVE",
"451 1341 CURVE SMOOTH",
"473 1322 OFFCURVE",
"484 1282 OFFCURVE",
"484 1221 CURVE SMOOTH",
"484 235 LINE SMOOTH",
"484 176 OFFCURVE",
"474 137 OFFCURVE",
"454 118 CURVE SMOOTH",
"432 97 OFFCURVE",
"374 82 OFFCURVE",
"281 74 CURVE",
"281 0 LINE"
);
},
{
closed = 1;
nodes = (
"1292 1659 LINE",
"1229 1800 LINE",
"754 1628 LINE",
"782 1563 LINE"
);
}
);
vertWidth = 2048;
width = 2048;
}
);
unicode = 040C;
},
{
color = 4;
glyphname = "Ushort-cy";
lastChange = "2022-04-07 18:22:10 +0000";
layers = (
{
background = {
paths = (
{
closed = 1;
nodes = (
"631 546 LINE",
"631 235 LINE SMOOTH",
"631 174 OFFCURVE",
"644 133 OFFCURVE",
"669 112 CURVE SMOOTH",
"690 95 OFFCURVE",
"744 83 OFFCURVE",
"833 74 CURVE",
"833 0 LINE",
"281 0 LINE",
"281 74 LINE",
"374 82 OFFCURVE",
"432 97 OFFCURVE",
"454 118 CURVE SMOOTH",
"474 137 OFFCURVE",
"484 176 OFFCURVE",
"484 235 CURVE SMOOTH",
"484 1221 LINE SMOOTH",
"484 1282 OFFCURVE",
"473 1322 OFFCURVE",
"451 1341 CURVE SMOOTH",
"427 1362 OFFCURVE",
"370 1376 OFFCURVE",
"281 1382 CURVE",
"281 1456 LINE",
"833 1456 LINE",
"833 1382 LINE",
"740 1373 OFFCURVE",
"682 1359 OFFCURVE",
"660 1338 CURVE SMOOTH",
"641 1320 OFFCURVE",
"631 1281 OFFCURVE",
"631 1221 CURVE SMOOTH",
"631 697 LINE",
"1300 1282 LINE SMOOTH",
"1316 1296 OFFCURVE",
"1323 1309 OFFCURVE",
"1323 1322 CURVE SMOOTH",
"1323 1337 OFFCURVE",
"1303 1351 OFFCURVE",
"1264 1364 CURVE SMOOTH",
"1235 1373 OFFCURVE",
"1196 1379 OFFCURVE",
"1147 1382 CURVE",
"1147 1456 LINE",
"1700 1456 LINE",
"1700 1382 LINE",
"1636 1375 OFFCURVE",
"1583 1361 OFFCURVE",
"1541 1339 CURVE SMOOTH",
"1508 1322 OFFCURVE",
"1475 1295 OFFCURVE",
"1438 1262 CURVE SMOOTH"
);
},
{
closed = 1;
nodes = (
"1616 203 LINE SMOOTH",
"1678 136 OFFCURVE",
"1755 90 OFFCURVE",
"1855 74 CURVE",
"1855 0 LINE",
"1282 0 LINE",
"1282 74 LINE",
"1398 83 OFFCURVE",
"1456 102 OFFCURVE",
"1456 130 CURVE SMOOTH",
"1456 146 OFFCURVE",
"1447 166 OFFCURVE",
"1427 188 CURVE SMOOTH",
"882 799 LINE",
"978 902 LINE"
);
},
{
closed = 1;
nodes = (
"1162 1642 OFFCURVE",
"1145 1667 OFFCURVE",
"1145 1708 CURVE SMOOTH",
"1145 1745 OFFCURVE",
"1161 1772 OFFCURVE",
"1192 1789 CURVE SMOOTH",
"1206 1796 OFFCURVE",
"1221 1800 OFFCURVE",
"1237 1800 CURVE SMOOTH",
"1268 1800 OFFCURVE",
"1293 1786 OFFCURVE",
"1312 1757 CURVE SMOOTH",
"1322 1741 OFFCURVE",
"1327 1724 OFFCURVE",
"1327 1705 CURVE SMOOTH",
"1327 1652 OFFCURVE",
"1301 1606 OFFCURVE",
"1249 1569 CURVE SMOOTH",
"1185 1522 OFFCURVE",
"1101 1499 OFFCURVE",
"998 1499 CURVE SMOOTH",
"911 1499 OFFCURVE",
"837 1517 OFFCURVE",
"776 1552 CURVE SMOOTH",
"707 1591 OFFCURVE",
"672 1641 OFFCURVE",
"672 1702 CURVE SMOOTH",
"672 1737 OFFCURVE",
"685 1763 OFFCURVE",
"710 1782 CURVE SMOOTH",
"726 1794 OFFCURVE",
"743 1800 OFFCURVE",
"762 1800 CURVE SMOOTH",
"789 1800 OFFCURVE",
"812 1790 OFFCURVE",
"830 1770 CURVE SMOOTH",
"846 1753 OFFCURVE",
"854 1732 OFFCURVE",
"854 1709 CURVE SMOOTH",
"854 1667 OFFCURVE",
"837 1642 OFFCURVE",
"802 1635 CURVE",
"847 1602 OFFCURVE",
"912 1585 OFFCURVE",
"997 1585 CURVE SMOOTH",
"1085 1585 OFFCURVE",
"1151 1602 OFFCURVE",
"1196 1635 CURVE"
);
},
{
closed = 1;
nodes = (
"295 1556 LINE",
"909 1556 LINE",
"909 1482 LINE",
"819 1479 OFFCURVE",
"760 1471 OFFCURVE",
"731 1458 CURVE SMOOTH",
"708 1447 OFFCURVE",
"696 1431 OFFCURVE",
"696 1410 CURVE SMOOTH",
"696 1397 OFFCURVE",
"701 1381 OFFCURVE",
"711 1364 CURVE SMOOTH",
"1112 649 LINE",
"1434 1349 LINE SMOOTH",
"1442 1367 OFFCURVE",
"1446 1384 OFFCURVE",
"1446 1400 CURVE SMOOTH",
"1446 1450 OFFCURVE",
"1378 1477 OFFCURVE",
"1243 1482 CURVE",
"1243 1556 LINE",
"1782 1556 LINE",
"1782 1482 LINE",
"1714 1477 OFFCURVE",
"1662 1462 OFFCURVE",
"1627 1436 CURVE SMOOTH",
"1598 1416 OFFCURVE",
"1574 1386 OFFCURVE",
"1555 1347 CURVE SMOOTH",
"1550 1338 OFFCURVE",
"1054 299 OFFCURVE",
"1033 263 CURVE SMOOTH",
"921 72 OFFCURVE",
"831 -39 OFFCURVE",
"649 -39 CURVE SMOOTH",
"485 -39 OFFCURVE",
"356 73 OFFCURVE",
"356 231 CURVE SMOOTH",
"356 259 OFFCURVE",
"363 283 OFFCURVE",
"376 304 CURVE SMOOTH",
"398 339 OFFCURVE",
"430 356 OFFCURVE",
"472 356 CURVE SMOOTH",
"491 356 OFFCURVE",
"508 352 OFFCURVE",
"524 344 CURVE SMOOTH",
"565 323 OFFCURVE",
"586 290 OFFCURVE",
"586 243 CURVE SMOOTH",
"586 184 OFFCURVE",
"555 147 OFFCURVE",
"494 133 CURVE",
"521 88 OFFCURVE",
"570 65 OFFCURVE",
"643 65 CURVE SMOOTH",
"775 65 OFFCURVE",
"858 185 OFFCURVE",
"952 350 CURVE SMOOTH",
"981 401 OFFCURVE",
"1006 451 OFFCURVE",
"1026 500 CURVE",
"561 1343 LINE SMOOTH",
"535 1390 OFFCURVE",
"501 1425 OFFCURVE",
"458 1446 CURVE SMOOTH",
"419 1465 OFFCURVE",
"365 1477 OFFCURVE",
"295 1482 CURVE"
);
}
);
};
layerId = "4E782664-D0D5-4FED-AFC2-B9212141A2ED";
paths = (
{
closed = 1;
nodes = (
"561 1243 LINE SMOOTH",
"534 1290 OFFCURVE",
"501 1325 OFFCURVE",
"458 1346 CURVE SMOOTH",
"419 1365 OFFCURVE",
"365 1377 OFFCURVE",
"295 1382 CURVE",
"295 1456 LINE",
"909 1456 LINE",
"909 1382 LINE",
"819 1379 OFFCURVE",
"760 1371 OFFCURVE",
"731 1358 CURVE SMOOTH",
"708 1347 OFFCURVE",
"696 1331 OFFCURVE",
"696 1310 CURVE SMOOTH",
"696 1297 OFFCURVE",
"701 1281 OFFCURVE",
"711 1264 CURVE SMOOTH",
"1121 576 LINE",
"1034 426 LINE"
);
},
{
closed = 1;
nodes = (
"1434 1249 LINE",
"1444 1267 OFFCURVE",
"1446 1284 OFFCURVE",
"1446 1300 CURVE SMOOTH",
"1446 1350 OFFCURVE",
"1378 1377 OFFCURVE",
"1243 1382 CURVE",
"1243 1456 LINE",
"1782 1456 LINE",
"1782 1382 LINE",
"1714 1377 OFFCURVE",
"1662 1362 OFFCURVE",
"1627 1336 CURVE SMOOTH",
"1598 1316 OFFCURVE",
"1574 1286 OFFCURVE",
"1555 1247 CURVE SMOOTH",
"1550 1238 OFFCURVE",
"1064 299 OFFCURVE",
"1043 263 CURVE SMOOTH",
"930 71 OFFCURVE",
"836 -39 OFFCURVE",
"649 -39 CURVE SMOOTH",
"485 -39 OFFCURVE",
"356 73 OFFCURVE",
"356 231 CURVE SMOOTH",
"356 259 OFFCURVE",
"363 283 OFFCURVE",
"376 304 CURVE SMOOTH",
"398 339 OFFCURVE",
"430 356 OFFCURVE",
"472 356 CURVE SMOOTH",
"491 356 OFFCURVE",
"508 352 OFFCURVE",
"524 344 CURVE SMOOTH",
"565 323 OFFCURVE",
"586 290 OFFCURVE",
"586 243 CURVE SMOOTH",
"586 184 OFFCURVE",
"555 147 OFFCURVE",
"494 133 CURVE",
"521 88 OFFCURVE",
"570 65 OFFCURVE",
"643 65 CURVE SMOOTH",
"779 65 OFFCURVE",
"865 185 OFFCURVE",
"962 350 CURVE"
);
},
{
closed = 1;
nodes = (
"1232 1642 OFFCURVE",
"1215 1667 OFFCURVE",
"1215 1708 CURVE SMOOTH",
"1215 1745 OFFCURVE",
"1231 1772 OFFCURVE",
"1262 1789 CURVE SMOOTH",
"1276 1796 OFFCURVE",
"1291 1800 OFFCURVE",
"1307 1800 CURVE SMOOTH",
"1338 1800 OFFCURVE",
"1363 1786 OFFCURVE",
"1382 1757 CURVE SMOOTH",
"1392 1741 OFFCURVE",
"1397 1724 OFFCURVE",
"1397 1705 CURVE SMOOTH",
"1397 1652 OFFCURVE",
"1371 1606 OFFCURVE",
"1319 1569 CURVE SMOOTH",
"1255 1522 OFFCURVE",
"1171 1499 OFFCURVE",
"1068 1499 CURVE SMOOTH",
"981 1499 OFFCURVE",
"907 1517 OFFCURVE",
"846 1552 CURVE SMOOTH",
"777 1591 OFFCURVE",
"742 1641 OFFCURVE",
"742 1702 CURVE SMOOTH",
"742 1737 OFFCURVE",
"755 1763 OFFCURVE",
"780 1782 CURVE SMOOTH",
"796 1794 OFFCURVE",
"813 1800 OFFCURVE",
"832 1800 CURVE SMOOTH",
"859 1800 OFFCURVE",
"882 1790 OFFCURVE",
"900 1770 CURVE SMOOTH",
"916 1753 OFFCURVE",
"924 1732 OFFCURVE",
"924 1709 CURVE SMOOTH",
"924 1667 OFFCURVE",
"907 1642 OFFCURVE",
"872 1635 CURVE",
"917 1602 OFFCURVE",
"982 1585 OFFCURVE",
"1067 1585 CURVE SMOOTH",
"1155 1585 OFFCURVE",
"1221 1602 OFFCURVE",
"1266 1635 CURVE"
);
}
);
vertWidth = 2048;
width = 2048;
}
);
unicode = 040E;
},
{
color = 4;
glyphname = "Dzhe-cy";
lastChange = "2022-04-07 18:22:10 +0000";
layers = (
{
background = {
paths = (
{
closed = 1;
nodes = (
"1807 0 LINE",
"1807 73 LINE",
"1716 78 OFFCURVE",
"1659 91 OFFCURVE",
"1635 112 CURVE SMOOTH",
"1614 131 OFFCURVE",
"1604 172 OFFCURVE",
"1604 235 CURVE SMOOTH",
"1604 1320 LINE SMOOTH",
"1604 1385 OFFCURVE",
"1614 1426 OFFCURVE",
"1635 1443 CURVE SMOOTH",
"1658 1464 OFFCURVE",
"1716 1477 OFFCURVE",
"1807 1482 CURVE",
"1807 1556 LINE",
"1254 1556 LINE",
"1254 1482 LINE",
"1351 1476 OFFCURVE",
"1410 1462 OFFCURVE",
"1431 1440 CURVE SMOOTH",
"1450 1421 OFFCURVE",
"1459 1381 OFFCURVE",
"1459 1320 CURVE SMOOTH",
"1459 252 LINE SMOOTH",
"1459 191 OFFCURVE",
"1448 151 OFFCURVE",
"1426 131 CURVE SMOOTH",
"1405 112 OFFCURVE",
"1355 102 OFFCURVE",
"1276 102 CURVE SMOOTH",
"772 102 LINE SMOOTH",
"693 102 OFFCURVE",
"644 112 OFFCURVE",
"623 131 CURVE SMOOTH",
"601 150 OFFCURVE",
"590 191 OFFCURVE",
"590 252 CURVE SMOOTH",
"590 1320 LINE SMOOTH",
"590 1394 OFFCURVE",
"606 1439 OFFCURVE",
"637 1455 CURVE SMOOTH",
"662 1468 OFFCURVE",
"715 1477 OFFCURVE",
"795 1482 CURVE",
"795 1556 LINE",
"242 1556 LINE",
"242 1482 LINE",
"336 1477 OFFCURVE",
"394 1463 OFFCURVE",
"417 1440 CURVE SMOOTH",
"436 1423 OFFCURVE",
"445 1383 OFFCURVE",
"445 1320 CURVE SMOOTH",
"445 235 LINE SMOOTH",
"445 188 OFFCURVE",
"441 157 OFFCURVE",
"433 140 CURVE SMOOTH",
"420 111 OFFCURVE",
"390 92 OFFCURVE",
"343 83 CURVE SMOOTH",
"320 79 OFFCURVE",
"287 76 OFFCURVE",
"242 73 CURVE",
"242 0 LINE"
);
},
{
closed = 1;
nodes = (
"1064 -244 LINE",
"1075 -105 OFFCURVE",
"1134 0 OFFCURVE",
"1239 0 CURVE",
"1024 68 LINE",
"809 0 LINE",
"914 0 OFFCURVE",
"973 -105 OFFCURVE",
"984 -244 CURVE"
);
}
);
};
layerId = "4E782664-D0D5-4FED-AFC2-B9212141A2ED";
paths = (
{
closed = 1;
nodes = (
"973 -105 OFFCURVE",
"914 0 OFFCURVE",
"809 0 CURVE SMOOTH",
"242 0 LINE",
"242 73 LINE",
"287 76 OFFCURVE",
"320 79 OFFCURVE",
"343 83 CURVE SMOOTH",
"390 92 OFFCURVE",
"420 111 OFFCURVE",
"433 140 CURVE SMOOTH",
"441 157 OFFCURVE",
"445 188 OFFCURVE",
"445 235 CURVE SMOOTH",
"445 1320 LINE SMOOTH",
"445 1383 OFFCURVE",
"436 1423 OFFCURVE",
"417 1440 CURVE SMOOTH",
"394 1463 OFFCURVE",
"336 1477 OFFCURVE",
"242 1482 CURVE",
"242 1556 LINE",
"795 1556 LINE",
"795 1482 LINE",
"715 1477 OFFCURVE",
"662 1468 OFFCURVE",
"637 1455 CURVE SMOOTH",
"606 1439 OFFCURVE",
"590 1394 OFFCURVE",
"590 1320 CURVE SMOOTH",
"590 252 LINE SMOOTH",
"590 191 OFFCURVE",
"601 150 OFFCURVE",
"623 131 CURVE SMOOTH",
"644 112 OFFCURVE",
"693 102 OFFCURVE",
"772 102 CURVE SMOOTH",
"1276 102 LINE SMOOTH",
"1355 102 OFFCURVE",
"1405 112 OFFCURVE",
"1426 131 CURVE SMOOTH",
"1448 151 OFFCURVE",
"1459 191 OFFCURVE",
"1459 252 CURVE SMOOTH",
"1459 1320 LINE SMOOTH",
"1459 1381 OFFCURVE",
"1450 1421 OFFCURVE",
"1431 1440 CURVE SMOOTH",
"1410 1462 OFFCURVE",
"1351 1476 OFFCURVE",
"1254 1482 CURVE",
"1254 1556 LINE",
"1807 1556 LINE",
"1807 1482 LINE",
"1716 1477 OFFCURVE",
"1658 1464 OFFCURVE",
"1635 1443 CURVE SMOOTH",
"1614 1426 OFFCURVE",
"1604 1385 OFFCURVE",
"1604 1320 CURVE SMOOTH",
"1604 235 LINE SMOOTH",
"1604 172 OFFCURVE",
"1614 131 OFFCURVE",
"1635 112 CURVE SMOOTH",
"1659 91 OFFCURVE",
"1716 78 OFFCURVE",
"1807 73 CURVE",
"1807 0 LINE",
"1239 0 LINE SMOOTH",
"1134 0 OFFCURVE",
"1075 -105 OFFCURVE",
"1064 -244 CURVE",
"984 -244 LINE"
);
}
);
vertWidth = 2048;
width = 2048;
}
);
unicode = 040F;
},
{
color = 4;
glyphname = "Lje-cy";
lastChange = "2022-04-07 18:22:10 +0000";
layers = (
{
background = {
paths = (
{
closed = 1;
nodes = (
"1289 785 LINE",
"1289 252 LINE SMOOTH",
"1289 193 OFFCURVE",
"1302 153 OFFCURVE",
"1328 133 CURVE SMOOTH",
"1355 113 OFFCURVE",
"1409 103 OFFCURVE",
"1492 103 CURVE SMOOTH",
"1505 103 LINE SMOOTH",
"1721 103 OFFCURVE",
"1868 183 OFFCURVE",
"1868 446 CURVE SMOOTH",
"1868 672 OFFCURVE",
"1744 785 OFFCURVE",
"1496 785 CURVE SMOOTH"
);
},
{
closed = 1;
nodes = (
"1289 887 LINE",
"1496 887 LINE SMOOTH",
"1798 887 OFFCURVE",
"2040 766 OFFCURVE",
"2040 446 CURVE SMOOTH",
"2040 122 OFFCURVE",
"1839 0 OFFCURVE",
"1546 0 CURVE SMOOTH",
"937 0 LINE",
"937 74 LINE",
"1034 80 OFFCURVE",
"1093 94 OFFCURVE",
"1114 116 CURVE SMOOTH",
"1133 135 OFFCURVE",
"1142 175 OFFCURVE",
"1142 236 CURVE SMOOTH",
"1142 962 LINE",
"1289 962 LINE"
);
},
{
closed = 1;
nodes = (
"1142 1304 LINE SMOOTH",
"1142 1436 OFFCURVE",
"1114 1454 OFFCURVE",
"966 1454 CURVE SMOOTH",
"893 1454 LINE SMOOTH",
"792 1454 OFFCURVE",
"732 1448 OFFCURVE",
"716 1372 CURVE SMOOTH",
"709 1341 OFFCURVE",
"710 1239 OFFCURVE",
"710 1068 CURVE SMOOTH",
"711 246 OFFCURVE",
"606 -39 OFFCURVE",
"299 -39 CURVE SMOOTH",
"133 -39 OFFCURVE",
"-3 54 OFFCURVE",
"-3 206 CURVE SMOOTH",
"-3 240 OFFCURVE",
"6 269 OFFCURVE",
"23 294 CURVE SMOOTH",
"48 331 OFFCURVE",
"83 350 OFFCURVE",
"128 350 CURVE SMOOTH",
"175 350 OFFCURVE",
"212 329 OFFCURVE",
"238 286 CURVE SMOOTH",
"249 267 OFFCURVE",
"255 246 OFFCURVE",
"255 221 CURVE SMOOTH",
"255 151 OFFCURVE",
"221 111 OFFCURVE",
"154 102 CURVE",
"183 73 OFFCURVE",
"230 59 OFFCURVE",
"295 59 CURVE SMOOTH",
"528 59 OFFCURVE",
"608 338 OFFCURVE",
"608 1145 CURVE SMOOTH",
"608 1357 OFFCURVE",
"611 1453 OFFCURVE",
"506 1473 CURVE SMOOTH",
"483 1477 OFFCURVE",
"450 1480 OFFCURVE",
"405 1482 CURVE",
"405 1556 LINE",
"1492 1556 LINE",
"1492 1482 LINE",
"1334 1475 OFFCURVE",
"1289 1461 OFFCURVE",
"1289 1321 CURVE SMOOTH",
"1289 656 LINE",
"1142 656 LINE"
);
}
);
};
layerId = "4E782664-D0D5-4FED-AFC2-B9212141A2ED";
paths = (
{
closed = 1;
nodes = (
"133 -39 OFFCURVE",
"-3 54 OFFCURVE",
"-3 206 CURVE SMOOTH",
"-3 240 OFFCURVE",
"6 269 OFFCURVE",
"23 294 CURVE SMOOTH",
"48 331 OFFCURVE",
"83 350 OFFCURVE",
"128 350 CURVE SMOOTH",
"175 350 OFFCURVE",
"212 329 OFFCURVE",
"238 286 CURVE SMOOTH",
"249 267 OFFCURVE",
"255 246 OFFCURVE",
"255 221 CURVE SMOOTH",
"255 151 OFFCURVE",
"221 111 OFFCURVE",
"154 102 CURVE",
"183 73 OFFCURVE",
"230 59 OFFCURVE",
"295 59 CURVE SMOOTH",
"528 59 OFFCURVE",
"608 338 OFFCURVE",
"608 1145 CURVE SMOOTH",
"608 1357 OFFCURVE",
"611 1453 OFFCURVE",
"506 1473 CURVE SMOOTH",
"483 1477 OFFCURVE",
"450 1480 OFFCURVE",
"405 1482 CURVE",
"405 1556 LINE",
"1492 1556 LINE",
"1492 1482 LINE",
"1334 1475 OFFCURVE",
"1289 1461 OFFCURVE",
"1289 1321 CURVE SMOOTH",
"1289 887 LINE",
"1496 887 LINE SMOOTH",
"1798 887 OFFCURVE",
"2040 766 OFFCURVE",
"2040 446 CURVE SMOOTH",
"2040 122 OFFCURVE",
"1839 0 OFFCURVE",
"1546 0 CURVE SMOOTH",
"937 0 LINE",
"937 74 LINE",
"1034 80 OFFCURVE",
"1093 94 OFFCURVE",
"1114 116 CURVE SMOOTH",
"1133 135 OFFCURVE",
"1142 175 OFFCURVE",
"1142 236 CURVE SMOOTH",
"1142 1304 LINE SMOOTH",
"1142 1436 OFFCURVE",
"1114 1454 OFFCURVE",
"966 1454 CURVE SMOOTH",
"893 1454 LINE SMOOTH",
"792 1454 OFFCURVE",
"732 1448 OFFCURVE",
"716 1372 CURVE SMOOTH",
"709 1341 OFFCURVE",
"710 1239 OFFCURVE",
"710 1068 CURVE SMOOTH",
"711 246 OFFCURVE",
"606 -39 OFFCURVE",
"299 -39 CURVE SMOOTH"
);
},
{
closed = 1;
nodes = (
"1505 103 LINE SMOOTH",
"1721 103 OFFCURVE",
"1868 183 OFFCURVE",
"1868 446 CURVE SMOOTH",
"1868 672 OFFCURVE",
"1744 785 OFFCURVE",
"1496 785 CURVE SMOOTH",
"1289 785 LINE",
"1289 252 LINE SMOOTH",
"1289 193 OFFCURVE",
"1302 153 OFFCURVE",
"1328 133 CURVE SMOOTH",
"1355 113 OFFCURVE",
"1409 103 OFFCURVE",
"1492 103 CURVE SMOOTH"
);
}
);
vertWidth = 2048;
width = 2048;
}
);
unicode = 0409;
},
{
color = 4;
glyphname = "Nje-cy";
lastChange = "2022-04-07 18:22:10 +0000";
layers = (
{
background = {
paths = (
{
closed = 1;
nodes = (
"1114 775 LINE",
"485 775 LINE",
"485 236 LINE SMOOTH",
"485 162 OFFCURVE",
"501 117 OFFCURVE",
"532 101 CURVE SMOOTH",
"557 88 OFFCURVE",
"610 79 OFFCURVE",
"690 74 CURVE",
"690 0 LINE",
"137 0 LINE",
"137 74 LINE",
"231 79 OFFCURVE",
"289 93 OFFCURVE",
"312 116 CURVE SMOOTH",
"331 134 OFFCURVE",
"340 174 OFFCURVE",
"340 236 CURVE SMOOTH",
"340 1321 LINE SMOOTH",
"340 1384 OFFCURVE",
"330 1425 OFFCURVE",
"309 1444 CURVE SMOOTH",
"286 1465 OFFCURVE",
"228 1477 OFFCURVE",
"137 1482 CURVE",
"137 1556 LINE",
"690 1556 LINE",
"690 1482 LINE",
"593 1477 OFFCURVE",
"534 1463 OFFCURVE",
"512 1440 CURVE SMOOTH",
"494 1421 OFFCURVE",
"485 1381 OFFCURVE",
"485 1321 CURVE SMOOTH",
"485 877 LINE",
"1114 877 LINE",
"1114 1321 LINE SMOOTH",
"1114 1384 OFFCURVE",
"1104 1425 OFFCURVE",
"1083 1444 CURVE SMOOTH",
"1059 1465 OFFCURVE",
"1001 1478 OFFCURVE",
"909 1482 CURVE",
"909 1556 LINE",
"1462 1556 LINE",
"1462 1482 LINE",
"1367 1478 OFFCURVE",
"1309 1464 OFFCURVE",
"1286 1440 CURVE SMOOTH",
"1268 1421 OFFCURVE",
"1259 1381 OFFCURVE",
"1259 1321 CURVE SMOOTH",
"1259 443 LINE",
"1114 443 LINE"
);
},
{
closed = 1;
nodes = (
"1259 785 LINE",
"1259 252 LINE SMOOTH",
"1259 193 OFFCURVE",
"1272 153 OFFCURVE",
"1298 133 CURVE SMOOTH",
"1325 113 OFFCURVE",
"1379 103 OFFCURVE",
"1462 103 CURVE SMOOTH",
"1495 103 LINE SMOOTH",
"1711 103 OFFCURVE",
"1858 183 OFFCURVE",
"1858 446 CURVE SMOOTH",
"1858 672 OFFCURVE",
"1734 785 OFFCURVE",
"1486 785 CURVE SMOOTH"
);
},
{
closed = 1;
nodes = (
"1259 887 LINE",
"1486 887 LINE SMOOTH",
"1788 887 OFFCURVE",
"2030 766 OFFCURVE",
"2030 446 CURVE SMOOTH",
"2030 122 OFFCURVE",
"1829 0 OFFCURVE",
"1536 0 CURVE SMOOTH",
"909 0 LINE",
"909 74 LINE",
"1006 80 OFFCURVE",
"1065 94 OFFCURVE",
"1086 116 CURVE SMOOTH",
"1105 135 OFFCURVE",
"1114 175 OFFCURVE",
"1114 236 CURVE SMOOTH",
"1114 962 LINE",
"1259 962 LINE"
);
}
);
};
layerId = "4E782664-D0D5-4FED-AFC2-B9212141A2ED";
paths = (
{
closed = 1;
nodes = (
"137 74 LINE",
"231 79 OFFCURVE",
"289 93 OFFCURVE",
"312 116 CURVE SMOOTH",
"331 134 OFFCURVE",
"340 174 OFFCURVE",
"340 236 CURVE SMOOTH",
"340 1321 LINE SMOOTH",
"340 1384 OFFCURVE",
"330 1425 OFFCURVE",
"309 1444 CURVE SMOOTH",
"286 1465 OFFCURVE",
"228 1477 OFFCURVE",
"137 1482 CURVE",
"137 1556 LINE",
"690 1556 LINE",
"690 1482 LINE",
"593 1477 OFFCURVE",
"534 1463 OFFCURVE",
"512 1440 CURVE SMOOTH",
"494 1421 OFFCURVE",
"485 1381 OFFCURVE",
"485 1321 CURVE SMOOTH",
"485 877 LINE",
"1114 877 LINE",
"1114 1321 LINE SMOOTH",
"1114 1384 OFFCURVE",
"1104 1425 OFFCURVE",
"1083 1444 CURVE SMOOTH",
"1059 1465 OFFCURVE",
"1001 1478 OFFCURVE",
"909 1482 CURVE",
"909 1556 LINE",
"1462 1556 LINE",
"1462 1482 LINE",
"1367 1478 OFFCURVE",
"1309 1464 OFFCURVE",
"1286 1440 CURVE SMOOTH",
"1268 1421 OFFCURVE",
"1259 1381 OFFCURVE",
"1259 1321 CURVE SMOOTH",
"1259 887 LINE",
"1486 887 LINE SMOOTH",
"1788 887 OFFCURVE",
"2030 766 OFFCURVE",
"2030 446 CURVE SMOOTH",
"2030 122 OFFCURVE",
"1829 0 OFFCURVE",
"1536 0 CURVE SMOOTH",
"909 0 LINE",
"909 74 LINE",
"1006 80 OFFCURVE",
"1065 94 OFFCURVE",
"1086 116 CURVE SMOOTH",
"1105 135 OFFCURVE",
"1114 175 OFFCURVE",
"1114 236 CURVE SMOOTH",
"1114 775 LINE",
"485 775 LINE",
"485 236 LINE SMOOTH",
"485 162 OFFCURVE",
"501 117 OFFCURVE",
"532 101 CURVE SMOOTH",
"557 88 OFFCURVE",
"610 79 OFFCURVE",
"690 74 CURVE",
"690 0 LINE",
"137 0 LINE"
);
},
{
closed = 1;
nodes = (
"1495 103 LINE SMOOTH",
"1711 103 OFFCURVE",
"1858 183 OFFCURVE",
"1858 446 CURVE SMOOTH",
"1858 672 OFFCURVE",
"1734 785 OFFCURVE",
"1486 785 CURVE SMOOTH",
"1259 785 LINE",
"1259 252 LINE SMOOTH",
"1259 193 OFFCURVE",
"1272 153 OFFCURVE",
"1298 133 CURVE SMOOTH",
"1325 113 OFFCURVE",
"1379 103 OFFCURVE",
"1462 103 CURVE SMOOTH"
);
}
);
vertWidth = 2048;
width = 2048;
}
);
unicode = 040A;
},
{
color = 4;
glyphname = "Dze-cy";
lastChange = "2022-04-07 18:22:10 +0000";
layers = (
{
layerId = "4E782664-D0D5-4FED-AFC2-B9212141A2ED";
paths = (
{
closed = 1;
nodes = (
"467 563 LINE",
"537 563 LINE",
"560 398 OFFCURVE",
"610 279 OFFCURVE",
"687 207 CURVE SMOOTH",
"783 117 OFFCURVE",
"906 72 OFFCURVE",
"1056 72 CURVE SMOOTH",
"1177 72 OFFCURVE",
"1274 99 OFFCURVE",
"1348 154 CURVE SMOOTH",
"1420 207 OFFCURVE",
"1456 278 OFFCURVE",
"1456 367 CURVE SMOOTH",
"1456 494 OFFCURVE",
"1348 602 OFFCURVE",
"1131 690 CURVE SMOOTH",
"854 803 LINE SMOOTH",
"728 854 OFFCURVE",
"637 912 OFFCURVE",
"582 975 CURVE SMOOTH",
"523 1042 OFFCURVE",
"494 1123 OFFCURVE",
"494 1219 CURVE SMOOTH",
"494 1338 OFFCURVE",
"544 1433 OFFCURVE",
"645 1504 CURVE SMOOTH",
"731 1565 OFFCURVE",
"842 1596 OFFCURVE",
"977 1596 CURVE SMOOTH",
"1130 1596 OFFCURVE",
"1253 1565 OFFCURVE",
"1348 1502 CURVE SMOOTH",
"1365 1491 OFFCURVE",
"1381 1485 OFFCURVE",
"1396 1485 CURVE SMOOTH",
"1423 1485 OFFCURVE",
"1439 1514 OFFCURVE",
"1446 1571 CURVE",
"1518 1571 LINE",
"1518 1104 LINE",
"1446 1104 LINE",
"1423 1223 OFFCURVE",
"1377 1314 OFFCURVE",
"1307 1376 CURVE SMOOTH",
"1226 1449 OFFCURVE",
"1123 1485 OFFCURVE",
"1000 1485 CURVE SMOOTH",
"891 1485 OFFCURVE",
"803 1460 OFFCURVE",
"735 1409 CURVE SMOOTH",
"668 1359 OFFCURVE",
"635 1296 OFFCURVE",
"635 1219 CURVE SMOOTH",
"635 1152 OFFCURVE",
"665 1095 OFFCURVE",
"726 1050 CURVE SMOOTH",
"769 1017 OFFCURVE",
"834 984 OFFCURVE",
"920 950 CURVE SMOOTH",
"1188 844 LINE SMOOTH",
"1329 788 OFFCURVE",
"1433 725 OFFCURVE",
"1501 654 CURVE SMOOTH",
"1578 574 OFFCURVE",
"1616 480 OFFCURVE",
"1616 371 CURVE SMOOTH",
"1616 244 OFFCURVE",
"1568 144 OFFCURVE",
"1471 71 CURVE SMOOTH",
"1375 -2 OFFCURVE",
"1241 -39 OFFCURVE",
"1070 -39 CURVE SMOOTH",
"919 -39 OFFCURVE",
"783 -3 OFFCURVE",
"664 68 CURVE SMOOTH",
"645 79 OFFCURVE",
"630 84 OFFCURVE",
"621 84 CURVE SMOOTH",
"578 84 OFFCURVE",
"550 48 OFFCURVE",
"537 -25 CURVE",
"467 -25 LINE"
);
}
);
vertWidth = 2048;
width = 2048;
}
);
unicode = 0405;
},
{
color = 4;
glyphname = "E-cy";
lastChange = "2022-04-07 18:22:10 +0000";
layers = (
{
background = {
paths = (
{
closed = 1;
nodes = (
"1638 1081 LINE",
"1562 1081 LINE",
"1495 1350 OFFCURVE",
"1323 1485 OFFCURVE",
"1046 1485 CURVE SMOOTH",
"855 1485 OFFCURVE",
"708 1405 OFFCURVE",
"604 1246 CURVE SMOOTH",
"522 1119 OFFCURVE",
"481 961 OFFCURVE",
"481 771 CURVE SMOOTH",
"481 610 OFFCURVE",
"519 472 OFFCURVE",
"595 356 CURVE SMOOTH",
"659 259 OFFCURVE",
"743 187 OFFCURVE",
"846 141 CURVE SMOOTH",
"915 110 OFFCURVE",
"989 94 OFFCURVE",
"1068 94 CURVE SMOOTH",
"1352 94 OFFCURVE",
"1542 245 OFFCURVE",
"1638 547 CURVE",
"1720 512 LINE",
"1664 323 OFFCURVE",
"1585 186 OFFCURVE",
"1483 101 CURVE SMOOTH",
"1371 8 OFFCURVE",
"1225 -39 OFFCURVE",
"1045 -39 CURVE SMOOTH",
"824 -39 OFFCURVE",
"645 39 OFFCURVE",
"507 196 CURVE SMOOTH",
"375 345 OFFCURVE",
"309 536 OFFCURVE",
"309 769 CURVE SMOOTH",
"309 962 OFFCURVE",
"355 1129 OFFCURVE",
"446 1272 CURVE SMOOTH",
"527 1399 OFFCURVE",
"635 1489 OFFCURVE",
"769 1544 CURVE SMOOTH",
"854 1579 OFFCURVE",
"943 1596 OFFCURVE",
"1038 1596 CURVE SMOOTH",
"1177 1596 OFFCURVE",
"1311 1559 OFFCURVE",
"1442 1486 CURVE SMOOTH",
"1473 1469 OFFCURVE",
"1498 1460 OFFCURVE",
"1515 1460 CURVE SMOOTH",
"1538 1460 OFFCURVE",
"1555 1492 OFFCURVE",
"1564 1557 CURVE",
"1638 1557 LINE"
);
},
{
closed = 1;
nodes = (
"569 867 OFFCURVE",
"669 912 OFFCURVE",
"760 912 CURVE SMOOTH",
"826 912 OFFCURVE",
"885 902 OFFCURVE",
"936 881 CURVE SMOOTH",
"954 874 OFFCURVE",
"992 853 OFFCURVE",
"1051 820 CURVE SMOOTH",
"1120 781 OFFCURVE",
"1189 761 OFFCURVE",
"1257 761 CURVE SMOOTH",
"1346 761 OFFCURVE",
"1432 784 OFFCURVE",
"1514 830 CURVE",
"1514 727 LINE",
"1427 650 OFFCURVE",
"1330 611 OFFCURVE",
"1223 611 CURVE SMOOTH",
"1145 611 OFFCURVE",
"1055 640 OFFCURVE",
"953 697 CURVE SMOOTH",
"875 741 OFFCURVE",
"800 763 OFFCURVE",
"728 763 CURVE SMOOTH",
"629 763 OFFCURVE",
"543 729 OFFCURVE",
"472 663 CURVE",
"464 776 LINE"
);
}
);
};
layerId = "4E782664-D0D5-4FED-AFC2-B9212141A2ED";
paths = (
{
closed = 1;
nodes = (
"824 -39 OFFCURVE",
"645 39 OFFCURVE",
"507 196 CURVE SMOOTH",
"375 345 OFFCURVE",
"309 536 OFFCURVE",
"309 769 CURVE SMOOTH",
"309 962 OFFCURVE",
"355 1129 OFFCURVE",
"446 1272 CURVE SMOOTH",
"527 1399 OFFCURVE",
"635 1489 OFFCURVE",
"769 1544 CURVE SMOOTH",
"854 1579 OFFCURVE",
"943 1596 OFFCURVE",
"1038 1596 CURVE SMOOTH",
"1177 1596 OFFCURVE",
"1311 1559 OFFCURVE",
"1442 1486 CURVE SMOOTH",
"1473 1469 OFFCURVE",
"1498 1460 OFFCURVE",
"1515 1460 CURVE SMOOTH",
"1538 1460 OFFCURVE",
"1555 1492 OFFCURVE",
"1564 1557 CURVE",
"1638 1557 LINE",
"1638 1081 LINE",
"1562 1081 LINE",
"1495 1350 OFFCURVE",
"1323 1485 OFFCURVE",
"1046 1485 CURVE SMOOTH",
"855 1485 OFFCURVE",
"708 1405 OFFCURVE",
"604 1246 CURVE SMOOTH",
"525 1123 OFFCURVE",
"484 972 OFFCURVE",
"481 790 CURVE",
"580 872 OFFCURVE",
"674 912 OFFCURVE",
"760 912 CURVE SMOOTH",
"826 912 OFFCURVE",
"885 902 OFFCURVE",
"936 881 CURVE SMOOTH",
"954 874 OFFCURVE",
"992 853 OFFCURVE",
"1051 820 CURVE SMOOTH",
"1120 781 OFFCURVE",
"1189 761 OFFCURVE",
"1257 761 CURVE SMOOTH",
"1346 761 OFFCURVE",
"1432 784 OFFCURVE",
"1514 830 CURVE",
"1514 727 LINE",
"1427 650 OFFCURVE",
"1330 611 OFFCURVE",
"1223 611 CURVE SMOOTH",
"1145 611 OFFCURVE",
"1055 640 OFFCURVE",
"953 697 CURVE SMOOTH",
"875 741 OFFCURVE",
"800 763 OFFCURVE",
"728 763 CURVE SMOOTH",
"635 763 OFFCURVE",
"554 733 OFFCURVE",
"486 675 CURVE",
"498 555 OFFCURVE",
"535 448 OFFCURVE",
"595 356 CURVE SMOOTH",
"659 259 OFFCURVE",
"743 187 OFFCURVE",
"846 141 CURVE SMOOTH",
"915 110 OFFCURVE",
"989 94 OFFCURVE",
"1068 94 CURVE SMOOTH",
"1352 94 OFFCURVE",
"1542 245 OFFCURVE",
"1638 547 CURVE",
"1720 512 LINE",
"1664 323 OFFCURVE",
"1585 186 OFFCURVE",
"1483 101 CURVE SMOOTH",
"1371 8 OFFCURVE",
"1225 -39 OFFCURVE",
"1045 -39 CURVE SMOOTH"
);
}
);
vertWidth = 2048;
width = 2048;
}
);
unicode = 0404;
},
{
color = 4;
glyphname = "I-cy";
lastChange = "2022-04-07 18:22:10 +0000";
layers = (
{
layerId = "4E782664-D0D5-4FED-AFC2-B9212141A2ED";
paths = (
{
closed = 1;
nodes = (
"719 1556 LINE",
"1329 1556 LINE",
"1329 1482 LINE",
"1224 1473 OFFCURVE",
"1160 1456 OFFCURVE",
"1135 1432 CURVE SMOOTH",
"1112 1409 OFFCURVE",
"1100 1363 OFFCURVE",
"1100 1296 CURVE SMOOTH",
"1100 260 LINE SMOOTH",
"1100 190 OFFCURVE",
"1115 143 OFFCURVE",
"1145 120 CURVE SMOOTH",
"1172 99 OFFCURVE",
"1233 83 OFFCURVE",
"1329 74 CURVE",
"1329 0 LINE",
"719 0 LINE",
"719 74 LINE",
"819 85 OFFCURVE",
"882 101 OFFCURVE",
"907 123 CURVE SMOOTH",
"934 146 OFFCURVE",
"948 192 OFFCURVE",
"948 260 CURVE SMOOTH",
"948 1296 LINE SMOOTH",
"948 1378 OFFCURVE",
"928 1429 OFFCURVE",
"889 1449 CURVE SMOOTH",
"859 1464 OFFCURVE",
"802 1475 OFFCURVE",
"719 1482 CURVE"
);
}
);
vertWidth = 2048;
width = 2048;
}
);
unicode = 0406;
},
{
color = 4;
glyphname = "Yi-cy";
lastChange = "2022-04-07 18:22:10 +0000";
layers = (
{
layerId = "4E782664-D0D5-4FED-AFC2-B9212141A2ED";
paths = (
{
closed = 1;
nodes = (
"719 1456 LINE",
"1329 1456 LINE",
"1329 1382 LINE",
"1224 1373 OFFCURVE",
"1160 1356 OFFCURVE",
"1135 1332 CURVE SMOOTH",
"1112 1309 OFFCURVE",
"1100 1263 OFFCURVE",
"1100 1196 CURVE SMOOTH",
"1100 260 LINE SMOOTH",
"1100 190 OFFCURVE",
"1115 143 OFFCURVE",
"1145 120 CURVE SMOOTH",
"1172 99 OFFCURVE",
"1233 83 OFFCURVE",
"1329 74 CURVE",
"1329 0 LINE",
"719 0 LINE",
"719 74 LINE",
"819 85 OFFCURVE",
"882 101 OFFCURVE",
"907 123 CURVE SMOOTH",
"934 146 OFFCURVE",
"948 192 OFFCURVE",
"948 260 CURVE SMOOTH",
"948 1196 LINE SMOOTH",
"948 1278 OFFCURVE",
"928 1329 OFFCURVE",
"889 1349 CURVE SMOOTH",
"859 1364 OFFCURVE",
"802 1375 OFFCURVE",
"719 1382 CURVE"
);
},
{
closed = 1;
nodes = (
"814 1801 OFFCURVE",
"831 1797 OFFCURVE",
"848 1790 CURVE SMOOTH",
"893 1768 OFFCURVE",
"916 1732 OFFCURVE",
"916 1682 CURVE SMOOTH",
"916 1649 OFFCURVE",
"904 1621 OFFCURVE",
"881 1598 CURVE SMOOTH",
"858 1575 OFFCURVE",
"829 1563 OFFCURVE",
"796 1563 CURVE SMOOTH",
"776 1563 OFFCURVE",
"757 1568 OFFCURVE",
"740 1578 CURVE SMOOTH",
"699 1601 OFFCURVE",
"678 1636 OFFCURVE",
"678 1683 CURVE SMOOTH",
"678 1718 OFFCURVE",
"691 1747 OFFCURVE",
"716 1770 CURVE SMOOTH",
"739 1791 OFFCURVE",
"766 1801 OFFCURVE",
"797 1801 CURVE SMOOTH"
);
},
{
closed = 1;
nodes = (
"1269 1801 OFFCURVE",
"1286 1797 OFFCURVE",
"1303 1790 CURVE SMOOTH",
"1348 1768 OFFCURVE",
"1371 1732 OFFCURVE",
"1371 1682 CURVE SMOOTH",
"1371 1649 OFFCURVE",
"1359 1621 OFFCURVE",
"1336 1598 CURVE SMOOTH",
"1313 1575 OFFCURVE",
"1284 1563 OFFCURVE",
"1251 1563 CURVE SMOOTH",
"1231 1563 OFFCURVE",
"1212 1568 OFFCURVE",
"1195 1578 CURVE SMOOTH",
"1154 1601 OFFCURVE",
"1133 1636 OFFCURVE",
"1133 1683 CURVE SMOOTH",
"1133 1717 OFFCURVE",
"1146 1746 OFFCURVE",
"1171 1770 CURVE SMOOTH",
"1194 1791 OFFCURVE",
"1221 1801 OFFCURVE",
"1252 1801 CURVE SMOOTH"
);
}
);
vertWidth = 2048;
width = 2048;
}
);
unicode = 0407;
},
{
color = 4;
glyphname = "Je-cy";
lastChange = "2022-04-07 18:22:10 +0000";
layers = (
{
layerId = "4E782664-D0D5-4FED-AFC2-B9212141A2ED";
paths = (
{
closed = 1;
nodes = (
"889 1556 LINE",
"1511 1556 LINE",
"1511 1482 LINE",
"1407 1477 OFFCURVE",
"1341 1460 OFFCURVE",
"1313 1431 CURVE SMOOTH",
"1290 1407 OFFCURVE",
"1278 1362 OFFCURVE",
"1278 1296 CURVE SMOOTH",
"1278 487 LINE SMOOTH",
"1278 312 OFFCURVE",
"1245 183 OFFCURVE",
"1180 98 CURVE SMOOTH",
"1109 7 OFFCURVE",
"993 -39 OFFCURVE",
"831 -39 CURVE SMOOTH",
"720 -39 OFFCURVE",
"627 -5 OFFCURVE",
"554 63 CURVE SMOOTH",
"489 123 OFFCURVE",
"457 193 OFFCURVE",
"457 273 CURVE SMOOTH",
"457 295 OFFCURVE",
"462 315 OFFCURVE",
"471 333 CURVE SMOOTH",
"494 377 OFFCURVE",
"529 399 OFFCURVE",
"576 399 CURVE SMOOTH",
"602 399 OFFCURVE",
"626 392 OFFCURVE",
"647 379 CURVE SMOOTH",
"680 358 OFFCURVE",
"697 325 OFFCURVE",
"697 281 CURVE SMOOTH",
"697 228 OFFCURVE",
"670 191 OFFCURVE",
"615 170 CURVE",
"630 143 OFFCURVE",
"654 119 OFFCURVE",
"686 100 CURVE SMOOTH",
"731 73 OFFCURVE",
"779 59 OFFCURVE",
"832 59 CURVE SMOOTH",
"925 59 OFFCURVE",
"999 95 OFFCURVE",
"1054 168 CURVE SMOOTH",
"1107 237 OFFCURVE",
"1133 338 OFFCURVE",
"1133 473 CURVE SMOOTH",
"1133 1296 LINE SMOOTH",
"1133 1369 OFFCURVE",
"1118 1417 OFFCURVE",
"1089 1439 CURVE SMOOTH",
"1058 1463 OFFCURVE",
"991 1477 OFFCURVE",
"889 1482 CURVE"
);
}
);
vertWidth = 2048;
width = 2048;
}
);
unicode = 0408;
},
{
color = 4;
glyphname = "Tshe-cy";
lastChange = "2022-04-07 18:22:10 +0000";
layers = (
{
background = {
paths = (
{
closed = 1;
nodes = (
"894 826 OFFCURVE",
"954 879 OFFCURVE",
"1030 919 CURVE SMOOTH",
"1092 951 OFFCURVE",
"1154 967 OFFCURVE",
"1217 967 CURVE SMOOTH",
"1344 967 OFFCURVE",
"1445 921 OFFCURVE",
"1520 829 CURVE SMOOTH",
"1581 754 OFFCURVE",
"1611 649 OFFCURVE",
"1611 516 CURVE SMOOTH",
"1611 238 LINE SMOOTH",
"1611 174 OFFCURVE",
"1624 131 OFFCURVE",
"1649 110 CURVE SMOOTH",
"1672 90 OFFCURVE",
"1723 78 OFFCURVE",
"1801 74 CURVE",
"1801 0 LINE",
"1285 0 LINE",
"1285 74 LINE",
"1354 78 OFFCURVE",
"1401 91 OFFCURVE",
"1426 113 CURVE SMOOTH",
"1448 132 OFFCURVE",
"1459 174 OFFCURVE",
"1459 238 CURVE SMOOTH",
"1459 522 LINE SMOOTH",
"1459 621 OFFCURVE",
"1441 704 OFFCURVE",
"1394 761 CURVE SMOOTH",
"1347 819 OFFCURVE",
"1283 848 OFFCURVE",
"1204 848 CURVE SMOOTH",
"1074 848 OFFCURVE",
"955 766 OFFCURVE",
"847 602 CURVE",
"850 759 LINE"
);
},
{
closed = 1;
nodes = (
"248 1556 LINE",
"1478 1556 LINE",
"1509 1156 LINE",
"1437 1156 LINE",
"1404 1370 OFFCURVE",
"1299 1454 OFFCURVE",
"1054 1454 CURVE SMOOTH",
"869 1454 LINE",
"869 235 LINE SMOOTH",
"869 174 OFFCURVE",
"882 133 OFFCURVE",
"908 112 CURVE SMOOTH",
"929 95 OFFCURVE",
"983 83 OFFCURVE",
"1072 74 CURVE",
"1072 0 LINE",
"514 0 LINE",
"514 74 LINE",
"607 82 OFFCURVE",
"664 97 OFFCURVE",
"686 118 CURVE SMOOTH",
"707 138 OFFCURVE",
"717 177 OFFCURVE",
"717 235 CURVE SMOOTH",
"717 1454 LINE",
"672 1454 LINE SMOOTH",
"425 1454 OFFCURVE",
"321 1366 OFFCURVE",
"289 1156 CURVE",
"217 1156 LINE"
);
}
);
};
layerId = "4E782664-D0D5-4FED-AFC2-B9212141A2ED";
paths = (
{
closed = 1;
nodes = (
"514 74 LINE",
"607 82 OFFCURVE",
"664 97 OFFCURVE",
"686 118 CURVE SMOOTH",
"707 138 OFFCURVE",
"717 177 OFFCURVE",
"717 235 CURVE SMOOTH",
"717 1454 LINE",
"672 1454 LINE SMOOTH",
"425 1454 OFFCURVE",
"321 1366 OFFCURVE",
"289 1156 CURVE",
"217 1156 LINE",
"248 1556 LINE",
"1478 1556 LINE",
"1509 1156 LINE",
"1437 1156 LINE",
"1404 1370 OFFCURVE",
"1299 1454 OFFCURVE",
"1054 1454 CURVE SMOOTH",
"869 1454 LINE",
"869 786 LINE",
"911 840 OFFCURVE",
"964 884 OFFCURVE",
"1030 919 CURVE SMOOTH",
"1092 951 OFFCURVE",
"1154 967 OFFCURVE",
"1217 967 CURVE SMOOTH",
"1344 967 OFFCURVE",
"1445 921 OFFCURVE",
"1520 829 CURVE SMOOTH",
"1581 754 OFFCURVE",
"1611 649 OFFCURVE",
"1611 516 CURVE SMOOTH",
"1611 238 LINE SMOOTH",
"1611 174 OFFCURVE",
"1624 131 OFFCURVE",
"1649 110 CURVE SMOOTH",
"1672 90 OFFCURVE",
"1723 78 OFFCURVE",
"1801 74 CURVE",
"1801 0 LINE",
"1285 0 LINE",
"1285 74 LINE",
"1354 78 OFFCURVE",
"1401 91 OFFCURVE",
"1426 113 CURVE SMOOTH",
"1448 132 OFFCURVE",
"1459 174 OFFCURVE",
"1459 238 CURVE SMOOTH",
"1459 522 LINE SMOOTH",
"1459 621 OFFCURVE",
"1441 704 OFFCURVE",
"1394 761 CURVE SMOOTH",
"1347 819 OFFCURVE",
"1283 848 OFFCURVE",
"1204 848 CURVE SMOOTH",
"1083 848 OFFCURVE",
"971 777 OFFCURVE",
"869 634 CURVE",
"869 235 LINE SMOOTH",
"869 174 OFFCURVE",
"882 133 OFFCURVE",
"908 112 CURVE SMOOTH",
"929 95 OFFCURVE",
"983 83 OFFCURVE",
"1072 74 CURVE",
"1072 0 LINE",
"514 0 LINE"
);
}
);
vertWidth = 2048;
width = 2048;
}
);
unicode = 040B;
},
{
color = 4;
glyphname = "Dje-cy";
lastChange = "2022-04-07 18:22:10 +0000";
layers = (
{
background = {
paths = (
{
closed = 1;
nodes = (
"1042 0 LINE",
"1042 74 LINE",
"953 83 OFFCURVE",
"899 95 OFFCURVE",
"878 112 CURVE SMOOTH",
"852 133 OFFCURVE",
"839 174 OFFCURVE",
"839 235 CURVE SMOOTH",
"839 1454 LINE",
"1024 1454 LINE SMOOTH",
"1269 1454 OFFCURVE",
"1374 1370 OFFCURVE",
"1407 1156 CURVE",
"1479 1156 LINE",
"1448 1556 LINE",
"218 1556 LINE",
"187 1156 LINE",
"259 1156 LINE",
"291 1366 OFFCURVE",
"395 1454 OFFCURVE",
"642 1454 CURVE SMOOTH",
"687 1454 LINE",
"687 235 LINE SMOOTH",
"687 177 OFFCURVE",
"677 138 OFFCURVE",
"656 118 CURVE SMOOTH",
"634 97 OFFCURVE",
"577 82 OFFCURVE",
"484 74 CURVE",
"484 0 LINE"
);
},
{
closed = 1;
nodes = (
"1677 -244 OFFCURVE",
"1801 3 OFFCURVE",
"1801 362 CURVE SMOOTH",
"1801 751 OFFCURVE",
"1617 967 OFFCURVE",
"1287 967 CURVE SMOOTH",
"1108 967 OFFCURVE",
"920 880 OFFCURVE",
"820 760 CURVE",
"817 603 LINE",
"955 767 OFFCURVE",
"1108 848 OFFCURVE",
"1274 848 CURVE SMOOTH",
"1514 848 OFFCURVE",
"1649 677 OFFCURVE",
"1649 362 CURVE SMOOTH",
"1649 74 OFFCURVE",
"1587 -160 OFFCURVE",
"1373 -160 CURVE SMOOTH",
"1314 -160 OFFCURVE",
"1276 -139 OFFCURVE",
"1253 -98 CURVE",
"1299 -80 OFFCURVE",
"1322 -45 OFFCURVE",
"1322 6 CURVE SMOOTH",
"1322 39 OFFCURVE",
"1311 68 OFFCURVE",
"1288 91 CURVE SMOOTH",
"1267 112 OFFCURVE",
"1242 123 OFFCURVE",
"1213 123 CURVE SMOOTH",
"1168 123 OFFCURVE",
"1135 102 OFFCURVE",
"1113 60 CURVE SMOOTH",
"1104 43 OFFCURVE",
"1099 23 OFFCURVE",
"1099 1 CURVE SMOOTH",
"1099 -141 OFFCURVE",
"1229 -244 OFFCURVE",
"1377 -244 CURVE SMOOTH"
);
}
);
};
layerId = "4E782664-D0D5-4FED-AFC2-B9212141A2ED";
paths = (
{
closed = 1;
nodes = (
"1229 -244 OFFCURVE",
"1099 -141 OFFCURVE",
"1099 1 CURVE SMOOTH",
"1099 23 OFFCURVE",
"1104 43 OFFCURVE",
"1113 60 CURVE SMOOTH",
"1135 102 OFFCURVE",
"1168 123 OFFCURVE",
"1213 123 CURVE SMOOTH",
"1242 123 OFFCURVE",
"1267 112 OFFCURVE",
"1288 91 CURVE SMOOTH",
"1311 68 OFFCURVE",
"1322 39 OFFCURVE",
"1322 6 CURVE SMOOTH",
"1322 -45 OFFCURVE",
"1299 -80 OFFCURVE",
"1253 -98 CURVE",
"1276 -139 OFFCURVE",
"1314 -160 OFFCURVE",
"1373 -160 CURVE SMOOTH",
"1587 -160 OFFCURVE",
"1649 74 OFFCURVE",
"1649 362 CURVE SMOOTH",
"1649 677 OFFCURVE",
"1514 848 OFFCURVE",
"1274 848 CURVE SMOOTH",
"1117 848 OFFCURVE",
"971 775 OFFCURVE",
"839 628 CURVE",
"839 235 LINE SMOOTH",
"839 174 OFFCURVE",
"852 133 OFFCURVE",
"878 112 CURVE SMOOTH",
"899 95 OFFCURVE",
"953 83 OFFCURVE",
"1042 74 CURVE",
"1042 0 LINE",
"484 0 LINE",
"484 74 LINE",
"577 82 OFFCURVE",
"634 97 OFFCURVE",
"656 118 CURVE SMOOTH",
"677 138 OFFCURVE",
"687 177 OFFCURVE",
"687 235 CURVE SMOOTH",
"687 1454 LINE",
"642 1454 LINE SMOOTH",
"395 1454 OFFCURVE",
"291 1366 OFFCURVE",
"259 1156 CURVE",
"187 1156 LINE",
"218 1556 LINE",
"1448 1556 LINE",
"1479 1156 LINE",
"1407 1156 LINE",
"1374 1370 OFFCURVE",
"1269 1454 OFFCURVE",
"1024 1454 CURVE SMOOTH",
"839 1454 LINE",
"839 781 LINE",
"943 890 OFFCURVE",
"1119 967 OFFCURVE",
"1287 967 CURVE SMOOTH",
"1617 967 OFFCURVE",
"1801 751 OFFCURVE",
"1801 362 CURVE SMOOTH",
"1801 3 OFFCURVE",
"1677 -244 OFFCURVE",
"1377 -244 CURVE SMOOTH"
);
}
);
vertWidth = 2048;
width = 2048;
}
);
unicode = 0402;
},
{
color = 4;
glyphname = "gje-cy";
lastChange = "2022-04-07 18:22:10 +0000";
layers = (
{
layerId = "4E782664-D0D5-4FED-AFC2-B9212141A2ED";
paths = (
{
closed = 1;
nodes = (
"502 1106 LINE",
"1464 1106 LINE",
"1505 702 LINE",
"1429 702 LINE",
"1405 808 OFFCURVE",
"1368 886 OFFCURVE",
"1319 936 CURVE SMOOTH",
"1272 984 OFFCURVE",
"1205 1008 OFFCURVE",
"1120 1008 CURVE SMOOTH",
"993 1008 LINE SMOOTH",
"926 1008 OFFCURVE",
"883 998 OFFCURVE",
"864 979 CURVE SMOOTH",
"844 959 OFFCURVE",
"834 918 OFFCURVE",
"834 856 CURVE SMOOTH",
"834 238 LINE SMOOTH",
"834 173 OFFCURVE",
"847 129 OFFCURVE",
"872 107 CURVE SMOOTH",
"896 87 OFFCURVE",
"947 76 OFFCURVE",
"1024 74 CURVE",
"1024 0 LINE",
"502 0 LINE",
"502 74 LINE",
"586 76 OFFCURVE",
"640 89 OFFCURVE",
"663 114 CURVE SMOOTH",
"684 136 OFFCURVE",
"695 177 OFFCURVE",
"695 238 CURVE SMOOTH",
"695 860 LINE SMOOTH",
"695 927 OFFCURVE",
"682 972 OFFCURVE",
"656 995 CURVE SMOOTH",
"629 1019 OFFCURVE",
"578 1031 OFFCURVE",
"502 1032 CURVE"
);
},
{
closed = 1;
nodes = (
"1256 1669 LINE",
"1385 1532 LINE",
"949 1243 LINE",
"897 1298 LINE"
);
}
);
vertWidth = 2048;
width = 2048;
}
);
unicode = 0453;
},
{
color = 4;
glyphname = "gheupturn-cy";
lastChange = "2022-04-07 18:22:10 +0000";
layers = (
{
background = {
paths = (
{
closed = 1;
nodes = (
"1384 1230 OFFCURVE",
"1300 1106 OFFCURVE",
"1120 1106 CURVE SMOOTH",
"502 1106 LINE",
"502 1032 LINE",
"578 1031 OFFCURVE",
"629 1019 OFFCURVE",
"656 995 CURVE SMOOTH",
"682 972 OFFCURVE",
"695 927 OFFCURVE",
"695 860 CURVE SMOOTH",
"695 238 LINE SMOOTH",
"695 177 OFFCURVE",
"684 136 OFFCURVE",
"663 114 CURVE SMOOTH",
"640 89 OFFCURVE",
"586 76 OFFCURVE",
"502 74 CURVE",
"502 0 LINE",
"1024 0 LINE",
"1024 74 LINE",
"947 76 OFFCURVE",
"896 87 OFFCURVE",
"872 107 CURVE SMOOTH",
"847 129 OFFCURVE",
"834 173 OFFCURVE",
"834 238 CURVE SMOOTH",
"834 856 LINE SMOOTH",
"834 918 OFFCURVE",
"844 959 OFFCURVE",
"864 979 CURVE SMOOTH",
"883 998 OFFCURVE",
"926 1008 OFFCURVE",
"993 1008 CURVE SMOOTH",
"1464 1008 LINE",
"1505 1462 LINE",
"1429 1462 LINE"
);
}
);
};
layerId = "4E782664-D0D5-4FED-AFC2-B9212141A2ED";
paths = (
{
closed = 1;
nodes = (
"502 74 LINE",
"586 76 OFFCURVE",
"640 89 OFFCURVE",
"663 114 CURVE SMOOTH",
"684 136 OFFCURVE",
"695 177 OFFCURVE",
"695 238 CURVE SMOOTH",
"695 860 LINE SMOOTH",
"695 927 OFFCURVE",
"682 972 OFFCURVE",
"656 995 CURVE SMOOTH",
"629 1019 OFFCURVE",
"578 1031 OFFCURVE",
"502 1032 CURVE",
"502 1106 LINE",
"1120 1106 LINE SMOOTH",
"1300 1106 OFFCURVE",
"1384 1230 OFFCURVE",
"1429 1462 CURVE",
"1505 1462 LINE",
"1464 1008 LINE",
"993 1008 LINE SMOOTH",
"926 1008 OFFCURVE",
"883 998 OFFCURVE",
"864 979 CURVE SMOOTH",
"844 959 OFFCURVE",
"834 918 OFFCURVE",
"834 856 CURVE SMOOTH",
"834 238 LINE SMOOTH",
"834 173 OFFCURVE",
"847 129 OFFCURVE",
"872 107 CURVE SMOOTH",
"896 87 OFFCURVE",
"947 76 OFFCURVE",
"1024 74 CURVE",
"1024 0 LINE",
"502 0 LINE"
);
}
);
vertWidth = 2048;
width = 2048;
}
);
unicode = 0491;
},
{
color = 4;
glyphname = "kje-cy";
lastChange = "2022-04-07 18:22:10 +0000";
layers = (
{
layerId = "4E782664-D0D5-4FED-AFC2-B9212141A2ED";
paths = (
{
closed = 1;
nodes = (
"932 1106 LINE",
"932 1032 LINE",
"847 1031 OFFCURVE",
"793 1019 OFFCURVE",
"770 994 CURVE SMOOTH",
"749 972 OFFCURVE",
"739 931 OFFCURVE",
"739 870 CURVE SMOOTH",
"739 655 LINE",
"866 656 OFFCURVE",
"966 677 OFFCURVE",
"1041 716 CURVE SMOOTH",
"1124 759 OFFCURVE",
"1186 827 OFFCURVE",
"1227 922 CURVE SMOOTH",
"1290 1068 OFFCURVE",
"1381 1141 OFFCURVE",
"1498 1141 CURVE SMOOTH",
"1525 1141 OFFCURVE",
"1549 1135 OFFCURVE",
"1569 1122 CURVE SMOOTH",
"1607 1099 OFFCURVE",
"1626 1066 OFFCURVE",
"1626 1021 CURVE SMOOTH",
"1626 975 OFFCURVE",
"1608 941 OFFCURVE",
"1572 918 CURVE SMOOTH",
"1558 909 OFFCURVE",
"1541 905 OFFCURVE",
"1522 905 CURVE SMOOTH",
"1477 905 OFFCURVE",
"1446 922 OFFCURVE",
"1429 957 CURVE SMOOTH",
"1423 970 OFFCURVE",
"1420 986 OFFCURVE",
"1419 1004 CURVE",
"1384 998 OFFCURVE",
"1350 956 OFFCURVE",
"1317 878 CURVE SMOOTH",
"1276 779 OFFCURVE",
"1215 705 OFFCURVE",
"1134 655 CURVE",
"1497 201 LINE SMOOTH",
"1533 156 OFFCURVE",
"1567 125 OFFCURVE",
"1601 106 CURVE SMOOTH",
"1633 89 OFFCURVE",
"1675 79 OFFCURVE",
"1726 74 CURVE",
"1726 0 LINE",
"1196 0 LINE",
"1196 74 LINE",
"1302 77 OFFCURVE",
"1355 92 OFFCURVE",
"1355 119 CURVE SMOOTH",
"1355 137 OFFCURVE",
"1347 157 OFFCURVE",
"1331 178 CURVE SMOOTH",
"1020 590 LINE",
"939 565 OFFCURVE",
"846 553 OFFCURVE",
"739 553 CURVE",
"739 238 LINE SMOOTH",
"739 173 OFFCURVE",
"752 129 OFFCURVE",
"777 107 CURVE SMOOTH",
"801 87 OFFCURVE",
"853 76 OFFCURVE",
"932 74 CURVE",
"932 0 LINE",
"412 0 LINE",
"412 74 LINE",
"493 76 OFFCURVE",
"545 88 OFFCURVE",
"567 111 CURVE SMOOTH",
"589 132 OFFCURVE",
"600 175 OFFCURVE",
"600 238 CURVE SMOOTH",
"600 870 LINE SMOOTH",
"600 933 OFFCURVE",
"589 976 OFFCURVE",
"567 998 CURVE SMOOTH",
"544 1020 OFFCURVE",
"493 1031 OFFCURVE",
"412 1032 CURVE",
"412 1106 LINE"
);
},
{
closed = 1;
nodes = (
"1256 1669 LINE",
"1385 1532 LINE",
"949 1243 LINE",
"897 1298 LINE"
);
}
);
vertWidth = 2048;
width = 2048;
}
);
unicode = 045C;
},
{
color = 4;
glyphname = "ushort-cy";
lastChange = "2022-04-07 18:22:10 +0000";
layers = (
{
layerId = "4E782664-D0D5-4FED-AFC2-B9212141A2ED";
paths = (
{
closed = 1;
nodes = (
"418 1106 LINE",
"938 1106 LINE",
"938 1032 LINE",
"872 1025 OFFCURVE",
"831 1017 OFFCURVE",
"814 1010 CURVE SMOOTH",
"787 999 OFFCURVE",
"774 984 OFFCURVE",
"774 966 CURVE SMOOTH",
"774 944 OFFCURVE",
"781 920 OFFCURVE",
"795 893 CURVE SMOOTH",
"1090 299 LINE",
"1331 830 LINE SMOOTH",
"1347 866 OFFCURVE",
"1356 896 OFFCURVE",
"1356 920 CURVE SMOOTH",
"1356 980 OFFCURVE",
"1305 1017 OFFCURVE",
"1204 1032 CURVE",
"1204 1106 LINE",
"1688 1106 LINE",
"1688 1032 LINE",
"1625 1031 OFFCURVE",
"1574 1007 OFFCURVE",
"1533 958 CURVE SMOOTH",
"1504 923 OFFCURVE",
"1474 872 OFFCURVE",
"1442 805 CURVE SMOOTH",
"1106 94 LINE SMOOTH",
"1064 5 OFFCURVE",
"1021 -66 OFFCURVE",
"979 -117 CURVE SMOOTH",
"909 -202 OFFCURVE",
"830 -244 OFFCURVE",
"741 -244 CURVE SMOOTH",
"697 -244 OFFCURVE",
"657 -233 OFFCURVE",
"620 -212 CURVE SMOOTH",
"556 -175 OFFCURVE",
"524 -124 OFFCURVE",
"524 -57 CURVE SMOOTH",
"524 -20 OFFCURVE",
"536 10 OFFCURVE",
"561 35 CURVE SMOOTH",
"583 57 OFFCURVE",
"610 68 OFFCURVE",
"642 68 CURVE SMOOTH",
"674 68 OFFCURVE",
"700 57 OFFCURVE",
"721 35 CURVE SMOOTH",
"742 12 OFFCURVE",
"752 -16 OFFCURVE",
"752 -51 CURVE SMOOTH",
"752 -88 OFFCURVE",
"734 -120 OFFCURVE",
"697 -147 CURVE",
"761 -147 OFFCURVE",
"813 -128 OFFCURVE",
"852 -90 CURVE SMOOTH",
"887 -56 OFFCURVE",
"923 -4 OFFCURVE",
"959 66 CURVE SMOOTH",
"1002 150 LINE",
"639 881 LINE SMOOTH",
"597 965 OFFCURVE",
"524 1015 OFFCURVE",
"418 1032 CURVE"
);
},
{
closed = 1;
nodes = (
"1237 1355 OFFCURVE",
"1220 1380 OFFCURVE",
"1220 1421 CURVE SMOOTH",
"1220 1458 OFFCURVE",
"1236 1485 OFFCURVE",
"1267 1502 CURVE SMOOTH",
"1281 1509 OFFCURVE",
"1296 1513 OFFCURVE",
"1312 1513 CURVE SMOOTH",
"1344 1513 OFFCURVE",
"1369 1499 OFFCURVE",
"1387 1470 CURVE SMOOTH",
"1397 1454 OFFCURVE",
"1402 1437 OFFCURVE",
"1402 1418 CURVE SMOOTH",
"1402 1365 OFFCURVE",
"1376 1319 OFFCURVE",
"1324 1282 CURVE SMOOTH",
"1261 1235 OFFCURVE",
"1177 1212 OFFCURVE",
"1073 1212 CURVE SMOOTH",
"986 1212 OFFCURVE",
"911 1230 OFFCURVE",
"850 1265 CURVE SMOOTH",
"781 1304 OFFCURVE",
"746 1354 OFFCURVE",
"746 1415 CURVE SMOOTH",
"746 1450 OFFCURVE",
"759 1476 OFFCURVE",
"785 1495 CURVE SMOOTH",
"800 1507 OFFCURVE",
"818 1513 OFFCURVE",
"837 1513 CURVE SMOOTH",
"864 1513 OFFCURVE",
"887 1503 OFFCURVE",
"905 1483 CURVE SMOOTH",
"921 1466 OFFCURVE",
"929 1445 OFFCURVE",
"929 1421 CURVE SMOOTH",
"929 1380 OFFCURVE",
"912 1355 OFFCURVE",
"878 1348 CURVE",
"923 1315 OFFCURVE",
"987 1298 OFFCURVE",
"1072 1298 CURVE SMOOTH",
"1160 1298 OFFCURVE",
"1226 1315 OFFCURVE",
"1271 1348 CURVE"
);
}
);
vertWidth = 2048;
width = 2048;
}
);
unicode = 045E;
},
{
color = 4;
glyphname = "dzhe-cy";
lastChange = "2022-04-07 18:22:10 +0000";
layers = (
{
background = {
paths = (
{
closed = 1;
nodes = (
"1675 0 LINE",
"1675 74 LINE",
"1592 75 OFFCURVE",
"1539 87 OFFCURVE",
"1516 111 CURVE SMOOTH",
"1497 132 OFFCURVE",
"1487 173 OFFCURVE",
"1487 235 CURVE SMOOTH",
"1487 868 LINE SMOOTH",
"1487 933 OFFCURVE",
"1498 976 OFFCURVE",
"1520 995 CURVE SMOOTH",
"1545 1018 OFFCURVE",
"1597 1030 OFFCURVE",
"1675 1032 CURVE",
"1675 1106 LINE",
"1157 1106 LINE",
"1157 1032 LINE",
"1241 1031 OFFCURVE",
"1294 1017 OFFCURVE",
"1316 992 CURVE SMOOTH",
"1336 970 OFFCURVE",
"1346 929 OFFCURVE",
"1346 868 CURVE SMOOTH",
"1346 223 LINE SMOOTH",
"1346 140 OFFCURVE",
"1304 98 OFFCURVE",
"1221 98 CURVE SMOOTH",
"827 98 LINE SMOOTH",
"744 98 OFFCURVE",
"702 140 OFFCURVE",
"702 223 CURVE SMOOTH",
"702 868 LINE SMOOTH",
"702 933 OFFCURVE",
"714 977 OFFCURVE",
"738 999 CURVE SMOOTH",
"761 1019 OFFCURVE",
"812 1030 OFFCURVE",
"891 1032 CURVE",
"891 1106 LINE",
"373 1106 LINE",
"373 1032 LINE",
"456 1030 OFFCURVE",
"509 1017 OFFCURVE",
"532 992 CURVE SMOOTH",
"551 971 OFFCURVE",
"561 930 OFFCURVE",
"561 868 CURVE SMOOTH",
"561 235 LINE SMOOTH",
"561 168 OFFCURVE",
"549 124 OFFCURVE",
"525 105 CURVE SMOOTH",
"499 84 OFFCURVE",
"448 74 OFFCURVE",
"373 74 CURVE",
"373 0 LINE"
);
},
{
closed = 1;
nodes = (
"1064 -244 LINE",
"1075 -105 OFFCURVE",
"1134 0 OFFCURVE",
"1239 0 CURVE",
"1024 68 LINE",
"809 0 LINE",
"914 0 OFFCURVE",
"973 -105 OFFCURVE",
"984 -244 CURVE"
);
}
);
};
layerId = "4E782664-D0D5-4FED-AFC2-B9212141A2ED";
paths = (
{
closed = 1;
nodes = (
"973 -105 OFFCURVE",
"914 0 OFFCURVE",
"809 0 CURVE SMOOTH",
"373 0 LINE",
"373 74 LINE",
"448 74 OFFCURVE",
"499 84 OFFCURVE",
"525 105 CURVE SMOOTH",
"549 124 OFFCURVE",
"561 168 OFFCURVE",
"561 235 CURVE SMOOTH",
"561 868 LINE SMOOTH",
"561 930 OFFCURVE",
"551 971 OFFCURVE",
"532 992 CURVE SMOOTH",
"509 1017 OFFCURVE",
"456 1030 OFFCURVE",
"373 1032 CURVE",
"373 1106 LINE",
"891 1106 LINE",
"891 1032 LINE",
"812 1030 OFFCURVE",
"761 1019 OFFCURVE",
"738 999 CURVE SMOOTH",
"714 977 OFFCURVE",
"702 933 OFFCURVE",
"702 868 CURVE SMOOTH",
"702 223 LINE SMOOTH",
"702 140 OFFCURVE",
"744 98 OFFCURVE",
"827 98 CURVE SMOOTH",
"1221 98 LINE SMOOTH",
"1304 98 OFFCURVE",
"1346 140 OFFCURVE",
"1346 223 CURVE SMOOTH",
"1346 868 LINE SMOOTH",
"1346 929 OFFCURVE",
"1336 970 OFFCURVE",
"1316 992 CURVE SMOOTH",
"1294 1017 OFFCURVE",
"1241 1031 OFFCURVE",
"1157 1032 CURVE",
"1157 1106 LINE",
"1675 1106 LINE",
"1675 1032 LINE",
"1597 1030 OFFCURVE",
"1545 1018 OFFCURVE",
"1520 995 CURVE SMOOTH",
"1498 976 OFFCURVE",
"1487 933 OFFCURVE",
"1487 868 CURVE SMOOTH",
"1487 235 LINE SMOOTH",
"1487 173 OFFCURVE",
"1497 132 OFFCURVE",
"1516 111 CURVE SMOOTH",
"1539 87 OFFCURVE",
"1592 75 OFFCURVE",
"1675 74 CURVE",
"1675 0 LINE",
"1239 0 LINE SMOOTH",
"1134 0 OFFCURVE",
"1075 -105 OFFCURVE",
"1064 -244 CURVE",
"984 -244 LINE"
);
}
);
vertWidth = 2048;
width = 2048;
}
);
unicode = 045F;
},
{
color = 4;
glyphname = "lje-cy";
lastChange = "2022-04-07 18:22:10 +0000";
layers = (
{
background = {
paths = (
{
closed = 1;
nodes = (
"1157 856 LINE SMOOTH",
"1157 918 OFFCURVE",
"1147 959 OFFCURVE",
"1126 979 CURVE SMOOTH",
"1107 998 OFFCURVE",
"1063 1008 OFFCURVE",
"995 1008 CURVE SMOOTH",
"911 1008 LINE SMOOTH",
"854 1008 OFFCURVE",
"816 997 OFFCURVE",
"795 974 CURVE SMOOTH",
"777 954 OFFCURVE",
"768 915 OFFCURVE",
"767 856 CURVE SMOOTH",
"766 585 OFFCURVE",
"739 366 OFFCURVE",
"686 200 CURVE SMOOTH",
"635 39 OFFCURVE",
"535 -41 OFFCURVE",
"386 -41 CURVE SMOOTH",
"236 -41 OFFCURVE",
"104 62 OFFCURVE",
"104 217 CURVE SMOOTH",
"104 286 OFFCURVE",
"150 344 OFFCURVE",
"224 344 CURVE SMOOTH",
"286 344 OFFCURVE",
"337 293 OFFCURVE",
"337 221 CURVE SMOOTH",
"337 164 OFFCURVE",
"308 127 OFFCURVE",
"251 111 CURVE",
"274 78 OFFCURVE",
"319 61 OFFCURVE",
"386 61 CURVE SMOOTH",
"529 61 OFFCURVE",
"571 165 OFFCURVE",
"609 345 CURVE SMOOTH",
"644 511 OFFCURVE",
"661 685 OFFCURVE",
"661 867 CURVE SMOOTH",
"661 936 OFFCURVE",
"649 981 OFFCURVE",
"625 1000 CURVE SMOOTH",
"600 1021 OFFCURVE",
"552 1031 OFFCURVE",
"481 1032 CURVE",
"481 1106 LINE",
"1484 1106 LINE",
"1484 1032 LINE",
"1402 1032 OFFCURVE",
"1349 1019 OFFCURVE",
"1326 994 CURVE SMOOTH",
"1306 973 OFFCURVE",
"1297 932 OFFCURVE",
"1296 870 CURVE SMOOTH",
"1291 607 LINE",
"1157 607 LINE"
);
},
{
closed = 1;
nodes = (
"1293 541 LINE",
"1293 246 LINE SMOOTH",
"1293 183 OFFCURVE",
"1304 141 OFFCURVE",
"1327 122 CURVE SMOOTH",
"1349 103 OFFCURVE",
"1394 94 OFFCURVE",
"1463 94 CURVE SMOOTH",
"1556 94 LINE SMOOTH",
"1719 94 OFFCURVE",
"1800 169 OFFCURVE",
"1800 320 CURVE SMOOTH",
"1800 467 OFFCURVE",
"1721 541 OFFCURVE",
"1562 541 CURVE SMOOTH"
);
},
{
closed = 1;
nodes = (
"1293 635 LINE",
"1558 635 LINE SMOOTH",
"1778 635 OFFCURVE",
"1964 552 OFFCURVE",
"1964 321 CURVE SMOOTH",
"1964 79 OFFCURVE",
"1787 0 OFFCURVE",
"1556 0 CURVE SMOOTH",
"964 0 LINE",
"964 74 LINE",
"1044 76 OFFCURVE",
"1096 88 OFFCURVE",
"1120 111 CURVE SMOOTH",
"1145 134 OFFCURVE",
"1157 176 OFFCURVE",
"1157 238 CURVE SMOOTH",
"1157 680 LINE",
"1293 680 LINE"
);
}
);
};
layerId = "4E782664-D0D5-4FED-AFC2-B9212141A2ED";
paths = (
{
closed = 1;
nodes = (
"236 -41 OFFCURVE",
"104 62 OFFCURVE",
"104 217 CURVE SMOOTH",
"104 286 OFFCURVE",
"150 344 OFFCURVE",
"224 344 CURVE SMOOTH",
"286 344 OFFCURVE",
"337 293 OFFCURVE",
"337 221 CURVE SMOOTH",
"337 164 OFFCURVE",
"308 127 OFFCURVE",
"251 111 CURVE",
"274 78 OFFCURVE",
"319 61 OFFCURVE",
"386 61 CURVE SMOOTH",
"529 61 OFFCURVE",
"571 165 OFFCURVE",
"609 345 CURVE SMOOTH",
"644 511 OFFCURVE",
"661 685 OFFCURVE",
"661 867 CURVE SMOOTH",
"661 936 OFFCURVE",
"649 981 OFFCURVE",
"625 1000 CURVE SMOOTH",
"600 1021 OFFCURVE",
"552 1031 OFFCURVE",
"481 1032 CURVE",
"481 1106 LINE",
"1484 1106 LINE",
"1484 1032 LINE",
"1402 1032 OFFCURVE",
"1349 1019 OFFCURVE",
"1326 994 CURVE SMOOTH",
"1306 973 OFFCURVE",
"1297 932 OFFCURVE",
"1296 870 CURVE SMOOTH",
"1292 680 LINE",
"1293 680 LINE",
"1293 635 LINE",
"1558 635 LINE SMOOTH",
"1778 635 OFFCURVE",
"1964 552 OFFCURVE",
"1964 321 CURVE SMOOTH",
"1964 79 OFFCURVE",
"1787 0 OFFCURVE",
"1556 0 CURVE SMOOTH",
"964 0 LINE",
"964 74 LINE",
"1044 76 OFFCURVE",
"1096 88 OFFCURVE",
"1120 111 CURVE SMOOTH",
"1145 134 OFFCURVE",
"1157 176 OFFCURVE",
"1157 238 CURVE SMOOTH",
"1157 856 LINE SMOOTH",
"1157 918 OFFCURVE",
"1147 959 OFFCURVE",
"1126 979 CURVE SMOOTH",
"1107 998 OFFCURVE",
"1063 1008 OFFCURVE",
"995 1008 CURVE SMOOTH",
"911 1008 LINE SMOOTH",
"854 1008 OFFCURVE",
"816 997 OFFCURVE",
"795 974 CURVE SMOOTH",
"777 954 OFFCURVE",
"768 915 OFFCURVE",
"767 856 CURVE SMOOTH",
"766 585 OFFCURVE",
"739 366 OFFCURVE",
"686 200 CURVE SMOOTH",
"635 39 OFFCURVE",
"535 -41 OFFCURVE",
"386 -41 CURVE SMOOTH"
);
},
{
closed = 1;
nodes = (
"1556 94 LINE SMOOTH",
"1719 94 OFFCURVE",
"1800 169 OFFCURVE",
"1800 320 CURVE SMOOTH",
"1800 467 OFFCURVE",
"1721 541 OFFCURVE",
"1562 541 CURVE SMOOTH",
"1293 541 LINE",
"1293 246 LINE SMOOTH",
"1293 183 OFFCURVE",
"1304 141 OFFCURVE",
"1327 122 CURVE SMOOTH",
"1349 103 OFFCURVE",
"1394 94 OFFCURVE",
"1463 94 CURVE SMOOTH"
);
}
);
vertWidth = 2048;
width = 2048;
}
);
unicode = 0459;
},
{
color = 4;
glyphname = "nje-cy";
lastChange = "2022-04-07 18:22:10 +0000";
layers = (
{
background = {
paths = (
{
closed = 1;
nodes = (
"1136 539 LINE",
"542 539 LINE",
"542 238 LINE SMOOTH",
"542 173 OFFCURVE",
"554 129 OFFCURVE",
"578 107 CURVE SMOOTH",
"601 87 OFFCURVE",
"652 76 OFFCURVE",
"731 74 CURVE",
"731 0 LINE",
"213 0 LINE",
"213 74 LINE",
"292 76 OFFCURVE",
"343 88 OFFCURVE",
"368 111 CURVE SMOOTH",
"390 130 OFFCURVE",
"401 173 OFFCURVE",
"401 238 CURVE SMOOTH",
"401 871 LINE SMOOTH",
"401 938 OFFCURVE",
"389 982 OFFCURVE",
"365 1001 CURVE SMOOTH",
"339 1021 OFFCURVE",
"288 1031 OFFCURVE",
"213 1032 CURVE",
"213 1106 LINE",
"731 1106 LINE",
"731 1032 LINE",
"648 1031 OFFCURVE",
"595 1019 OFFCURVE",
"572 994 CURVE SMOOTH",
"552 973 OFFCURVE",
"542 932 OFFCURVE",
"542 871 CURVE SMOOTH",
"542 637 LINE",
"1136 637 LINE",
"1136 871 LINE SMOOTH",
"1136 938 OFFCURVE",
"1124 982 OFFCURVE",
"1100 1001 CURVE SMOOTH",
"1074 1022 OFFCURVE",
"1023 1032 OFFCURVE",
"947 1032 CURVE",
"947 1106 LINE",
"1465 1106 LINE",
"1465 1032 LINE",
"1382 1031 OFFCURVE",
"1329 1019 OFFCURVE",
"1306 994 CURVE SMOOTH",
"1287 973 OFFCURVE",
"1277 932 OFFCURVE",
"1277 871 CURVE SMOOTH",
"1277 515 LINE",
"1136 515 LINE"
);
},
{
closed = 1;
nodes = (
"1277 541 LINE",
"1277 246 LINE SMOOTH",
"1277 183 OFFCURVE",
"1288 141 OFFCURVE",
"1311 122 CURVE SMOOTH",
"1333 103 OFFCURVE",
"1378 94 OFFCURVE",
"1447 94 CURVE SMOOTH",
"1540 94 LINE SMOOTH",
"1703 94 OFFCURVE",
"1784 169 OFFCURVE",
"1784 320 CURVE SMOOTH",
"1784 467 OFFCURVE",
"1705 541 OFFCURVE",
"1546 541 CURVE SMOOTH"
);
},
{
closed = 1;
nodes = (
"1277 635 LINE",
"1542 635 LINE SMOOTH",
"1762 635 OFFCURVE",
"1948 552 OFFCURVE",
"1948 321 CURVE SMOOTH",
"1948 79 OFFCURVE",
"1771 0 OFFCURVE",
"1540 0 CURVE SMOOTH",
"943 0 LINE",
"943 74 LINE",
"1023 76 OFFCURVE",
"1075 88 OFFCURVE",
"1099 111 CURVE SMOOTH",
"1124 134 OFFCURVE",
"1136 176 OFFCURVE",
"1136 238 CURVE SMOOTH",
"1136 680 LINE",
"1277 680 LINE"
);
}
);
};
layerId = "4E782664-D0D5-4FED-AFC2-B9212141A2ED";
paths = (
{
closed = 1;
nodes = (
"213 74 LINE",
"292 76 OFFCURVE",
"343 88 OFFCURVE",
"368 111 CURVE SMOOTH",
"390 130 OFFCURVE",
"401 173 OFFCURVE",
"401 238 CURVE SMOOTH",
"401 871 LINE SMOOTH",
"401 938 OFFCURVE",
"389 982 OFFCURVE",
"365 1001 CURVE SMOOTH",
"339 1021 OFFCURVE",
"288 1031 OFFCURVE",
"213 1032 CURVE",
"213 1106 LINE",
"731 1106 LINE",
"731 1032 LINE",
"648 1031 OFFCURVE",
"595 1019 OFFCURVE",
"572 994 CURVE SMOOTH",
"552 973 OFFCURVE",
"542 932 OFFCURVE",
"542 871 CURVE SMOOTH",
"542 637 LINE",
"1136 637 LINE",
"1136 871 LINE SMOOTH",
"1136 938 OFFCURVE",
"1124 982 OFFCURVE",
"1100 1001 CURVE SMOOTH",
"1074 1022 OFFCURVE",
"1023 1032 OFFCURVE",
"947 1032 CURVE",
"947 1106 LINE",
"1465 1106 LINE",
"1465 1032 LINE",
"1382 1031 OFFCURVE",
"1329 1019 OFFCURVE",
"1306 994 CURVE SMOOTH",
"1287 973 OFFCURVE",
"1277 932 OFFCURVE",
"1277 871 CURVE SMOOTH",
"1277 635 LINE",
"1542 635 LINE SMOOTH",
"1762 635 OFFCURVE",
"1948 552 OFFCURVE",
"1948 321 CURVE SMOOTH",
"1948 79 OFFCURVE",
"1771 0 OFFCURVE",
"1540 0 CURVE SMOOTH",
"943 0 LINE",
"943 74 LINE",
"1023 76 OFFCURVE",
"1075 88 OFFCURVE",
"1099 111 CURVE SMOOTH",
"1124 134 OFFCURVE",
"1136 176 OFFCURVE",
"1136 238 CURVE SMOOTH",
"1136 539 LINE",
"542 539 LINE",
"542 238 LINE SMOOTH",
"542 173 OFFCURVE",
"554 129 OFFCURVE",
"578 107 CURVE SMOOTH",
"601 87 OFFCURVE",
"652 76 OFFCURVE",
"731 74 CURVE",
"731 0 LINE",
"213 0 LINE"
);
},
{
closed = 1;
nodes = (
"1540 94 LINE SMOOTH",
"1703 94 OFFCURVE",
"1784 169 OFFCURVE",
"1784 320 CURVE SMOOTH",
"1784 467 OFFCURVE",
"1705 541 OFFCURVE",
"1546 541 CURVE SMOOTH",
"1277 541 LINE",
"1277 246 LINE SMOOTH",
"1277 183 OFFCURVE",
"1288 141 OFFCURVE",
"1311 122 CURVE SMOOTH",
"1333 103 OFFCURVE",
"1378 94 OFFCURVE",
"1447 94 CURVE SMOOTH"
);
}
);
vertWidth = 2048;
width = 2048;
}
);
unicode = 045A;
},
{
color = 4;
glyphname = "dze-cy";
lastChange = "2022-04-07 18:22:10 +0000";
layers = (
{
layerId = "4E782664-D0D5-4FED-AFC2-B9212141A2ED";
paths = (
{
closed = 1;
nodes = (
"582 401 LINE",
"652 401 LINE",
"682 281 OFFCURVE",
"736 194 OFFCURVE",
"813 140 CURVE SMOOTH",
"894 83 OFFCURVE",
"977 55 OFFCURVE",
"1063 55 CURVE SMOOTH",
"1144 55 OFFCURVE",
"1209 75 OFFCURVE",
"1260 114 CURVE SMOOTH",
"1309 151 OFFCURVE",
"1333 197 OFFCURVE",
"1333 252 CURVE SMOOTH",
"1333 311 OFFCURVE",
"1299 362 OFFCURVE",
"1232 405 CURVE SMOOTH",
"1191 431 OFFCURVE",
"1132 458 OFFCURVE",
"1055 485 CURVE SMOOTH",
"998 506 LINE SMOOTH",
"832 565 OFFCURVE",
"725 618 OFFCURVE",
"676 667 CURVE SMOOTH",
"628 715 OFFCURVE",
"604 778 OFFCURVE",
"604 857 CURVE SMOOTH",
"604 942 OFFCURVE",
"639 1012 OFFCURVE",
"709 1068 CURVE SMOOTH",
"774 1121 OFFCURVE",
"865 1147 OFFCURVE",
"981 1147 CURVE SMOOTH",
"1078 1147 OFFCURVE",
"1168 1116 OFFCURVE",
"1251 1055 CURVE SMOOTH",
"1266 1044 OFFCURVE",
"1281 1038 OFFCURVE",
"1296 1038 CURVE SMOOTH",
"1315 1038 OFFCURVE",
"1327 1061 OFFCURVE",
"1333 1106 CURVE",
"1401 1106 LINE",
"1401 772 LINE",
"1323 772 LINE",
"1300 853 OFFCURVE",
"1263 918 OFFCURVE",
"1210 967 CURVE SMOOTH",
"1150 1023 OFFCURVE",
"1075 1051 OFFCURVE",
"985 1051 CURVE SMOOTH",
"912 1051 OFFCURVE",
"856 1036 OFFCURVE",
"816 1005 CURVE SMOOTH",
"772 971 OFFCURVE",
"750 926 OFFCURVE",
"750 869 CURVE SMOOTH",
"750 828 OFFCURVE",
"769 793 OFFCURVE",
"808 762 CURVE SMOOTH",
"842 736 OFFCURVE",
"917 703 OFFCURVE",
"1032 662 CURVE SMOOTH",
"1102 637 LINE SMOOTH",
"1246 586 OFFCURVE",
"1346 535 OFFCURVE",
"1402 483 CURVE SMOOTH",
"1461 428 OFFCURVE",
"1491 354 OFFCURVE",
"1491 261 CURVE SMOOTH",
"1491 167 OFFCURVE",
"1452 93 OFFCURVE",
"1374 39 CURVE SMOOTH",
"1298 -14 OFFCURVE",
"1200 -41 OFFCURVE",
"1080 -41 CURVE SMOOTH",
"970 -41 OFFCURVE",
"872 -12 OFFCURVE",
"787 45 CURVE SMOOTH",
"782 48 LINE SMOOTH",
"751 69 OFFCURVE",
"731 80 OFFCURVE",
"722 80 CURVE SMOOTH",
"699 80 OFFCURVE",
"676 44 OFFCURVE",
"652 -29 CURVE",
"582 -29 LINE"
);
}
);
vertWidth = 2048;
width = 2048;
}
);
unicode = 0455;
},
{
color = 4;
glyphname = "e-cy";
lastChange = "2022-04-07 18:22:10 +0000";
layers = (
{
background = {
paths = (
{
closed = 1;
nodes = (
"1526 272 LINE",
"1419 63 OFFCURVE",
"1259 -41 OFFCURVE",
"1047 -41 CURVE SMOOTH",
"931 -41 OFFCURVE",
"829 -10 OFFCURVE",
"740 51 CURVE SMOOTH",
"583 159 OFFCURVE",
"504 327 OFFCURVE",
"504 555 CURVE SMOOTH",
"504 706 OFFCURVE",
"542 832 OFFCURVE",
"617 934 CURVE SMOOTH",
"685 1027 OFFCURVE",
"776 1090 OFFCURVE",
"889 1123 CURVE SMOOTH",
"945 1139 OFFCURVE",
"1002 1147 OFFCURVE",
"1061 1147 CURVE SMOOTH",
"1182 1147 OFFCURVE",
"1282 1116 OFFCURVE",
"1360 1054 CURVE SMOOTH",
"1430 999 OFFCURVE",
"1465 940 OFFCURVE",
"1465 877 CURVE SMOOTH",
"1465 854 OFFCURVE",
"1460 832 OFFCURVE",
"1451 811 CURVE SMOOTH",
"1431 769 OFFCURVE",
"1397 748 OFFCURVE",
"1350 748 CURVE SMOOTH",
"1311 748 OFFCURVE",
"1281 763 OFFCURVE",
"1260 793 CURVE SMOOTH",
"1247 810 OFFCURVE",
"1241 831 OFFCURVE",
"1241 855 CURVE SMOOTH",
"1241 903 OFFCURVE",
"1257 935 OFFCURVE",
"1290 952 CURVE",
"1248 1017 OFFCURVE",
"1172 1049 OFFCURVE",
"1063 1049 CURVE SMOOTH",
"942 1049 OFFCURVE",
"843 998 OFFCURVE",
"767 896 CURVE SMOOTH",
"701 807 OFFCURVE",
"668 693 OFFCURVE",
"668 555 CURVE SMOOTH",
"668 454 OFFCURVE",
"686 367 OFFCURVE",
"723 292 CURVE SMOOTH",
"756 223 OFFCURVE",
"803 170 OFFCURVE",
"862 131 CURVE SMOOTH",
"921 93 OFFCURVE",
"988 74 OFFCURVE",
"1061 74 CURVE SMOOTH",
"1225 74 OFFCURVE",
"1359 162 OFFCURVE",
"1462 338 CURVE"
);
},
{
closed = 1;
nodes = (
"746 618 OFFCURVE",
"824 653 OFFCURVE",
"882 653 CURVE SMOOTH",
"1025 653 OFFCURVE",
"1109 547 OFFCURVE",
"1243 547 CURVE SMOOTH",
"1302 547 OFFCURVE",
"1356 573 OFFCURVE",
"1408 625 CURVE",
"1449 559 LINE",
"1379 477 OFFCURVE",
"1275 409 OFFCURVE",
"1186 409 CURVE SMOOTH",
"1070 409 OFFCURVE",
"976 524 OFFCURVE",
"853 524 CURVE SMOOTH",
"787 524 OFFCURVE",
"720 496 OFFCURVE",
"654 441 CURVE",
"649 548 LINE"
);
}
);
};
layerId = "4E782664-D0D5-4FED-AFC2-B9212141A2ED";
paths = (
{
closed = 1;
nodes = (
"931 -41 OFFCURVE",
"829 -10 OFFCURVE",
"740 51 CURVE SMOOTH",
"583 159 OFFCURVE",
"504 327 OFFCURVE",
"504 555 CURVE SMOOTH",
"504 706 OFFCURVE",
"542 832 OFFCURVE",
"617 934 CURVE SMOOTH",
"685 1027 OFFCURVE",
"776 1090 OFFCURVE",
"889 1123 CURVE SMOOTH",
"945 1139 OFFCURVE",
"1002 1147 OFFCURVE",
"1061 1147 CURVE SMOOTH",
"1182 1147 OFFCURVE",
"1282 1116 OFFCURVE",
"1360 1054 CURVE SMOOTH",
"1430 999 OFFCURVE",
"1465 940 OFFCURVE",
"1465 877 CURVE SMOOTH",
"1465 854 OFFCURVE",
"1460 832 OFFCURVE",
"1451 811 CURVE SMOOTH",
"1431 769 OFFCURVE",
"1397 748 OFFCURVE",
"1350 748 CURVE SMOOTH",
"1311 748 OFFCURVE",
"1281 763 OFFCURVE",
"1260 793 CURVE SMOOTH",
"1247 810 OFFCURVE",
"1241 831 OFFCURVE",
"1241 855 CURVE SMOOTH",
"1241 903 OFFCURVE",
"1257 935 OFFCURVE",
"1290 952 CURVE",
"1248 1017 OFFCURVE",
"1172 1049 OFFCURVE",
"1063 1049 CURVE SMOOTH",
"942 1049 OFFCURVE",
"843 998 OFFCURVE",
"767 896 CURVE SMOOTH",
"702 808 OFFCURVE",
"669 697 OFFCURVE",
"668 561 CURVE",
"756 622 OFFCURVE",
"828 653 OFFCURVE",
"882 653 CURVE SMOOTH",
"1025 653 OFFCURVE",
"1109 547 OFFCURVE",
"1243 547 CURVE SMOOTH",
"1302 547 OFFCURVE",
"1356 573 OFFCURVE",
"1408 625 CURVE",
"1449 559 LINE",
"1379 477 OFFCURVE",
"1275 409 OFFCURVE",
"1186 409 CURVE SMOOTH",
"1070 409 OFFCURVE",
"976 524 OFFCURVE",
"853 524 CURVE SMOOTH",
"794 524 OFFCURVE",
"734 501 OFFCURVE",
"674 457 CURVE",
"682 396 OFFCURVE",
"699 342 OFFCURVE",
"723 292 CURVE SMOOTH",
"756 223 OFFCURVE",
"803 170 OFFCURVE",
"862 131 CURVE SMOOTH",
"921 93 OFFCURVE",
"988 74 OFFCURVE",
"1061 74 CURVE SMOOTH",
"1225 74 OFFCURVE",
"1359 162 OFFCURVE",
"1462 338 CURVE",
"1526 272 LINE",
"1419 63 OFFCURVE",
"1259 -41 OFFCURVE",
"1047 -41 CURVE SMOOTH"
);
}
);
vertWidth = 2048;
width = 2048;
}
);
unicode = 0454;
},
{
color = 4;
glyphname = "i-cy";
lastChange = "2022-04-07 18:22:10 +0000";
layers = (
{
layerId = "4E782664-D0D5-4FED-AFC2-B9212141A2ED";
paths = (
{
closed = 1;
nodes = (
"1047 1653 OFFCURVE",
"1070 1646 OFFCURVE",
"1092 1633 CURVE SMOOTH",
"1131 1608 OFFCURVE",
"1151 1572 OFFCURVE",
"1151 1526 CURVE SMOOTH",
"1151 1493 OFFCURVE",
"1139 1464 OFFCURVE",
"1116 1439 CURVE SMOOTH",
"1091 1412 OFFCURVE",
"1061 1399 OFFCURVE",
"1024 1399 CURVE SMOOTH",
"1003 1399 OFFCURVE",
"983 1404 OFFCURVE",
"964 1414 CURVE SMOOTH",
"919 1439 OFFCURVE",
"897 1476 OFFCURVE",
"897 1526 CURVE SMOOTH",
"897 1565 OFFCURVE",
"912 1597 OFFCURVE",
"941 1622 CURVE SMOOTH",
"965 1643 OFFCURVE",
"993 1653 OFFCURVE",
"1024 1653 CURVE SMOOTH"
);
},
{
closed = 1;
nodes = (
"752 0 LINE",
"752 74 LINE",
"844 77 OFFCURVE",
"902 91 OFFCURVE",
"925 116 CURVE SMOOTH",
"946 138 OFFCURVE",
"957 179 OFFCURVE",
"957 238 CURVE SMOOTH",
"957 887 LINE SMOOTH",
"957 942 OFFCURVE",
"943 978 OFFCURVE",
"914 996 CURVE SMOOTH",
"887 1013 OFFCURVE",
"839 1025 OFFCURVE",
"772 1032 CURVE",
"772 1106 LINE",
"872 1106 OFFCURVE",
"982 1120 OFFCURVE",
"1102 1147 CURVE",
"1102 238 LINE SMOOTH",
"1102 174 OFFCURVE",
"1115 130 OFFCURVE",
"1140 107 CURVE SMOOTH",
"1163 86 OFFCURVE",
"1216 75 OFFCURVE",
"1298 74 CURVE",
"1298 0 LINE"
);
}
);
vertWidth = 2048;
width = 2048;
}
);
unicode = 0456;
},
{
color = 4;
glyphname = "yi-cy";
lastChange = "2022-04-07 18:22:10 +0000";
layers = (
{
layerId = "4E782664-D0D5-4FED-AFC2-B9212141A2ED";
paths = (
{
closed = 1;
nodes = (
"752 0 LINE",
"752 74 LINE",
"844 77 OFFCURVE",
"902 91 OFFCURVE",
"925 116 CURVE SMOOTH",
"946 138 OFFCURVE",
"957 179 OFFCURVE",
"957 238 CURVE SMOOTH",
"957 887 LINE SMOOTH",
"957 942 OFFCURVE",
"943 978 OFFCURVE",
"914 996 CURVE SMOOTH",
"887 1013 OFFCURVE",
"839 1025 OFFCURVE",
"772 1032 CURVE",
"772 1106 LINE",
"872 1106 OFFCURVE",
"982 1120 OFFCURVE",
"1102 1147 CURVE",
"1102 238 LINE SMOOTH",
"1102 174 OFFCURVE",
"1115 130 OFFCURVE",
"1140 107 CURVE SMOOTH",
"1163 86 OFFCURVE",
"1216 75 OFFCURVE",
"1298 74 CURVE",
"1298 0 LINE"
);
},
{
closed = 1;
nodes = (
"816 1508 OFFCURVE",
"833 1504 OFFCURVE",
"849 1497 CURVE SMOOTH",
"894 1476 OFFCURVE",
"917 1440 OFFCURVE",
"917 1389 CURVE SMOOTH",
"917 1356 OFFCURVE",
"905 1328 OFFCURVE",
"882 1305 CURVE SMOOTH",
"859 1282 OFFCURVE",
"830 1270 OFFCURVE",
"797 1270 CURVE SMOOTH",
"777 1270 OFFCURVE",
"758 1275 OFFCURVE",
"741 1285 CURVE SMOOTH",
"700 1308 OFFCURVE",
"679 1343 OFFCURVE",
"679 1390 CURVE SMOOTH",
"679 1425 OFFCURVE",
"692 1454 OFFCURVE",
"718 1477 CURVE SMOOTH",
"740 1498 OFFCURVE",
"767 1508 OFFCURVE",
"799 1508 CURVE SMOOTH"
);
},
{
closed = 1;
nodes = (
"1271 1508 OFFCURVE",
"1287 1504 OFFCURVE",
"1304 1497 CURVE SMOOTH",
"1349 1475 OFFCURVE",
"1372 1439 OFFCURVE",
"1372 1389 CURVE SMOOTH",
"1372 1356 OFFCURVE",
"1360 1328 OFFCURVE",
"1337 1305 CURVE SMOOTH",
"1314 1282 OFFCURVE",
"1285 1270 OFFCURVE",
"1252 1270 CURVE SMOOTH",
"1232 1270 OFFCURVE",
"1213 1275 OFFCURVE",
"1196 1285 CURVE SMOOTH",
"1155 1308 OFFCURVE",
"1134 1343 OFFCURVE",
"1134 1390 CURVE SMOOTH",
"1134 1425 OFFCURVE",
"1147 1454 OFFCURVE",
"1173 1477 CURVE SMOOTH",
"1195 1498 OFFCURVE",
"1222 1508 OFFCURVE",
"1254 1508 CURVE SMOOTH"
);
}
);
vertWidth = 2048;
width = 2048;
}
);
unicode = 0457;
},
{
color = 4;
glyphname = "je-cy";
lastChange = "2022-04-07 18:22:10 +0000";
layers = (
{
layerId = "4E782664-D0D5-4FED-AFC2-B9212141A2ED";
paths = (
{
closed = 1;
nodes = (
"856 1106 LINE",
"955 1106 OFFCURVE",
"1065 1120 OFFCURVE",
"1185 1147 CURVE",
"1185 227 LINE SMOOTH",
"1185 83 OFFCURVE",
"1160 -26 OFFCURVE",
"1110 -99 CURVE SMOOTH",
"1043 -196 OFFCURVE",
"949 -244 OFFCURVE",
"828 -244 CURVE SMOOTH",
"750 -244 OFFCURVE",
"682 -221 OFFCURVE",
"624 -176 CURVE SMOOTH",
"561 -127 OFFCURVE",
"530 -68 OFFCURVE",
"530 1 CURVE SMOOTH",
"530 23 OFFCURVE",
"535 43 OFFCURVE",
"544 60 CURVE SMOOTH",
"566 102 OFFCURVE",
"599 123 OFFCURVE",
"644 123 CURVE SMOOTH",
"673 123 OFFCURVE",
"698 112 OFFCURVE",
"719 91 CURVE SMOOTH",
"742 68 OFFCURVE",
"753 39 OFFCURVE",
"753 6 CURVE SMOOTH",
"753 -45 OFFCURVE",
"730 -80 OFFCURVE",
"684 -98 CURVE",
"714 -139 OFFCURVE",
"761 -160 OFFCURVE",
"824 -160 CURVE SMOOTH",
"903 -160 OFFCURVE",
"961 -121 OFFCURVE",
"999 -44 CURVE SMOOTH",
"1026 11 OFFCURVE",
"1040 98 OFFCURVE",
"1040 217 CURVE SMOOTH",
"1040 887 LINE SMOOTH",
"1040 942 OFFCURVE",
"1026 978 OFFCURVE",
"997 996 CURVE SMOOTH",
"970 1013 OFFCURVE",
"923 1025 OFFCURVE",
"856 1032 CURVE"
);
},
{
closed = 1;
nodes = (
"1131 1653 OFFCURVE",
"1154 1646 OFFCURVE",
"1176 1633 CURVE SMOOTH",
"1215 1608 OFFCURVE",
"1235 1572 OFFCURVE",
"1235 1526 CURVE SMOOTH",
"1235 1493 OFFCURVE",
"1223 1464 OFFCURVE",
"1200 1439 CURVE SMOOTH",
"1175 1412 OFFCURVE",
"1145 1399 OFFCURVE",
"1108 1399 CURVE SMOOTH",
"1087 1399 OFFCURVE",
"1067 1404 OFFCURVE",
"1048 1414 CURVE SMOOTH",
"1003 1439 OFFCURVE",
"981 1476 OFFCURVE",
"981 1526 CURVE SMOOTH",
"981 1565 OFFCURVE",
"996 1597 OFFCURVE",
"1025 1622 CURVE SMOOTH",
"1049 1643 OFFCURVE",
"1077 1653 OFFCURVE",
"1108 1653 CURVE SMOOTH"
);
}
);
vertWidth = 2048;
width = 2048;
}
);
unicode = 0458;
},
